<svg id="Layer_1" data-name="Layer 1" xmlns="http://www.w3.org/2000/svg" viewBox="0 0 1000.1 1000"><defs><style>.cls-1{fill:#fff;}</style></defs><path class="cls-1" d="M907,558.78C881.22,739,738.88,881.22,558.77,907.14V1000H441.22V907C261,881.22,118.77,738.88,92.86,558.78H0V441.22H92.86C118.67,261.12,261,118.78,441.22,93V0H558.88V93c180.2,25.82,322.45,168.16,348.36,348.26h92.86V558.88H907Zm-348.27-365v12.14h-8.16a58.78,58.78,0,1,1-101.22,0h-8.17V193.78A312,312,0,0,0,193.77,441.22h12.15v8.17a58.78,58.78,0,1,1,0,101.22v8.17H193.77c23.88,125,122.35,223.57,247.45,247.44V794.08h8.17a58.77,58.77,0,1,1,101.22,0h8.16v12.14c125-23.87,223.47-122.34,247.45-247.44H794.08v-8.17a58.78,58.78,0,1,1,0-101.22v-8.17h12.14A312,312,0,0,0,558.77,193.78Z"/></svg>