<?xml version="1.0" encoding="utf-8"?>
<svg version="1.1" xmlns:xlink="http://www.w3.org/1999/xlink" width="33px" height="33px" xmlns="http://www.w3.org/2000/svg">
  <g>
    <path d="M 19.1548883112306 18.6354958078886  C 18.9527911177689 20.6114052929491  20.3791029651496 22.5445179132451  22.919130281535 22.2986172834963  C 23.0049125435079 22.2986172834963  23.131405031502 22.2986172834963  23.2571705511742 22.2986172834963  C 25.2883200422963 22.2862859834794  26.5634224787417 21.0364724582374  26.5903203066485 19.0199422201801  C 26.5997708948319 18.3148820074493  26.6019517997973 17.6090964241292  26.580869718465 16.9047615819876  C 26.5554258272018 16.0676839220171  26.863660395647 15.4300831740846  27.5070273604441 14.8679209674319  C 29.3331717848174 13.2721056711276  30.0812221879543 11.2301874624472  29.6981098823633 8.84226748270454  C 29.1405251795391 5.36701698970721  26.1323302639115 3.03930276887055  22.3920782482266 3.24820949856858  C 19.5678063180156 3.40706565760978  17.5497422566859 4.88392017728053  16.473829140415 7.4821976278997  C 15.4335374719126 9.99560671957905  15.8609948451337 12.4147176346586  17.7656518482619 14.3006811666546  C 18.8757324756576 15.4010683505154  19.3279067718201 16.4934764578947  19.1614310261268 17.9565489363701  C 19.1359871348636 18.1799630778527  19.1774243292065 18.4113562958168  19.1548883112306 18.6354958078886  Z M 6.38278186544477 22.1985161421827  C 6.38278186544477 21.3498325527845  6.20976340485527 21.2004062114033  5.33885535533331 21.2743940115046  C 1.81233202625898 21.5717959530886  -0.685531127461778 25.0775120108336  0.177380270520333 28.5208461979048  C 0.883993479314449 31.3497914958989  3.47200070493898 33.1537881513121  6.45620566594704 32.9064367803849  C 9.21868528880469 32.6764943035992  11.5042736925585 30.3117861827119  11.7158214742036 27.4792140317716  C 11.7601665418337 26.8300073544115  11.5093624708111 26.559444124629  10.8492752346125 26.5717754246459  C 9.54073225536414 26.5957126540904  8.22855443450677 26.559444124629  6.9185575186148 26.584832095252  C 6.49182711371547 26.5935365423227  6.35297616425078 26.4694981715645  6.37405824558312 26.0429802650977  C 6.40749878838613 25.3901467347914  6.38278186544477 24.7373132044851  6.38278186544477 24.0844796741788  C 6.38278186544477 23.4563087439062  6.38278186544477 22.8274124430445  6.38278186544477 22.1985161421827  Z M 20.4009120148037 16.9700449350183  C 19.9276556373089 16.7734695053372  20.3027712913601 16.1721372868661  20.1421112922413 15.7557745686485  C 19.9189320174472 15.1754780972651  19.6615852315284 14.6394292318247  19.1723355509539 14.2586096724794  C 16.8109107893765 12.4244125218633  16.3422840898102 9.04768220332926  18.1153236110499 6.64221848557223  C 19.9327444155615 4.18828978220968  23.2847953474027 3.52820254601107  25.9542230250694 5.09210153638933  C 29.1986826452835 6.99474859193765  29.7308234568445 11.3230348978686  26.9930607569282 13.9002766014001  C 26.1475965986694 14.6981842495523  25.4736969643565 15.5047963447752  25.5529365114332 16.7277711582157  C 25.5747455610874 17.057814776315  25.3515662862933 17.0092149468367  25.1552848394061 17.0099403174259  C 24.3982684936335 17.0099403174259  23.6414944706349 17.0099403174259  22.8849627704102 16.9714285714286  L 21.8243159888972 16.9714285714286  C 21.345243864828 17.0099403174259  20.8101951799797 17.1397816528979  20.4009120148037 16.9700449350183  Z M 7.70804511609463 26.0618399004177  C 8.51352601665418 26.0422548945085  9.31973388553553 26.0567623062931  10.1259417544169 26.0560369357039  C 10.9321496232982 26.0553115651146  11.7383574921796 26.0422548945085  12.5445653610609 26.0560369357039  C 13.0534431863242 26.0661921239531  13.2591752213949 25.860186876612  13.2788033660836 25.3437230170807  C 13.3842137727453 22.4792345602144  10.5308631096621 19.6198236974727  7.63534828391417 19.6981637211095  C 7.12647045865092 19.7119457623048  6.9025642155351 19.9106973037537  6.90837996210953 20.4191820868034  C 6.91710358197118 22.0527166537476  6.91710358197118 23.6864930108883  6.90837996210953 25.3205111582254  C 6.90837996210953 25.8717928060396  7.17590430453364 26.0748965710238  7.70804511609463 26.0618399004177  Z M 21.2601885711768 28.1886264680378  C 21.3946777107107 28.7355558923167  21.032647486452 28.6615680922153  20.6953341851346 28.6905829157845  C 20.2707846852007 28.7268514452459  20.2111732828127 28.5375297214571  20.2046305679165 28.1726683150748  C 20.1966339163766 27.746150408608  20.3318500242323 27.606879255476  20.7665770806715 27.6134075907791  C 21.2143895669031 27.6199359260821  21.359783231264 27.7831443086587  21.2601885711768 28.1886264680378  Z M 19.1636119310922 28.176295168021  C 19.153434374587 28.5890310332924  19.0930960038772 28.8291286983273  18.6576419791162 28.644884568663  C 18.1640304886108 28.793585539455  18.0876988148214 28.5766997332755  18.0760673216725 28.1712175738963  C 18.0637088602018 27.7359952203588  18.2214609860334 27.6264642613852  18.6271093096004 27.6184851849037  C 19.0552936511433 27.6097807378329  19.1737894875975 27.7635593027495  19.1636119310922 28.176295168021  Z M 15.9540467903247 28.1393012679703  C 15.9453231704631 27.6794163143989  16.1590518570736 27.6315418555098  16.5356214477684 27.6126822201898  C 17.0088778252633 27.5836673966206  17.0873904040182 27.8107083910494  17.0197823500903 28.2103875857147  C 17.1593602678768 28.7116186628721  16.8256818081685 28.6630188333938  16.4774639820241 28.6876814334276  C 16.0332863374014 28.7181469981752  15.9620434418646 28.5382550920464  15.9540467903247 28.1393012679703  Z M 12.7655637308895 10.1138421256234  C 12.7735603824294 9.41748635996334  13.2126492487994 9.63582290732135  13.5579592016566 9.59955437785989  C 13.6577313027451 9.59447533907191  13.7576980491517 9.59447533907191  13.8574701502401 9.59955437785989  L 13.8574701502401 9.6075334543414  C 14.0819972809616 9.61914992956188  14.3070121653348 9.61769672343783  14.531369784553 9.60318123080603  C 14.9951755738644 9.54805306602461  14.9028505969952 9.86721612528547  14.9093933118914 10.1276241668188  C 14.9166629951095 10.406891843672  14.9537383795215 10.6890610028822  14.5131955765079 10.6513417322423  C 14.1911486099484 10.6230522792624  13.8640128651364 10.6513417322423  13.5397849936115 10.6469895087069  C 13.1763008327092 10.6390104322254  12.7575670793497 10.8101978912835  12.7655637308895 10.1138421256234  Z M 28.46008283033 3.80964633463201  C 28.7174296162489 3.5340055107249  28.984953958673 3.26779450447777  29.2517513327753 3.00158349823063  C 29.4792924175001 2.77454250380188  29.6566726880204 2.51848668580395  30.0150680706701 2.91816588046927  C 30.305855399392 3.24023042208706  30.3916376613649 3.42012232821591  30.0426928668987 3.74871520513676  C 29.6792087059964 4.09254086443142  29.3847865356655 4.50890358264901  28.8868132352293 5.09862987169239  C 28.6192888928052 4.69532382408093  28.4746221967661 4.45812764140296  28.3103273560382 4.23616424109881  C 28.1460325153104 4.01420084079467  28.3524915187029 3.92352951714101  28.46008283033 3.80964633463201  Z M 17.1906199057144 3.67110055208923  C 17.4908578226197 3.9307832230333  17.6326166453716 4.09544234678834  17.2633167378949 4.47408579436601  C 16.8940168304181 4.85272924194367  16.7282680530467 4.73231772413162  16.4636515839098 4.42766207665533  C 16.2179362911398 4.14694365862361  15.9227871524871 3.90974747594565  15.6719830814645 3.62975442850316  C 15.5789311362735 3.52747717542184  15.3215843503547 3.44623566942816  15.5149579239547 3.22427226912401  C 15.6879763845442 3.01971776296136  15.8740802749262 2.82676918622638  16.0819932149623 2.59610133885148  C 16.2157553861744 2.71361137430662  16.310261268009 2.78904991558646  16.3953165616601 2.87319290393706  C 16.6606599991188 3.13795316900573  16.9078292285324 3.42302381057283  17.1906199057144 3.67110055208923  Z M 22.3302859408732 28.1429281209164  C 22.3193814160462 27.6598313084897  22.5534652156673 27.6547537143651  22.9256729964312 27.6213866672606  C 23.4752610477156 27.572061467193  23.3705776093757 27.9224154617907  23.4120148037186 28.2343248151593  C 23.4716262061065 28.6876814334276  23.23536150152 28.7413588570305  22.8718773406177 28.6651949451615  C 22.4356963475349 28.7645707158859  22.3397365290567 28.5636430626694  22.3302859408732 28.1429281209164  Z M 13.835661100586 23.9930829799359  C 13.8523813719875 23.5963052676275  13.8683746750672 23.3489538967003  14.3837952152267 23.367088161431  C 14.803255936908 23.3815955732156  14.9246596466493 23.4962041263138  14.9246596466493 23.9132922151206  C 14.9246596466493 24.3303803039275  14.8054368418734 24.5153498041809  14.3917918667665 24.407994956975  C 14.0392122306913 24.4761797923625  13.8160329558973 24.4486157099718  13.835661100586 23.9930829799359  Z M 30.8699828171124 9.95571133717144  C 30.8954267083756 9.7018316309412  30.9535841741199 9.59302604255681  31.2131118650042 9.59955437785987  C 31.6885491474644 9.61043493669831  32.1654403665683 9.62929457201828  32.6386967440631 9.59955437785987  C 33.0487068775609 9.57344103664762  33.0021809049654 9.83167296641324  32.9861876018857 10.0739467432158  C 32.970194298806 10.3162205200184  33.0901440719038 10.6680252557946  32.6285191875578 10.6542432145992  C 32.4038859761202 10.6426372851715  32.177798828039 10.6498909910638  31.9524386482795 10.6484402498854  C 31.4820901440719 10.5918613439255  30.7725690619906 10.9298840385063  30.8699828171124 9.95571133717144  Z M 22.349914085562 1.65239420226423  C 22.3411904657003 1.32597743711107  22.349914085562 0.999560671957906  22.349914085562 0.672418536215519  C 22.3448253073093 0.321339171028558  22.2663127285544 0.0123313000169024  22.8507952592854 0.00072537058923222  C 23.4694453011411 -0.0116059294276661  23.4047451205005 0.32061380043933  23.3982024056043 0.698531877427771  C 23.3967484689607 0.849408959987451  23.3989293739261 1.00028604254713  23.3989293739261 1.20121369576363  C 23.3494955280434 1.46742470201077  23.551592721505 1.86782926726532  23.3044234920915 2.08036284990949  C 23.1473983345817 2.21528177950613  22.7737366171741 2.14347009117243  22.5047583381064 2.09777174405099  C 22.267766665198 2.05642562046492  22.3550028638146 1.81560258484081  22.349914085562 1.65239420226423  Z M 22.3324668458387 25.9943804356194  C 22.3048420496101 25.4866210231589  22.5839978851831 25.5207134408527  22.9365775212583 25.493149358462  C 23.4781689210028 25.4503524936974  23.3727585143411 25.797079635349  23.4025642155351 26.1155173240207  C 23.4381856633035 26.5543665305044  23.238996343129 26.6537423012288  22.8769661188703 26.5369576363628  C 22.3819006917214 26.6472139659257  22.353548927171 26.3795522185001  22.3324668458387 25.9943804356194  Z M 16.4694673304842 23.3656374202526  C 16.8525796360753 23.3895746496971  17.0510419879279 23.4265685497478  17.0444992730317 23.8893549856761  C 17.0379565581354 24.3521414216044  16.9165528483941 24.5508929630532  16.4934572851038 24.4087203275642  C 15.9918491430586 24.5450899983393  15.9649513151518 24.2904849215199  15.960589505221 23.9372294445652  C 15.9547737586465 23.5578606263983  15.9882143014495 23.3351718555049  16.4694673304842 23.3656374202526  Z M 23.4003833105697 23.8770236856592  C 23.3604000528704 24.1911091507955  23.5043397805877 24.6248807631545  22.952570824338 24.3971143981366  C 22.5214786095079 24.4928633159148  22.3150196061153 24.4130725510996  22.3353747191259 23.9394055563329  C 22.3520949905274 23.5585859969875  22.3855355333304 23.3518553790572  22.8500682909636 23.3641866790741  C 23.2397233114509 23.3743418673233  23.4570868396704 23.4222163262125  23.4003833105697 23.8770236856592  Z M 16.5050887782526 26.531154671649  C 16.0819932149623 26.6493900776934  15.9504119487157 26.4818294715814  15.9569546636119 26.0466071180439  C 15.9627704101864 25.6491040351462  16.0354672423668 25.4663106466605  16.4869145702075 25.4880717643373  C 16.8809314006256 25.5040299173004  17.0597656077896 25.5729401232772  17.0437723047099 26.0204937768316  C 17.0292329382738 26.4165461185508  16.976164250782 26.6559184129964  16.5050887782526 26.531154671649  Z M 20.5593911089571 20.2351648351648  L 25.2425210380226 20.2351648351648  C 24.1004538044676 21.6943835826684  21.6665638630656 21.6987358062038  20.5593911089571 20.2351648351648  Z M 7.96030312376085 22.8012991018322  C 7.96030312376085 22.449494366056  7.96466493369168 22.0984150008691  7.96466493369168 21.7466102650929  C 7.9682997753007 20.6803154989259  7.98938185663303 20.6259127047337  8.96279243952945 20.9958517052406  C 10.5512182226726 21.5993600354793  11.643851610345 22.6982964781617  12.0684011102789 24.3934875451904  C 12.1694497070097 24.7989697045696  12.1512754989646 25.0136793989814  11.6503943252412 25.002798840143  C 10.6435431995418 24.9824884636446  9.63669207384236 24.9948197636615  8.62984094814292 25.002798840143  C 8.08679561175486 25.0086018048568  7.87524783010971 24.793892110445  7.94794466229017 24.2295537920246  C 8.00828303299996 23.7602390207933  7.96030312376085 23.2778675789558  7.96030312376085 22.8012991018322  Z M 22.8413446711019 19.1352761438676  C 22.1143763492973 19.1352761438676  21.3801383442746 19.1011837261738  20.6538969907917 19.1483328144737  C 20.1740978984007 19.1795237498106  20.2053575362383 18.9227425612234  20.2002687579856 18.6035795019626  C 20.1944530114112 18.2699090309171  20.2039035995947 18.0443187776668  20.6618936423316 18.0530232247376  C 22.1449090188131 18.0813126777175  23.63010530026 18.0900171247882  25.1123937084196 18.0530232247376  C 25.6081861038904 18.0392411835422  25.5558443847205 18.298198483897  25.5587522580077 18.6035795019626  C 25.5616601312949 18.9089605200281  25.5907388641671 19.1816998615783  25.103670088558 19.1476074438845  C 24.3527118121338 19.0982822438169  23.5959377891351 19.1345507732784  22.8413446711019 19.1352761438676  Z M 5.35266775344759 23.0805667786855  C 5.29305635105961 23.7036601148334  5.34030929197692 24.3361832686413  5.34030929197692 24.9665303106815  C 5.34030929197692 25.5468267820649  5.38756223289422 26.1271232534483  5.32867779882804 26.7001660189394  C 5.25016522007314 27.4668827317548  5.59547517293035 27.651126861419  6.29118385689739 27.6293657437421  C 7.52703000396528 27.5901957319237  8.76287615103318 27.6598313084897  9.99363351984844 27.6018016613514  C 10.6013790368771 27.5749629495499  10.5882936070846 27.8622097028847  10.5039652817553 28.2626142681392  C 10.0866854650394 30.2312700473074  8.11878221791427 31.8169301553625  6.02802132440411 31.8756851730901  C 3.84711635899018 31.9380670437638  1.84649953738379 30.5344749536052  1.27801030973256 28.5389804626356  C 0.514693571837689 25.8630883589689  1.92428514781689 23.2916496201512  4.57408468079482 22.5002703073021  C 5.13166938361898 22.3334350717793  5.41954883905362 22.3849363836146  5.35266775344759 23.0805667786855  Z M 24.4682997753007 14.6096890376663  C 24.4297704542451 13.6543759716514  24.4842930783804 12.6954360526903  24.4457637573248 11.7401229866754  C 24.4166850244526 11.0198299915707  24.4145041194872 10.4830557555411  25.4308058333701 10.6223269086731  C 26.0639952416619 10.7086460087914  26.2864475481341 10.2001612257417  25.8778913512799 9.69167644269199  C 25.0782261972948 8.68921428837717  24.2422126272195 7.71649232822075  23.4192844869366 6.73216443863666  C 23.164845574305 6.4282341617496  22.829713177953 6.23238410265771  22.5222055778297 6.57911124430929  C 21.6047715557122 7.61566581631789  20.7091465832489 8.67325613541412  19.845508216945 9.75478368395494  C 19.5387275851434 10.1399554668357  19.7829889412698 10.6934132264176  20.2344362691105 10.6172493145485  C 21.4143058553994 10.4192231436889  21.3401550865753 11.1177550211167  21.2878133674054 11.8772180280397  C 21.2645503811076 12.2036347931929  21.2834515574746 12.530051558346  21.2834515574746 12.8593698058561  C 21.2834515574746 13.4636035066841  21.2972639555889 14.0685625781013  21.2834515574746 14.6727962789292  C 21.2681852227167 15.1841825443359  21.4891835925453 15.4141250211215  22.003877164383 15.3981668681585  C 22.5585539939199 15.3822087151955  23.1146847601005 15.3742296387139  23.6686346213156 15.3981668681585  C 24.240031722254 15.4221040976031  24.4959245715293 15.2175495914404  24.4682997753007 14.6096890376663  Z M 21.4695554478566 9.53934861895385  C 21.4782175030416 9.49346094677136  21.4939100700012 9.44917794548891  21.516081420452 9.40805654230336  C 22.8740582455831 7.53805116327035  22.9045909150989 7.53877653385958  24.3316297308014 9.53499639541847  C 23.388024849099 9.4958263836001  23.3858439441336 10.0942571197142  23.4061990571441 10.7615980618051  C 23.4389126316253 11.7662363278876  23.4061990571441 12.7723253351486  23.4229193285456 13.7769636012311  C 23.4272811384765 14.1316698193642  23.4425474732344 14.4022330491467  22.9358505529365 14.3942539726652  C 22.4495087456492 14.3862748961837  22.2946644931048 14.2382992959809  22.3157465744372 13.7414204423589  C 22.3593646737454 12.6874569762088  22.3448253073093 11.631317398291  22.3375556240913 10.5759031909625  C 22.3317398775169 9.67861977208587  22.3208353526898 9.67861977208587  21.4695554478566 9.53934861895385  Z " fill-rule="nonzero" fill="#ffffff" stroke="none" />
  </g>
</svg>