<?xml version="1.0" encoding="utf-8"?>
<svg version="1.1" xmlns:xlink="http://www.w3.org/1999/xlink" width="30px" height="31px" xmlns="http://www.w3.org/2000/svg">
  <g transform="matrix(1 0 0 1 0 2 )">
    <path d="M 1 26.1210175790221  C 0.880657110645806 26.5297298425822  0.794008697052634 26.9588291786713  1.00660331776453 27.3358282182972  C 1.19665002415845 27.6270721115704  1.42535029795457 27.8788362770888  1.71911741021095 28.0645851601319  C 6.35980028990171 28.422815148858  11.1406023514254 28.2856069146937  15.8795297149299 28.2263873230615  C 15.4338881629779 27.671784555008  15.0617483115723 27.0614430571828  14.7724271219198 26.410643450666  C 10.8391045256886 26.7018873439392  6.72572072797555 26.4019061338678  2.73699468513447 26.5103135830306  C 2.60138508616527 26.5103135830306  2.5646641971332 26.4805419850516  2.5646641971332 26.3404213119546  C 2.56874429591448 22.8826012220413  2.56992537714067 19.424781132128  2.56820744081175 15.9669610422147  C 2.56820744081175 12.51863334586  2.56681161754445 9.0703056495052  2.56401997100985 5.62197795315045  C 2.56401997100985 5.47150194162596  2.60589466902879 5.44496638690551  2.74375905942985 5.44755522151238  C 3.22370752133997 5.45629253831058  3.7036559832501 5.45370370370371  4.18360444516023 5.44755522151238  C 4.28281526815908 5.44755522151238  4.30826220003217 5.47441438055869  4.3101948784023 5.572466491294  C 4.40038653567402 6.6814585160132  4.06635529070702 7.99949893523738  5.15123208246093 8.69783707044135  C 5.37671122564023 8.8699945717984  5.66113705910776 8.86708213286567  5.92977935255278 8.88390955781035  C 8.89708487679179 8.99005177669214  11.8695442100178 8.91141592550837  14.8387824126268 8.92791974612718  C 15.4562731518763 8.92597812017204  16.0737638911258 8.90559104764291  16.6909325173136 8.89264687460854  C 17.5715896279594 8.88844001837237  18.2873248510227 8.10564115411917  18.2641327105814 7.2442064386822  C 18.2863585118377 6.68663618522694  18.2985988081817 6.12874232744583  18.3085843130939 5.57084846966471  C 18.310516991464 5.47085473297424  18.3407956192624 5.4465844085348  18.4374295377677 5.44755522151238  C 18.9270413915285 5.45273289072613  19.4166532452891 5.45402730802957  19.905942985988 5.44755522151238  C 20.023514253503 5.44593719988309  20.0544371074247 5.47409077623283  20.054114994363 5.59479518977828  C 20.0498201535405 7.6695303909697  20.0488538143556 9.74426559216113  20.0512159768078 11.8190007933525  C 20.0125624094057 12.9033988893064  20.0264132710582 14.004624410205  20.0473506200677 15.1084387657105  C 20.606629479134 14.9504105718887  21.1810941108896 14.8527767803074  21.76099210823 14.8171948724373  C 21.7696891608954 11.8005553467786  21.7361894024803 8.7687064178045  21.7745208568208 5.76533466950603  C 21.7149299404091 5.39092446448704  21.8296021903688 4.97379848845463  21.6221613786439 4.63627917658358  C 21.3512642937671 4.19585368908932  20.9289740698985 3.7851997995741  20.4058624577227 3.69523779698526  C 18.6120148172009 3.6078646290033  16.8155902721855 3.7162720781661  15.0210984055404 3.64054866591507  C 14.8677725881784 3.63440018372375  14.7956192623611 3.57582780074325  14.7311966500242 3.4463860703996  C 14.1697535835078 2.36813645663702  13.6846513126107 1.2332560858491  13.0771460782735 0.186396091694849  L 9.54195522628447 0.186396091694849  C 8.92671927846676 1.25040711511963  8.43453052021258 2.40276211950394  7.86213560959897 3.49719194955948  C 7.82734739893704 3.56773769259677  7.79030439684324 3.63569460102718  7.69818006120149 3.63440018372375  C 7.52198421645994 3.63181134911687  7.34900950233532 3.66676061630966  7.17249154453215 3.66676061630966  C 5.5103881462393 3.68035199799574  3.84538573039133 3.62663367990313  2.18553712353033 3.69750302726628  C 1.58060879368655 3.85930519019583  0.985665968755062 4.37707211157042  0.874536962473875 5.0136018205353  C 0.83974875181184 6.56399014572633  0.869705266548538 8.11632009687252  1 9.66735563071527  L 1 26.1210175790221  Z M 14.5450153003704 23.0503361309449  C 14.5450153003704 27.3377698442524  18.0054759220487 30.8136039083052  22.2725076501853 30.8136039083052  C 26.5395393783218 30.8136039083052  30 27.3380934485782  30 23.0503361309449  C 30 18.7625788133116  26.5414720566919 15.2873919579106  22.2725076501853 15.2873919579106  C 18.0048316959252 15.2873919579106  14.5450153003704 18.7629024176375  14.5450153003704 23.0503361309449  Z M 6.06152359478181 14.0764645705457  C 6.06764374295374 13.5807027433296  6.06635529070705 13.0849409161134  6.06152359478181 12.5878846715938  C 8.80560476727328 12.2264186396092  11.9851827991625 12.5895026932231  14.8716379449187 12.4620025888346  C 14.9576421323884 12.4620025888346  14.9776131422129 12.4901561651843  14.9769689160896 12.5888554845714  C 14.972459333226 13.089579244784  14.972459333226 13.5901951368881  14.9769689160896 14.0907031608835  C 14.9769689160896 14.1984634013946  14.955065227895 14.2237045388116  14.8642293444999 14.2233809344858  C 13.4119289203844 14.2203606274444  11.9595211252483 14.21992915501  10.5070059590916 14.2220865171823  C 9.06651634723786 14.2220865171823  7.62602673538413 14.220468495553  6.1855371235304 14.2249989561151  C 6.08342728297634 14.2249989561151  6.0599130294733 14.1945801494843  6.06152359478181 14.0764645705457  Z M 6.18006120148172 19.4803332080671  C 7.8524722177484 19.482922042674  9.52477586299457 19.482922042674  11.1969721372201 19.4803332080671  C 11.2965050732807 19.4803332080671  11.3116443871799 19.5143116622823  11.3110001610565 19.602332038916  C 11.307456917378 20.107801995908  11.3064905781929 20.6132719528999  11.3110001610565 21.1187419098919  C 11.3110001610565 21.2184120422565  11.2865195683685 21.2449475969769  11.1860202931229 21.244623992651  C 10.351425350298 21.2410643450666  9.5152198421646 21.2430059710217  8.67901433403121 21.2430059710217  C 7.85730391367373 21.2430059710217  7.03623771943951 21.2394463234373  6.21356095989696 21.2465656186062  C 6.08213883072956 21.2465656186062  6.0599130294733 21.2087039124807  6.06152359478181 21.0879994989352  C 6.06861008213881 20.5922376717191  6.06732162989212 20.0964758445029  6.06152359478181 19.5994195999833  C 6.06152359478181 19.5042799281807  6.08729263971652 19.4803332080671  6.18006120148172 19.4803332080671  Z M 13.0491222419069 3.67970478934402  C 13.0774681913352 5.99023967597812  9.56321468835556 5.99606455384358  9.56740215815755 3.6949141926594  C 9.55580608793684 1.40508998288028  13.0523433725237 1.40055952231826  13.0491222419069 3.67970478934402  Z M 6.19004670639392 15.9756983590129  C 7.9653191603586 15.9804445557922  9.74048424330278 15.981631104987  11.5155419552263 15.9792580065973  C 12.6248993396682 15.9792580065973  13.7345788371718 15.9792580065973  14.8439362216138 15.9766691719905  C 14.942824931551 15.9766691719905  14.980512159768 15.9922021796317  14.9782573683363 16.1264979748632  C 14.9695603156708 16.6119044636519  14.9711708809792 17.0973109524406  14.9782573683363 17.5849826715103  C 14.9798679336447 17.7018038331454  14.9579642454502 17.7338406614055  14.8552101787728 17.7335170570796  C 13.4105330971171 17.7286629921917  11.9661781285231 17.730281013821  10.5218231599291 17.730281013821  C 9.08165566113702 17.730281013821  7.64116604928329 17.72801578354  6.20099855049118 17.7341642657313  C 6.07923981317445 17.7341642657313  6.05926880334995 17.693713724999  6.06120148172009 17.5616831600484  C 6.06828796907718 17.0853375923838  6.06828796907718 16.6086684203933  6.06120148172009 16.131675644077  C 6.05959091641167 16.0093532089022  6.08149460460621 15.975374754687  6.19004670639392 15.9756983590129  Z M 25.2219358995007 20.2845787866078  C 25.6560474571859 20.2845787866078  26.0079644071106 20.638124981671  26.0079644071106 21.0742463150862  C 26.0079644071106 21.2836791651295  25.9251509271117 21.4845341908873  25.7777419874376 21.6326255793561  L 21.8450636173297 25.5841580024218  C 21.6979297569953 25.7326455840171  21.4979711942138 25.8161218082364  21.2894185859237 25.8161218082364  C 21.0808659776335 25.8161218082364  20.880907414852 25.7326455840171  20.7337735545176 25.5841580024218  L 18.7688838782413 23.6101716146812  C 18.622372910909 23.4621091563559  18.5401365821185 23.2618167390791  18.5401365821185 23.0530413346717  C 18.5401365821185 22.6166028598743  18.8923094411661 22.2627995709237  19.3267366787524 22.2627995709237  C 19.5349445317544 22.2627995709237  19.7346593425886 22.3457297606849  19.8821066194234 22.4934130861414  L 21.2910291512321 23.909182011775  L 24.6661298115639 20.5158670508163  C 24.8135387512379 20.3677756623475  25.0134681777986 20.2845787866078  25.2219358995007 20.2845787866078  Z " fill-rule="nonzero" fill="#ffffff" stroke="none" transform="matrix(1 0 0 1 0 -2 )" />
  </g>
</svg>