<?xml version="1.0" encoding="utf-8"?>
<!-- Generator: Adobe Illustrator 25.2.0, SVG Export Plug-In . SVG Version: 6.00 Build 0)  -->
<svg version="1.1" id="Layer_1" xmlns="http://www.w3.org/2000/svg" xmlns:xlink="http://www.w3.org/1999/xlink" x="0px" y="0px"
	 viewBox="0 0 322.3 370.1" style="enable-background:new 0 0 322.3 370.1;" xml:space="preserve">
<style type="text/css">
	.st0{fill:#646668;}
</style>
<g>
	<path class="st0" d="M299.7,278c3.2-0.1,4.3-1.2,4.4-4.4c0-0.5,0-1,0-1.5c-0.1-23.7-0.2-47.5-0.2-71.2c0-12.2,0-24.4,0-36.6
		c0-4.1-0.4-4.4-4.5-4.5c-2.3-0.1-3.2-1-3.2-3.3c0-3.3,0-6.5,0-9.8c0-3.7,0.8-4.5,4.5-4.4c1,0,2.1,0,2.6-1c0.9-1.5,1-3.3,0.2-4.9
		c-0.6-1.5-2-1.3-3.3-1.3h-29.4c-42.7,0-85.3,0-128,0c-0.7,0-1.4-0.3-2.2,0.5c1.6,1.3,3.2,2.5,4.6,4c1.8,1.9,4.3,2.9,6.9,2.7
		c4-0.1,5,0.9,4.9,5c-0.1,2.4,0.2,4.7,1.8,6.6c2.5,3.1,4.7,6.4,6.7,9.8c1.7,3,4.3,4,7.6,3.9c4.2-0.1,8.4,0,12.5,0h104.5
		c4,0,4.7,0.7,4.7,4.7v93.1c0,0.4,0,0.9,0,1.3c-0.1,2.2-1.1,3.2-3.3,3.3c-0.7,0-1.4,0-2.1,0c-39.2,0-78.5,0-117.7,0
		c-2.6,0-4.4,0.9-5.7,3.2c-1.1,2-2.6,3.9-3.8,5.9c-2.5,3.7-5.8,7-5.1,12.1c0.4,2.7-0.7,3.9-3.1,4.1c0.9-1.8,1.4-3.8,1.4-5.9v-78
		c0-3.6-1.5-6.8-3.8-9.2c-2.4-2.4-5.6-3.8-9.2-3.8H134v-15.7c0-0.1,0-0.2,0-0.3c-0.3-4.1-1.2-7.7-2.8-10.7c-1.6-3.2-3.8-5.7-6.6-7.7
		c-8.1-5.9-18.5-5.7-27.9-5.6c-0.8,0-1.6,0-4,0H38.6c-2.9,0-5.6-1.2-7.6-3.2c-2-2-3.2-4.6-3.2-7.6v-31.1c0-2.9,1.2-5.6,3.2-7.6
		c2-2,4.6-3.2,7.6-3.2h2.8v6.7c0,5.6,2.3,10.7,6,14.4c3.7,3.7,8.8,6,14.4,6h134c5.6,0,10.7-2.3,14.4-6c3.7-3.7,6-8.8,6-14.4v-5.9
		h6.9v-9.6H216v-9.4c0-5.6-2.3-10.7-6-14.4c-3.7-3.7-8.8-6-14.4-6h-134c-5.6,0-10.7,2.3-14.4,6c-3.7,3.7-6,8.8-6,14.4v8.5h-2.8
		c-5.6,0-10.7,2.3-14.4,6c-3.7,3.7-6,8.8-6,14.4v31.1c0,5.6,2.3,10.7,6,14.4c3.7,3.7,8.8,6,14.4,6h54.2c0.3,0,2.2,0,4.1-0.1
		c7.8-0.1,16.5-0.3,22.1,3.8c1.5,1.1,2.8,2.5,3.7,4.3c0.9,1.9,1.5,4.1,1.8,6.8v15.6h-7.7c-3.6,0-6.8,1.5-9.2,3.8
		c-2.4,2.4-3.8,5.6-3.8,9.2v78c0,3.6,1.5,6.8,3.8,9.2c2.4,2.4,5.6,3.8,9.2,3.8h25.5c0,0,0.1,0,0.1,0c0.1,0,0.2,0,0.2,0
		c52.6,0,105.2,0,157.8,0c2.8,0,3.6-0.8,3.6-3.7c0-2.7-0.7-3.4-3.7-3.4c-3.4,0-4.5-1-4.6-4.3c-0.1-3,0-5.9,0.1-8.9
		C295.8,278.8,296.4,278.2,299.7,278z M187.5,156.9c0,1.6-1,2.5-2.6,2.5c-3.5,0-7.1,0.1-10.6,0c-1.5,0-2.3-0.9-2.3-2.4
		c0-1.9,0-3.8,0-5.7c0-1.8,0-3.5,0-5.3c0-1.9,0.9-2.9,2.9-2.9c3.3,0,6.7,0,10,0c1.7,0,2.7,0.9,2.7,2.6
		C187.6,149.4,187.6,153.2,187.5,156.9z M218.7,151.3c0,1.8,0,3.7,0,5.5v0c0,1.7-0.9,2.6-2.6,2.7c-3.4,0-6.8,0-10.2,0
		c-1.7,0-2.6-0.9-2.7-2.6c0-3.6-0.1-7.2,0-10.8c0-2.2,0.9-2.9,3-3c3.2,0,6.4,0,9.6,0c2.2,0,2.9,0.8,3,3
		C218.7,147.7,218.7,149.5,218.7,151.3z M249.7,156.6L249.7,156.6c0,1.8-1,2.8-3,2.8c-3.2,0-6.4,0-9.6,0c-1.9,0-2.9-0.9-2.9-2.8
		c0-1.9,0-3.7,0-5.5h0c0-1.7,0-3.4,0-5.1c0-1.9,1-2.9,2.9-2.9c3.3,0,6.5,0,9.8,0c1.8,0,2.8,0.9,2.8,2.7
		C249.8,149.4,249.8,153,249.7,156.6z M278.1,159.5c-3.3,0-6.7,0-10,0c-1.8,0-2.7-1-2.8-2.8c0-1.8,0-3.7,0-5.5s0-3.7,0-5.5
		c0.1-1.7,1-2.6,2.7-2.6c3.4,0,6.8,0,10.2,0c1.7,0,2.6,1,2.7,2.7c0.1,3.7,0.1,7.4,0,11C280.9,158.5,279.9,159.5,278.1,159.5z
		 M51,87.9c0-2.9,1.2-5.6,3.2-7.6c2-2,4.6-3.2,7.6-3.2h134c2.9,0,5.6,1.2,7.6,3.2c2,2,3.2,4.6,3.2,7.6v24.8c0,2.9-1.2,5.6-3.2,7.6
		c-2,2-4.6,3.2-7.6,3.2h-134c-2.9,0-5.6-1.2-7.6-3.2c-2-2-3.2-4.6-3.2-7.6V87.9z M114.2,292c-0.6-0.6-1-1.5-1-2.4v-78
		c0-1,0.4-1.8,1-2.4c0.6-0.6,1.5-1,2.4-1h25.5c0.9,0,1.8,0.4,2.4,1c0.6,0.6,1,1.5,1,2.4v78c0,1-0.4,1.8-1,2.4c-0.6,0.6-1.5,1-2.4,1
		h-25.5C115.7,293,114.9,292.6,114.2,292z M187.6,292.2c0,1.8-1,2.8-2.8,2.8c-3.3,0-6.5,0-9.8,0c-2.1,0-2.9-0.8-2.9-3
		c0-1.8,0-3.5,0-5.3h0.1c0-1.9-0.1-3.8,0-5.7c0.1-1.5,0.8-2.4,2.6-2.4c3.4,0.1,6.8,0,10.2,0c1.7,0,2.7,1,2.7,2.6
		C187.6,284.8,187.6,288.5,187.6,292.2z M216,294.9c-3.4,0-6.8,0-10.2,0c-1.7,0-2.7-1-2.7-2.6c0-3.7,0-7.5,0-11.2
		c0-1.7,1.1-2.5,2.8-2.6c3.3,0,6.7,0,10,0c1.8,0,2.8,0.9,2.8,2.8c0,1.8,0,3.7,0,5.5c0,1.8,0,3.7,0,5.5
		C218.7,294,217.7,294.9,216,294.9z M249.7,291.8c-0.1,2.1-0.9,3-3,3c-3.2,0-6.4,0-9.6,0c-2,0-2.9-1-3-3.1c0-3.4,0-6.8,0-10.2
		c0-2.3,0.8-3.1,3-3.1c3.1,0,6.2,0,9.4,0c2.1,0,3,0.9,3,2.9c0.1,1.8,0,3.5,0,5.3C249.7,288.5,249.8,290.1,249.7,291.8z M280.9,292.3
		c0,1.7-1.1,2.6-2.8,2.6c-3.3,0-6.7,0-10,0c-1.8,0-2.8-1-2.8-2.8c0-1.9,0-3.8,0-5.7c0-1.8,0-3.5,0-5.3s1-2.6,2.6-2.7
		c3.4,0,6.8,0,10.2,0c1.7,0,2.7,1,2.7,2.6C281,284.8,281,288.6,280.9,292.3L280.9,292.3z"/>
	<g>
		<path class="st0" d="M241,264.2h-17v-63.9c-6.2,5.8-13.5,10.1-21.9,12.8v-15.4c4.4-1.4,9.2-4.2,14.4-8.2c5.2-4,8.7-8.8,10.7-14.1
			H241V264.2z"/>
	</g>
</g>
</svg>
