<svg id="Layer_1" data-name="Layer 1" xmlns="http://www.w3.org/2000/svg" viewBox="0 0 20.85 20.32"><defs><style>.cls-1{fill:none;}.cls-2{fill:#00b0f0;}</style></defs><rect class="cls-1" x="-606.88" y="-330.57" width="1154" height="769"/><rect class="cls-1" x="-630.2" y="-330.33" width="1154" height="769"/><rect class="cls-1" x="-630.2" y="-351.22" width="1154" height="769"/><rect class="cls-1" x="-630.2" y="-371.95" width="1154" height="769"/><rect class="cls-1" x="-564.76" y="-371.64" width="1154" height="769"/><rect class="cls-1" x="-630.2" y="-371.45" width="1154" height="769"/><rect class="cls-1" x="-630.2" y="-392.92" width="1154" height="769"/><rect class="cls-1" x="-606.88" y="-351.38" width="1154" height="769"/><rect class="cls-1" x="-606.88" y="-372.19" width="1154" height="769"/><rect class="cls-1" x="-563.38" y="-371.64" width="1154" height="769"/><rect class="cls-1" x="-564.76" y="-392.92" width="1154" height="769"/><rect class="cls-1" x="-563.38" y="-392.92" width="1154" height="769"/><rect class="cls-1" x="-586.7" y="-371.55" width="1154" height="769"/><rect class="cls-1" x="-585.32" y="-371.55" width="1154" height="769"/><rect class="cls-1" x="-586.7" y="-392.92" width="1154" height="769"/><rect class="cls-1" x="-585.32" y="-392.92" width="1154" height="769"/><rect class="cls-1" x="-608.26" y="-371.36" width="1154" height="769"/><rect class="cls-1" x="-606.88" y="-371.36" width="1154" height="769"/><rect class="cls-1" x="-608.26" y="-392.92" width="1154" height="769"/><rect class="cls-1" x="-606.88" y="-392.92" width="1154" height="769"/><path class="cls-2" d="M15.33,16.79H5.4a2,2,0,0,1-2-2V12.13a.51.51,0,0,1,.5-.52h1a.5.5,0,0,1,.5.52h0v1.55a1,1,0,0,0,1,1h8a1,1,0,0,0,1-1V12.13a.53.53,0,0,1,.5-.52h1a.5.5,0,0,1,.5.52h0v2.59a2,2,0,0,1-1.92,2.07Z"/><path class="cls-2" d="M14.4,9.54a.5.5,0,0,1-.69,0h0L11.36,7.13v5.21a.5.5,0,0,1-.49.52h-1a.52.52,0,0,1-.5-.52h0V7.13L7.05,9.54a.5.5,0,0,1-.69,0h0l-.73-.76a.54.54,0,0,1,0-.75l4.1-4.28a1.33,1.33,0,0,1,.66-.22,1.33,1.33,0,0,1,.67.22L15.13,8a.54.54,0,0,1,0,.76l-.73.76Z"/></svg>