<svg id="Layer_1" data-name="Layer 1" xmlns="http://www.w3.org/2000/svg" viewBox="0 0 20.85 20.32"><defs><style>.cls-1{fill:none;}.cls-2{fill:red;}</style></defs><rect class="cls-1" x="-541.44" y="-309.29" width="1154" height="769"/><rect class="cls-1" x="-564.76" y="-309.05" width="1154" height="769"/><rect class="cls-1" x="-564.76" y="-329.94" width="1154" height="769"/><rect class="cls-1" x="-564.76" y="-350.67" width="1154" height="769"/><rect class="cls-1" x="-499.32" y="-371.64" width="1154" height="769"/><rect class="cls-1" x="-564.76" y="-371.64" width="1154" height="769"/><path class="cls-2" d="M14.78,4.52H6.07A1.08,1.08,0,0,0,5,5.59V7.2A1.09,1.09,0,0,0,6.07,8.28h8.71A1.08,1.08,0,0,0,15.86,7.2V5.59A1.09,1.09,0,0,0,14.78,4.52ZM9.87,6.61a.29.29,0,0,1-.27.29H6.44a.29.29,0,0,1-.29-.29V6.18a.29.29,0,0,1,.28-.28H9.59a.27.27,0,0,1,.28.26v.45Z"/><path class="cls-2" d="M14.78,8.28H6.07A1.09,1.09,0,0,0,5,9.36V11a1.08,1.08,0,0,0,1.07,1h8.71a1.07,1.07,0,0,0,1.08-1V9.36A1.08,1.08,0,0,0,14.78,8.28Zm-4.91,2.1a.29.29,0,0,1-.28.28H6.44a.29.29,0,0,1-.29-.28V9.94a.29.29,0,0,1,.29-.28H9.59a.29.29,0,0,1,.28.28Z"/><path class="cls-2" d="M14.78,12H6.07A1.08,1.08,0,0,0,5,13.09v1.63A1.09,1.09,0,0,0,6.07,15.8h8.71a1.08,1.08,0,0,0,1.08-1.08v-1.6a1.08,1.08,0,0,0-1-1.12ZM9.87,14.1a.27.27,0,0,1-.26.28H6.44a.29.29,0,0,1-.29-.27h0v-.43a.29.29,0,0,1,.29-.29H9.59a.29.29,0,0,1,.28.28h0Z"/><rect class="cls-1" x="-541.44" y="-330.1" width="1154" height="769"/><rect class="cls-1" x="-541.44" y="-350.91" width="1154" height="769"/><rect class="cls-1" x="-497.94" y="-371.64" width="1154" height="769"/><rect class="cls-1" x="-521.26" y="-371.64" width="1154" height="769"/><rect class="cls-1" x="-519.88" y="-371.64" width="1154" height="769"/><rect class="cls-1" x="-542.82" y="-371.64" width="1154" height="769"/><rect class="cls-1" x="-541.44" y="-371.64" width="1154" height="769"/></svg>