<svg id="Layer_1" data-name="Layer 1" xmlns="http://www.w3.org/2000/svg" viewBox="0 0 20.85 20.32"><defs><style>.cls-1{fill:none;}.cls-2{fill:#53b55d;}</style></defs><rect class="cls-1" x="-541.44" y="-309.29" width="1154" height="769"/><rect class="cls-1" x="-564.76" y="-309.05" width="1154" height="769"/><rect class="cls-1" x="-564.76" y="-329.94" width="1154" height="769"/><rect class="cls-1" x="-564.76" y="-350.67" width="1154" height="769"/><rect class="cls-1" x="-564.76" y="-371.64" width="1154" height="769"/><path class="cls-2" d="M14.78,4.52H6.07A1.08,1.08,0,0,0,5,5.59V7.2A1.08,1.08,0,0,0,6.07,8.28h8.71A1.08,1.08,0,0,0,15.86,7.2V5.59A1.08,1.08,0,0,0,14.78,4.52ZM9.87,6.61a.28.28,0,0,1-.28.29H6.44a.29.29,0,0,1-.29-.29V6.18a.28.28,0,0,1,.29-.28H9.59a.27.27,0,0,1,.28.28Z"/><path class="cls-2" d="M14.78,8.28H6.07A1.08,1.08,0,0,0,5,9.36V11A1.08,1.08,0,0,0,6.07,12h8.71A1.08,1.08,0,0,0,15.86,11V9.36A1.08,1.08,0,0,0,14.78,8.28Zm-4.91,2.1a.28.28,0,0,1-.28.28H6.44a.29.29,0,0,1-.29-.28V9.94a.29.29,0,0,1,.29-.28H9.59a.28.28,0,0,1,.28.28Z"/><path class="cls-2" d="M14.78,12H6.07A1.08,1.08,0,0,0,5,13.12v1.6A1.08,1.08,0,0,0,6.07,15.8h8.71a1.08,1.08,0,0,0,1.08-1.08v-1.6A1.08,1.08,0,0,0,14.78,12Zm-4.91,2.1a.27.27,0,0,1-.28.28H6.44a.28.28,0,0,1-.29-.28v-.43a.29.29,0,0,1,.29-.29H9.59a.28.28,0,0,1,.28.29Z"/><rect class="cls-1" x="-541.44" y="-330.1" width="1154" height="769"/><rect class="cls-1" x="-541.44" y="-350.91" width="1154" height="769"/><rect class="cls-1" x="-541.44" y="-371.64" width="1154" height="769"/></svg>