<?xml version="1.0" encoding="utf-8"?>
<!-- Generator: Adobe Illustrator 25.2.0, SVG Export Plug-In . SVG Version: 6.00 Build 0)  -->
<svg version="1.1" id="Layer_1" xmlns="http://www.w3.org/2000/svg" xmlns:xlink="http://www.w3.org/1999/xlink" x="0px" y="0px"
	 viewBox="0 0 20.9 20.3" style="enable-background:new 0 0 20.9 20.3;" xml:space="preserve">
<style type="text/css">
	.st0{fill:none;}
	.st1{fill:#FDB718;}
</style>
<rect x="-541.4" y="-351" class="st0" width="1154" height="769"/>
<rect x="-564.8" y="-350.8" class="st0" width="1154" height="769"/>
<rect x="-564.8" y="-371.6" class="st0" width="1154" height="769"/>
<path class="st1" d="M14.8,4.5H6.1C5.5,4.5,5,5,5,5.6v1.6c0,0.6,0.5,1.1,1.1,1.1h8.7c0.6,0,1.1-0.5,1.1-1.1V5.6
	C15.9,5,15.4,4.5,14.8,4.5z M9.9,6.6c0,0.2-0.1,0.3-0.3,0.3c0,0,0,0,0,0H6.4c-0.2,0-0.3-0.1-0.3-0.3V6.2c0-0.2,0.1-0.3,0.3-0.3
	c0,0,0,0,0,0h3.2c0.1,0,0.3,0.1,0.3,0.3c0,0,0,0,0,0V6.6z"/>
<path class="st1" d="M14.8,8.3H6.1C5.5,8.3,5,8.8,5,9.4V11c0,0.6,0.5,1,1.1,1h8.7c0.6,0,1-0.4,1.1-1V9.4C15.9,8.8,15.4,8.3,14.8,8.3
	z M9.9,10.4c0,0.2-0.1,0.3-0.3,0.3H6.4c-0.2,0-0.3-0.1-0.3-0.3V9.9c0-0.2,0.1-0.3,0.3-0.3h3.2c0.2,0,0.3,0.1,0.3,0.3V10.4z"/>
<path class="st1" d="M14.8,12H6.1C5.5,12,5,12.5,5,13.1c0,0,0,0,0,0v1.6c0,0.6,0.5,1.1,1.1,1.1h8.7c0.6,0,1.1-0.5,1.1-1.1v-1.6
	C15.9,12.5,15.4,12,14.8,12C14.8,12,14.8,12,14.8,12z M9.9,14.1c0,0.1-0.1,0.3-0.3,0.3c0,0,0,0,0,0H6.4c-0.2,0-0.3-0.1-0.3-0.3
	c0,0,0,0,0,0v-0.4c0-0.2,0.1-0.3,0.3-0.3h3.2c0.2,0,0.3,0.1,0.3,0.3c0,0,0,0,0,0V14.1z"/>
<rect x="-564.8" y="-392.4" class="st0" width="1154" height="769"/>
<rect x="-564.8" y="-413.4" class="st0" width="1154" height="769"/>
<rect x="-541.4" y="-371.8" class="st0" width="1154" height="769"/>
<rect x="-541.4" y="-392.6" class="st0" width="1154" height="769"/>
<rect x="-541.4" y="-413.4" class="st0" width="1154" height="769"/>
</svg>
