<svg id="Layer_1" data-name="Layer 1" xmlns="http://www.w3.org/2000/svg" viewBox="0 0 14.04 13.26"><defs><style>.cls-1{fill:#fdb718;}</style></defs><path class="cls-1" d="M15.39,16.79H5.46a2,2,0,0,1-2-2V12.13a.51.51,0,0,1,.5-.52H5a.51.51,0,0,1,.5.52h0v1.55a1,1,0,0,0,1,1h8a1,1,0,0,0,1-1V12.13a.52.52,0,0,1,.5-.52h1a.51.51,0,0,1,.5.52h0v2.59a2,2,0,0,1-1.93,2.07Z" transform="translate(-3.46 -3.53)"/><path class="cls-1" d="M14.46,9.54a.49.49,0,0,1-.69,0h0L11.42,7.13v5.21a.51.51,0,0,1-.5.52h-1a.51.51,0,0,1-.5-.52h0V7.13L7.11,9.54a.49.49,0,0,1-.69,0h0l-.73-.76a.54.54,0,0,1,0-.75l4.1-4.28a1.3,1.3,0,0,1,.66-.22,1.33,1.33,0,0,1,.67.22L15.19,8a.54.54,0,0,1,0,.76l-.73.76Z" transform="translate(-3.46 -3.53)"/></svg>