<svg id="Layer_1" data-name="Layer 1" xmlns="http://www.w3.org/2000/svg" viewBox="0 0 980 934.26"><path d="M850,974.5H150c-77.3,0-140-65.3-140-145.9V646.3c0-20.1,15.7-36.5,35-36.5h70c19.3,0,35,16.3,35,36.5V755.7c0,40.3,31.3,72.9,70,72.9H780c38.7,0,70-32.7,70-72.9V646.3c0-20.1,15.7-36.5,35-36.5h70c19.3,0,35,16.3,35,36.5V828.6c0,80.6-62.7,145.9-140,145.9Z" transform="translate(-10 -40.24)"/><path d="M784.5,463.94a35.19,35.19,0,0,1-51.3,0L570,293.84V661c0,20.1-15.7,36.5-35,36.5H465c-19.3,0-35-16.3-35-36.5V293.84L266.8,463.94a35.19,35.19,0,0,1-51.3,0l-51.3-53.4a38.79,38.79,0,0,1,0-53.4l289-301.3c1.2-1.3,23.7-15.6,46.4-15.6,22.9,0,45.9,14.3,47.2,15.6L835.9,357a38.79,38.79,0,0,1,0,53.4l-51.4,53.5Z" transform="translate(-10 -40.24)"/></svg>