<svg id="Layer_1" data-name="Layer 1" xmlns="http://www.w3.org/2000/svg" viewBox="0 0 20.85 20.32"><defs><style>.cls-1{fill:none;}.cls-2{fill:#ff0;}</style></defs><rect class="cls-1" x="-563.38" y="-309.29" width="1154" height="769"/><rect class="cls-1" x="-586.7" y="-309.05" width="1154" height="769"/><rect class="cls-1" x="-586.7" y="-329.94" width="1154" height="769"/><rect class="cls-1" x="-586.7" y="-350.67" width="1154" height="769"/><rect class="cls-1" x="-521.26" y="-371.64" width="1154" height="769"/><rect class="cls-1" x="-586.7" y="-371.64" width="1154" height="769"/><path class="cls-2" d="M14.77,4.52H6.06A1.09,1.09,0,0,0,5,5.59V7.2A1.09,1.09,0,0,0,6.06,8.28h8.71A1.08,1.08,0,0,0,15.85,7.2V5.59A1.07,1.07,0,0,0,14.77,4.52ZM9.86,6.61a.28.28,0,0,1-.26.29H6.43a.29.29,0,0,1-.29-.29V6.18a.29.29,0,0,1,.28-.28H9.58a.26.26,0,0,1,.28.26s0,0,0,0Z"/><path class="cls-2" d="M14.77,8.28H6.06A1.09,1.09,0,0,0,5,9.36V11a1.09,1.09,0,0,0,1.07,1h8.71a1.07,1.07,0,0,0,1.08-1V9.36A1.08,1.08,0,0,0,14.77,8.28Zm-4.91,2.1a.28.28,0,0,1-.28.28H6.43a.29.29,0,0,1-.29-.28V9.94a.29.29,0,0,1,.29-.28H9.58a.28.28,0,0,1,.28.28Z"/><path class="cls-2" d="M14.77,12H6.06A1.09,1.09,0,0,0,5,13.09v1.63A1.09,1.09,0,0,0,6.06,15.8h8.71a1.08,1.08,0,0,0,1.08-1.08v-1.6a1.07,1.07,0,0,0-1-1.12ZM9.86,14.1a.27.27,0,0,1-.25.28H6.43a.27.27,0,0,1-.28-.27h0v-.43a.29.29,0,0,1,.29-.29H9.58a.29.29,0,0,1,.29.28h0Z"/><rect class="cls-1" x="-563.38" y="-330.1" width="1154" height="769"/><rect class="cls-1" x="-563.38" y="-350.91" width="1154" height="769"/><rect class="cls-1" x="-519.88" y="-371.64" width="1154" height="769"/><rect class="cls-1" x="-543.2" y="-371.64" width="1154" height="769"/><rect class="cls-1" x="-541.82" y="-371.64" width="1154" height="769"/><rect class="cls-1" x="-564.76" y="-371.64" width="1154" height="769"/><rect class="cls-1" x="-563.38" y="-371.64" width="1154" height="769"/></svg>