<svg id="Layer_1" data-name="Layer 1" xmlns="http://www.w3.org/2000/svg" viewBox="0 0 36.95 36.98"><defs><style>.cls-1{fill:#fff;}</style></defs><path class="cls-1" d="M34.64,22.33V20a.58.58,0,0,0-.58-.58H24.25V17.67a8.1,8.1,0,1,0-1.15,0v1.75H13.28a.57.57,0,0,0-.57.58v2.33a8.09,8.09,0,1,0,1.15,0V20.58H33.49v1.75a8.08,8.08,0,1,0,1.15,0ZM17.32,36a6.87,6.87,0,0,1-8.08,0V34.43a4,4,0,0,1,2-3.52,3.46,3.46,0,0,0,4,0,4,4,0,0,1,2,3.52ZM11,28.08a2.31,2.31,0,1,1,2.3,2.31h0A2.3,2.3,0,0,1,11,28.08Zm9.23,2.31A6.94,6.94,0,0,1,18.48,35v-.54A5.23,5.23,0,0,0,16.1,30.1a3.34,3.34,0,0,0,.64-2,3.47,3.47,0,1,0-6.3,2,5.26,5.26,0,0,0-2.36,4.36V35a6.93,6.93,0,1,1,12.13-4.61Zm-1.73-16.2a6.93,6.93,0,1,1,10.39,0v-.54a5.24,5.24,0,0,0-2.37-4.36,3.47,3.47,0,1,0-6.3-2,3.39,3.39,0,0,0,.64,2,5.21,5.21,0,0,0-2.36,4.36ZM26,7.3A2.32,2.32,0,0,1,23.7,9.62,2.31,2.31,0,1,1,26,7.28Zm-6.35,7.93V13.65a4,4,0,0,1,2-3.52,3.46,3.46,0,0,0,4,0,4,4,0,0,1,2.05,3.52v1.58a6.87,6.87,0,0,1-8.08,0ZM38.1,36A6.89,6.89,0,0,1,30,36V34.43a4,4,0,0,1,2.05-3.52,3.46,3.46,0,0,0,4,0,4,4,0,0,1,2,3.52Zm-6.35-7.93a2.31,2.31,0,1,1,2.31,2.31h0a2.32,2.32,0,0,1-2.31-2.3ZM39.26,35v-.54a5.24,5.24,0,0,0-2.37-4.36,3.47,3.47,0,1,0-6.3-2,3.39,3.39,0,0,0,.64,2,5.21,5.21,0,0,0-2.36,4.36V35a6.93,6.93,0,1,1,10.39,0Z" transform="translate(-5.19 -1.51)"/></svg>