<svg id="Layer_1" data-name="Layer 1" xmlns="http://www.w3.org/2000/svg" viewBox="0 0 47.33 40"><defs><style>.cls-1{fill:#447fc1;}.cls-2{fill:#ee1f55;}.cls-3{fill:#3bbb96;}</style></defs><path class="cls-1" d="M42.83,31.89l-8.59-8.6A10.22,10.22,0,0,0,25.87,7.2l-.6,0v3l.6,0a7.27,7.27,0,1,1-5.14,12.41,7.13,7.13,0,0,1-1.15-1.5,2.63,2.63,0,0,1-3.5-.82l0,0A10.22,10.22,0,0,0,31.73,25.8l8.6,8.59a1.77,1.77,0,0,0,2.5-2.5Z"/><path class="cls-2" d="M13.89,13.79A1.16,1.16,0,0,0,12.73,15V18.8a1.17,1.17,0,0,0,2.33,0V15A1.17,1.17,0,0,0,13.89,13.79Z"/><path class="cls-2" d="M5.14,13.79A1.17,1.17,0,0,0,4,15V18.8a1.17,1.17,0,0,0,2.34,0V15A1.17,1.17,0,0,0,5.14,13.79Z"/><path class="cls-2" d="M9.52,9a1.16,1.16,0,0,0-1.17,1.16V18.8a1.17,1.17,0,0,0,2.33,0V10.14A1.16,1.16,0,0,0,9.52,9Z"/><path class="cls-3" d="M22.64,5.91a1.17,1.17,0,0,0-1.16,1.17V18.8a1.17,1.17,0,0,0,2.33,0V7.08A1.17,1.17,0,0,0,22.64,5.91Z"/><path class="cls-3" d="M18.27,9a1.16,1.16,0,0,0-1.17,1.16V18.8a1.17,1.17,0,0,0,2.33,0V10.14A1.16,1.16,0,0,0,18.27,9Z"/></svg>