<svg id="Layer_1" data-name="Layer 1" xmlns="http://www.w3.org/2000/svg" viewBox="0 0 47.33 40"><defs><style>.cls-1{fill:#447fc1;}.cls-2{fill:#f99b1c;}</style></defs><path class="cls-1" d="M35.86,16.73c0,.12,0,.25,0,.36s-.06.22,0,.34a8.22,8.22,0,0,1-2.31,4.72c-1,1-2.06,2.06-3.08,3.09-.14.15-.22.17-.38,0-.46-.49-.95-.95-1.42-1.44-.15-.16-.23-.15-.37,0-.29.31-.59.6-.89.9h0a7.45,7.45,0,0,1-1.6-1.62c.12-.36.45-.54.69-.8s.28-.29,0-.57L22,17.27c-.32-.32-.32-.31-.63,0a4.33,4.33,0,0,1-.74.68.23.23,0,0,1-.19-.07c-.46-.44-.9-.89-1.34-1.34a.21.21,0,0,1-.08-.22l1.1-1-1.66-1.64c-.11-.11-.18-.18,0-.33,1.27-1.21,2.42-2.55,3.77-3.67a7.74,7.74,0,0,1,4-1.75c.09,0,.19,0,.29,0s0,0,0,0a.83.83,0,0,1,.44-.05,4.52,4.52,0,0,0,1,0,1,1,0,0,1,.51.05c-.05,0-.1.06-.12,0a.68.68,0,0,0,.31,0A7.53,7.53,0,0,1,31.76,9c.27.17.4.11.6-.08C33.82,7.43,35.3,6,36.76,4.49c.18-.19.27-.19.45,0,.68.7,1.38,1.37,2.08,2.05v.28a9.64,9.64,0,0,0-1,1l-3.55,3.54c-.17.16-.22.26-.08.48A7.78,7.78,0,0,1,35.78,15c0,.14-.07.28,0,.41s0,.19,0,.29A4.52,4.52,0,0,0,35.86,16.73Z"/><path class="cls-2" d="M19,16.31l1.6,1.61c.16,0,.24.15.33.24,1.53,1.52,3.05,3.05,4.57,4.57.11.11.24.2.26.36l1.61,1.62c.54.54,1.07,1.09,1.62,1.63.11.12.16.19,0,.33-1.13,1.11-2.23,2.25-3.38,3.33a8.17,8.17,0,0,1-4.67,2.14,2,2,0,0,1-.35,0,5.83,5.83,0,0,0-1.32,0A7.54,7.54,0,0,1,15.62,31a.44.44,0,0,0-.66.09q-2.13,2.16-4.28,4.3c-.08.08-.18.14-.22.26h-.21a6.39,6.39,0,0,0-.87-.93c-.39-.41-.79-.82-1.21-1.21-.18-.17-.17-.27,0-.44,1.49-1.47,3-3,4.45-4.43a.35.35,0,0,0,.07-.54,8.43,8.43,0,0,1,1.16-10.26c1-1.05,2.07-2.07,3.1-3.11.16-.17.24-.16.4,0C17.89,15.26,18.38,15.83,19,16.31Z"/></svg>