<svg id="Layer_1" data-name="Layer 1" xmlns="http://www.w3.org/2000/svg" viewBox="0 0 47.33 40"><defs><style>.cls-1{fill:#ee1f55;}.cls-2{fill:#3bbb96;}.cls-3{fill:#447fc1;}</style></defs><path class="cls-1" d="M17.67,26.15a3.46,3.46,0,0,0-2.81-3.4V5.42a.65.65,0,0,0-1.29,0V22.75a3.46,3.46,0,0,0,0,6.79v5a.64.64,0,0,0,.64.64.65.65,0,0,0,.65-.64v-5A3.46,3.46,0,0,0,17.67,26.15Zm-3.46,2.16a2.17,2.17,0,1,1,2.16-2.16A2.17,2.17,0,0,1,14.21,28.31Z"/><path class="cls-2" d="M27.12,14.38A3.46,3.46,0,0,0,24.31,11V5.42a.65.65,0,0,0-1.29,0V11a3.46,3.46,0,0,0,0,6.8v16.8a.64.64,0,0,0,.64.64.65.65,0,0,0,.65-.64V17.78a3.48,3.48,0,0,0,2.81-3.4Zm-3.46,2.17a2.17,2.17,0,1,1,2.16-2.17,2.16,2.16,0,0,1-2.16,2.17Z"/><path class="cls-3" d="M36.57,22.16a3.46,3.46,0,0,0-2.81-3.4V5.42a.65.65,0,0,0-1.29,0V18.76a3.46,3.46,0,0,0,0,6.8v9a.65.65,0,0,0,1.29,0v-9A3.47,3.47,0,0,0,36.57,22.16Zm-3.46,2.16a2.17,2.17,0,1,1,2.16-2.16A2.16,2.16,0,0,1,33.11,24.32Z"/></svg>