<svg id="Layer_1" data-name="Layer 1" xmlns="http://www.w3.org/2000/svg" viewBox="0 0 140.12 155.66"><defs><style>.cls-1{fill:#ee2355;}</style></defs><path class="cls-1" d="M303.8,473.83a14.48,14.48,0,0,0-2.25-.55c-6.76-2.09-10.81-6.66-12.35-13.51-.17-.77-.22-1.57-.35-2.35-.06-.35,0-.5.4-.45h33.26c.45,0,.73,0,.66.61a17.94,17.94,0,0,1-3.52,9.43c-3,3.76-6.69,6.23-11.57,6.69-.05,0-.1.09-.15.14Z" transform="translate(-235.94 -318.17)"/><path class="cls-1" d="M375.51,443.13A46.35,46.35,0,0,1,355,420.37a36.43,36.43,0,0,1-3.08-12c-.29-5-.28-9.95-.35-14.92q-.12-8.82-.34-17.63a33.77,33.77,0,0,0-.8-7.15C347.18,355,339.28,344.91,327,338.26a44.65,44.65,0,0,0-14.1-4.65c-.89-.15-1.13-.47-1.13-1.34,0-3-.21-5.93-.26-8.89-.06-3.77-4.57-5.67-7.06-5.12a5.93,5.93,0,0,0-4.9,6c0,2.86,0,5.71,0,8.57,0,.49-.07.73-.65.83a42.55,42.55,0,0,0-4.71,1c-14.34,4.28-24.57,13.19-30.36,27.06A36,36,0,0,0,261,372.2c-.31,3.32-.31,6.66-.35,10q-.15,11.43-.35,22.86a36.81,36.81,0,0,1-.33,5.15,44.32,44.32,0,0,1-7,17.8,46.83,46.83,0,0,1-16.6,15.23c-.48.26-.53.44-.26.92,1.17,2.07,2.29,4.16,3.38,6.26a1.22,1.22,0,0,0,1.27.75q32.63,0,65.26,0h18.1q23.61,0,47.23,0a1.15,1.15,0,0,0,1.2-.72c1.07-2.06,2.16-4.1,3.31-6.12C376.2,443.72,376.14,443.49,375.51,443.13ZM296,352.82a17.59,17.59,0,0,1-2.46,1.41A27.21,27.21,0,0,0,281.75,366a15.88,15.88,0,0,1-1.62,2.72,3.15,3.15,0,0,1-3.94,1.08,3.54,3.54,0,0,1-2.27-3.64,6.92,6.92,0,0,1,.92-2.63A34.65,34.65,0,0,1,292,347c2.73-1.23,5.09-.11,5.53,2.63A3.24,3.24,0,0,1,296,352.82Z" transform="translate(-235.94 -318.17)"/></svg>