<svg id="Layer_1" data-name="Layer 1" xmlns="http://www.w3.org/2000/svg" viewBox="0 0 47.33 40"><defs><style>.cls-1{fill:#ee1f55;}</style></defs><path class="cls-1" d="M34.63,22.33V20a.58.58,0,0,0-.58-.58H24.24V17.67a8.09,8.09,0,1,0-1.15,0v1.75H13.27a.58.58,0,0,0-.57.58v2.33a8.09,8.09,0,1,0,1.15,0V20.58H33.48v1.75a8.08,8.08,0,1,0,1.15,0ZM17.31,36a6.88,6.88,0,0,1-8.08,0V34.43a4.06,4.06,0,0,1,2-3.52,3.46,3.46,0,0,0,4,0,4,4,0,0,1,2,3.52ZM11,28.08a2.31,2.31,0,1,1,2.3,2.31A2.31,2.31,0,0,1,11,28.08Zm9.23,2.31A6.91,6.91,0,0,1,18.47,35v-.54a5.22,5.22,0,0,0-2.37-4.36,3.42,3.42,0,0,0,.64-2,3.47,3.47,0,1,0-6.3,2,5.23,5.23,0,0,0-2.36,4.36V35A6.93,6.93,0,1,1,20.2,30.39Zm-1.73-16.2a6.93,6.93,0,1,1,10.39,0v-.54a5.22,5.22,0,0,0-2.37-4.36,3.42,3.42,0,0,0,.64-2,3.47,3.47,0,1,0-6.3,2,5.23,5.23,0,0,0-2.36,4.36v.54ZM26,7.3A2.31,2.31,0,1,1,23.66,5,2.31,2.31,0,0,1,26,7.3Zm-6.35,7.93V13.65a4.07,4.07,0,0,1,2.05-3.52,3.46,3.46,0,0,0,4,0,4.05,4.05,0,0,1,2.05,3.52v1.58a6.88,6.88,0,0,1-8.08,0ZM38.09,36A6.88,6.88,0,0,1,30,36V34.43a4.06,4.06,0,0,1,2.05-3.52,3.46,3.46,0,0,0,4,0,4,4,0,0,1,2.05,3.52Zm-6.35-7.93a2.31,2.31,0,1,1,2.31,2.31A2.32,2.32,0,0,1,31.74,28.08ZM39.25,35v-.54a5.22,5.22,0,0,0-2.37-4.36,3.42,3.42,0,0,0,.64-2,3.47,3.47,0,1,0-6.3,2,5.23,5.23,0,0,0-2.36,4.36V35a6.93,6.93,0,1,1,10.39,0Z"/></svg>