<svg id="Layer_1" data-name="Layer 1" xmlns="http://www.w3.org/2000/svg" viewBox="0 0 47.33 40"><defs><style>.cls-1{fill:#ee1f55;}.cls-2{fill:#f99b1c;}.cls-3{fill:#3bbb96;}</style></defs><path class="cls-1" d="M44.79,31.42,41.4,23.79a1.68,1.68,0,0,0-.76-.82l-5.26-2.74a.33.33,0,0,0-.36,0,8.39,8.39,0,0,1-1.85,1.07L36.3,23a3.5,3.5,0,0,1,1.61,1.72l3.77,8.48a3.69,3.69,0,0,1,.21.64h1.35a1.69,1.69,0,0,0,1.55-2.38Z"/><path class="cls-2" d="M11,23l3.14-1.63a8.39,8.39,0,0,1-1.85-1.07.33.33,0,0,0-.36,0L6.69,23a1.68,1.68,0,0,0-.76.82L2.54,31.42A1.65,1.65,0,0,0,2.67,33a1.68,1.68,0,0,0,1.42.77H5.43a3.72,3.72,0,0,1,.22-.64l3.76-8.48A3.59,3.59,0,0,1,11,23Z"/><path class="cls-2" d="M17.05,19.84a.37.37,0,0,0,.27-.09l-.21-.23a11.18,11.18,0,0,1-2.59-7.27c0-3.58.9-6.29,2.68-8.07l.06,0C13.6,4.16,10.65,6,10.65,12,10.65,16.2,13.49,19.64,17.05,19.84Z"/><path class="cls-1" d="M32.81,12.25a11.18,11.18,0,0,1-2.59,7.27l-.21.23a.33.33,0,0,0,.27.09c3.56-.2,6.4-3.64,6.4-7.85,0-6-3-7.83-6.61-7.86l.06,0C31.9,6,32.81,8.67,32.81,12.25Z"/><path class="cls-3" d="M23.66,21c4.13,0,7.47-3.91,7.47-8.73,0-6.69-3.34-8.74-7.47-8.74S16.2,5.56,16.2,12.25C16.2,17.07,19.54,21,23.66,21Z"/><path class="cls-3" d="M36.38,25.36a1.93,1.93,0,0,0-.85-.91l-5.85-3a.39.39,0,0,0-.4,0,9.19,9.19,0,0,1-11.24,0,.38.38,0,0,0-.4,0l-5.84,3a1.88,1.88,0,0,0-.85.91L7.18,33.84a1.87,1.87,0,0,0,.15,1.79,1.85,1.85,0,0,0,1.57.86H38.42A1.87,1.87,0,0,0,40,35.63a1.9,1.9,0,0,0,.15-1.79Z"/></svg>