<svg id="Layer_1" data-name="Layer 1" xmlns="http://www.w3.org/2000/svg" viewBox="0 0 999.75 971.89"><defs><style>.cls-1{fill:#fff;}</style></defs><path class="cls-1" d="M968.87,287.11a57.14,57.14,0,0,1-8.44,9.86q-49.08,49-98.13,98.13c-8.33,8.32-15.51,8.37-23.74.14l-74.26-74.3c-8-8-15-8-23,0L205.34,857.18c-9.12,9.12-15.66,9.14-24.71.08L85.81,762.41c-8.16-8.16-8.19-15.25-.08-23.36L621.1,203.46c.77-.78,1.56-1.54,2.31-2.33,6.73-7,6.7-14.45-.22-21.37q-37.26-37.35-74.53-74.62c-8.75-8.75-8.78-15.76-.08-24.46l42.76-42.77c7.44-7.45,16.28-9.59,26.27-6.57q69.3,21.33,138.62,42.75a60.76,60.76,0,0,1,25.4,15.36q90.72,90.7,181.37,181.4c2.56,2.56,4.76,5.26,5.87,8.75Z"/><path class="cls-1" d="M30.88,200.81c2.82-5,2.4-10.76,3.42-16.15,1.87-10.13,3.33-20.34,4.87-30.53.51-3.32.94-6.81,4.51-8.13,3.93-1.43,6.42,1.45,8.85,3.88l87.83,87.86c9,9,15.47,9,24.39.12q35.83-35.81,71.58-71.62c8.44-8.45,8.44-15.37.09-23.71L150.24,56.32c-.88-.88-1.77-1.76-2.65-2.67-2.17-2.28-4.54-4.61-3.36-8.15s4.43-4,7.57-4.51c16.8-2.68,33.59-5.54,50.43-8A45.6,45.6,0,0,1,230,37.59q31.7,16.15,63.39,32.31a45,45,0,0,1,19.91,19.87c11,21.36,21.92,42.71,32.69,64.17a45.74,45.74,0,0,1,4.12,28.71c-1.68,10-3.51,20-4.69,30.08-1.11,9.38,2,17.5,8.72,24.23q45.09,45,90.22,90.14c2.42,2.41,2.92,3.65.17,6.38Q388,389.67,331.79,446.2c-2.49,2.51-3.7,2.82-6.38.09q-44.73-45.09-89.75-89.92c-7.77-7.81-17-10.59-27.79-8.74-10,1.73-20,3.47-30.08,4.69a43.22,43.22,0,0,1-25-4.27q-32.42-16.33-64.68-32.94a45.06,45.06,0,0,1-19.82-19.94C57.46,274.06,46.8,253,35.87,231.88c-2.07-4-2.29-8.62-5-12.31Z"/><path class="cls-1" d="M762.66,941.87a50,50,0,0,1-23.1-5.56c-20.64-10.67-41.39-21.18-62.1-31.74a44.87,44.87,0,0,1-20-19.77q-16.5-32-32.73-64.17a45.81,45.81,0,0,1-4.19-28.71c1.66-10,3.49-20,4.69-30.07,1.14-9.54-2.07-17.77-8.92-24.62L497.6,618.6c-3-3-3-4.4,0-7.36q56.19-55.85,112-112.09c2.81-2.81,4.11-2.58,6.78.11q58.89,59.16,117.9,118.15c8,8,17.17,11.42,28.43,9.38,9.38-1.69,18.77-3.13,28.22-4.49a45.42,45.42,0,0,1,27.35,4.26q32.2,16.23,64.22,32.76a44.93,44.93,0,0,1,19.87,19.92q16.32,31.83,32.49,63.79a46.14,46.14,0,0,1,4.31,28.69q-3.91,24.53-7.77,49c-.52,3.3-1,6.75-4.8,7.86-3.53,1-5.87-1.39-8.1-3.61Q874,780.44,829.42,735.83c-7.67-7.68-14.9-7.64-22.66.13q-36.48,36.45-72.93,72.94c-7.7,7.71-7.67,14.92.08,22.67q43.68,43.76,87.45,87.48c2.71,2.71,6.45,5.25,5.08,9.77s-6,4.38-9.74,5q-24.27,3.95-48.57,7.76A45.47,45.47,0,0,1,762.66,941.87Z"/></svg>