<svg id="Layer_1" data-name="Layer 1" xmlns="http://www.w3.org/2000/svg" viewBox="0 0 999.75 971.89"><defs><style>.cls-1{fill:#fff;}</style></defs><path class="cls-1" d="M445.78,71.38c20.12-2,42.68.34,65,3.62,11.52,1.69,22.86,5.16,34.5,6.92,2.44.36,6.4,2.44,3.91,5.91-8.9,12.74-13.28,27.36-16.87,42-2.08,8.34-7.33,8.24-12.22,6.68-19.25-6.09-39.37-4.89-58.83-8.41-22-3.89-43.54,1.59-65.16,2.64-13.62.68-27.84,5.11-41.56,8.55a360.32,360.32,0,0,0-94.18,39.12,302.4,302.4,0,0,0-42.2,29.83,354.16,354.16,0,0,0-42.86,41,371.48,371.48,0,0,0-53.4,80.52,437,437,0,0,0-20.19,52.41C95.83,400.35,93,419,89,437.44c-2.18,9.78,0,20.78-2.25,30.88-5,22.24.83,44.2,2.59,66s7.75,44,15.08,65.18A333.64,333.64,0,0,0,137.3,671c20.93,33.06,45.16,63.33,75.79,88.46A386.07,386.07,0,0,0,287,808.11a417.15,417.15,0,0,0,52.88,20.74,245.48,245.48,0,0,0,54.5,12.51c25.16,2.23,50.44,7,76.23,2.45,13.82-2.45,28.39-2.64,42.15-5.48a320.31,320.31,0,0,0,34.6-9c15.38-4.89,30.44-10.49,45.33-16.65a289.81,289.81,0,0,0,48.55-26.72A339.91,339.91,0,0,0,707,730.63a388.29,388.29,0,0,0,66-100.88,300.45,300.45,0,0,0,16.31-45c3.4-12.71,5.91-26.08,8.56-39.12,3.61-17.77,1.32-35.86,5.77-53.44,2.29-9.15-1.23-18.73-2.45-28.05-1.61-12.54-.78-22.9,10.39-31.9,12-9.78,22.2-21.71,33.25-32.67,1.35-1.32,2.45-3.91,4.75-2.93s2.44,3.55,2.81,5.84c8.31,39.73,7.7,80,6.53,120.22A120.07,120.07,0,0,1,852.88,560c-2.13,5.87-2,12.52-3.35,18.83-3.49,16-8.87,31.24-13.89,46.74a337.36,337.36,0,0,1-28.19,62.3,423.24,423.24,0,0,1-80.92,102A411.39,411.39,0,0,1,615,864.32a423.69,423.69,0,0,1-80.68,26.75,432.47,432.47,0,0,1-112.47,9.78A401.58,401.58,0,0,1,374.36,895a410.38,410.38,0,0,1-78.24-21.52,418,418,0,0,1-93-49.48,487,487,0,0,1-47-38.29c-17.6-15.8-32.34-34.23-46.25-53.16a402.52,402.52,0,0,1-54-99.85A512.39,512.39,0,0,1,36,561c-7.77-36.67-7.33-73.61-5.79-110.46.76-18.75,5.38-37.45,9.12-56.23,8.46-42.1,24.84-80.86,45.82-117.73a388.73,388.73,0,0,1,77.48-96.77,418.41,418.41,0,0,1,113-74A472.93,472.93,0,0,1,324.82,88c14.21-4.41,28.61-7,42.94-10.4C392.92,71.65,417.85,70.6,445.78,71.38Z"/><path class="cls-1" d="M672.15,71.26c26.9-2.3,47.78,9.78,66.36,27.31,11.34,10.63,22.2,21.76,33,33,3.61,3.79,5.59,3.92,9.51,0C797,116,811.24,98.4,829.87,85.71c12.79-8.68,26.56-14.38,42.5-14.82,18.24-.54,35.69,1.15,51.76,10.66,20.68,12.23,35.47,29.34,42.22,52.64,10.59,36.67.54,68.09-25.87,94.64-52.59,52.89-105.45,105.45-158,158.41-4.89,4.89-7.34,5.36-12.55.12q-79.31-80-159.23-159.5c-23.28-23.21-32.94-51.52-27.54-83.28a83.57,83.57,0,0,1,35.92-56.67C635.4,76.93,652.08,69.5,672.15,71.26Z"/><path class="cls-1" d="M146.27,458.49c20.15-.39,40.32-.2,60.49,0a6.67,6.67,0,0,0,6.53-3.08c6.38-10.35,14.3-19.56,21.71-29.17,12.22-15.85,23.52-32.37,35.42-48.46,12.94-17.51,26.21-34.74,39.12-52.32a6,6,0,0,1,4.75-2.69c1-.12,1.83,1.54,2.44,3.05,7.58,21.13,15.33,42.18,23.06,63.23C346,406,352,422.91,358.42,439.69c6.13,15.79,11.83,31.78,17.77,47.62,6.8,18.14,13.79,36.21,20.54,54.35,1.78,4.89,1.76,11.67,8,15.33l89.9-209.58c12.71,19,25.18,37.78,37.85,56.41,8.58,12.61,15.86,26.13,26,37.7,3.81,6.72,5.3,16.67,15.16,16.72,57.23.27,114.49,0,171.73,0,2.88.74,3.84-.93,3.35-3.25-1.76-8.36-2.15-17.11-9-23.79Q654.7,346.48,569.86,261.52a133.93,133.93,0,0,1-32.23-51.12c-2.76-7.8-1.93-17.68-16.31-19.56s-29.14-7.46-43.71-8.31c-46-2.69-91.52-.69-135.57,16.3-36.68,14.14-69.81,33-99.22,59a313.44,313.44,0,0,0-81.61,114.49c-10.81,25-15.62,51.91-20.69,78.8C139.69,455.55,140,458.63,146.27,458.49Z"/><path class="cls-1" d="M739.07,513.67H549c-4.48,0-8.56-.2-11.1-4.5-8.49-14.33-17.93-28-27.53-41.56-1.54-2.18-1.76-6.29-5.31-5.38-1.86.46-3.47,3.52-4.4,5.72-10.78,25.23-21.34,50.54-32.1,75.79S446.7,594.5,435.7,619.85c-1.12,2.57-2.44,4.62-6.16,4.55-17.85-.29-35.7-.2-53.57,0a7.33,7.33,0,0,1-7.55-5.57c-4.16-11.69-7.56-23.72-12.57-35-5.38-12.08-9.78-24.65-14.25-36.94-4.18-11.27-8.78-22.62-12.23-34.23s-8.48-23.2-13.13-34.62c-6.18-15.19-10.39-31.22-18.41-46a12.94,12.94,0,0,0-2.44,1.91c-9.78,14.3-20.49,27.87-31.1,41.56-8.51,11-16.19,22.55-24.21,33.87A10.92,10.92,0,0,1,230,514c-23.91-.3-47.8-.22-71.71,0-5.7,0-13.06-2.45-16.72,1-4.23,4.11,1.54,10.54,1.86,15.94,1.27,20.17,7.53,38.92,14,57.82a288.34,288.34,0,0,0,51.34,91A294.9,294.9,0,0,0,314,761.66a245.29,245.29,0,0,0,39,15.23c9.36,2.45,18.89,4.48,28.06,7.34a111.92,111.92,0,0,0,30.49,5.59c32.71.4,65.5,3.23,98-5.84,15-4.18,30.34-7.33,44.77-13.08,27.72-11.1,54-25,77-44.4,18.24-13.47,33.57-29.9,48.21-47,4.62-5.89,9.29-11.76,13.86-17.7,12.62-16.43,21.84-34.87,30.42-53.52A317,317,0,0,0,742.54,551c2.18-8.8.88-17.9,4.62-26.46C751.29,515,749.88,513.67,739.07,513.67Z"/></svg>