<svg id="Layer_1" data-name="Layer 1" xmlns="http://www.w3.org/2000/svg" viewBox="0 0 999.75 971.89"><defs><style>.cls-1{fill:#fff;}</style></defs><path class="cls-1" d="M592.1,687.7a22.15,22.15,0,0,1-15.65-6.48l-79.16-79.16A114.13,114.13,0,1,0,704.08,687.7Z"/><path class="cls-1" d="M592.1,551.43a113.43,113.43,0,0,0-63.52,19.35l72.68,72.68H704.08A114.32,114.32,0,0,0,592.1,551.43Z"/><path class="cls-1" d="M772.13,167.38H681v26.8a64.12,64.12,0,0,1-64.05,64.05H382.81a64.12,64.12,0,0,1-64-64.05v-26.8H227.61A23.61,23.61,0,0,0,204,191v680.8a23.61,23.61,0,0,0,23.59,23.59H772.14a23.61,23.61,0,0,0,23.59-23.59V191A23.62,23.62,0,0,0,772.13,167.38ZM272.75,325.49H499.87a22.12,22.12,0,0,1,0,44.24H272.75a22.12,22.12,0,0,1,0-44.24ZM409,551.42H272.75a22.12,22.12,0,0,1,0-44.24H409a22.12,22.12,0,1,1,0,44.24Zm0-90.85H272.75a22.12,22.12,0,0,1,0-44.24H409a22.12,22.12,0,0,1,0,44.24ZM592.1,824c-87.34,0-158.4-71.06-158.4-158.39s71.06-158.4,158.4-158.4,158.39,71.06,158.39,158.4S679.44,824,592.1,824Z"/><path class="cls-1" d="M382.82,214H616.94a19.83,19.83,0,0,0,19.8-19.81V141.76A19.83,19.83,0,0,0,616.94,122H545.3a22.12,22.12,0,0,1-22.12-22.12,23.31,23.31,0,0,0-46.61,0A22.12,22.12,0,0,1,454.45,122H382.82A19.84,19.84,0,0,0,363,141.76v52.42A19.83,19.83,0,0,0,382.82,214Z"/></svg>