<svg id="Layer_1" data-name="Layer 1" xmlns="http://www.w3.org/2000/svg" viewBox="0 0 999.75 971.89"><defs><style>.cls-1{fill:#447fc1;}</style></defs><path class="cls-1" d="M999.76,274a60.67,60.67,0,0,1-9,10.51L886.17,389.11c-8.88,8.87-16.53,8.92-25.3.15l-79.15-79.19c-8.57-8.57-16-8.56-24.54,0L186,881.62c-9.72,9.72-16.69,9.75-26.34.09L58.54,780.61c-8.7-8.7-8.73-16.25-.09-24.9L629.09,184.85c.82-.83,1.65-1.64,2.46-2.48,7.17-7.48,7.14-15.4-.23-22.78Q591.6,119.8,551.87,80.06c-9.33-9.33-9.35-16.8-.09-26.07L597.36,8.4c7.93-7.94,17.35-10.22,28-7Q699.22,24.14,773.11,47a64.9,64.9,0,0,1,27.07,16.37Q896.89,160,993.49,256.68c2.73,2.73,5.09,5.61,6.27,9.33Z"/><path class="cls-1" d="M0,182c3-5.35,2.56-11.47,3.64-17.22,2-10.79,3.55-21.68,5.2-32.54.54-3.53,1-7.26,4.8-8.66,4.19-1.53,6.84,1.54,9.43,4.13q46.82,46.83,93.62,93.65c9.58,9.58,16.5,9.63,26,.13q38.2-38.16,76.3-76.34c9-9,9-16.38.09-25.27L127.21,28c-.94-.94-1.89-1.87-2.82-2.84-2.32-2.43-4.84-4.92-3.59-8.69s4.74-4.28,8.07-4.81c17.92-2.85,35.81-5.9,53.75-8.51A48.55,48.55,0,0,1,212.2,8.06C234.73,19.54,257.29,31,279.77,42.5A48,48,0,0,1,301,63.67c11.68,22.77,23.36,45.53,34.84,68.4a48.76,48.76,0,0,1,4.4,30.6c-1.8,10.67-3.74,21.33-5,32.06-1.18,10,2.13,18.66,9.29,25.83q48.06,48,96.16,96.07c2.58,2.57,3.11,3.9.18,6.81q-60.24,59.9-120.14,120.14c-2.66,2.67-4,3-6.8.09q-47.67-48.06-95.66-95.84c-8.29-8.32-18.1-11.29-29.62-9.31-10.67,1.84-21.34,3.69-32.07,5a46,46,0,0,1-26.7-4.56q-34.54-17.4-68.93-35.1A47.88,47.88,0,0,1,39.82,282.6c-11.49-22.5-22.86-45-34.5-67.46C3.1,210.89,2.87,206,0,202Z"/><path class="cls-1" d="M780,971.89A53.14,53.14,0,0,1,755.34,966c-22-11.37-44.12-22.57-66.19-33.83a47.81,47.81,0,0,1-21.28-21.07Q650.28,877,633,842.67a48.82,48.82,0,0,1-4.46-30.6c1.77-10.67,3.71-21.33,5-32.06,1.21-10.16-2.2-18.94-9.51-26.24L497.45,627.33c-3.21-3.18-3.18-4.69,0-7.84Q557.35,560,616.87,500c3-3,4.39-2.75,7.23.11q62.77,63.06,125.67,125.93c8.51,8.54,18.31,12.18,30.31,10,10-1.8,20-3.34,30.08-4.78a48.38,48.38,0,0,1,29.15,4.54q34.32,17.29,68.45,34.91A48,48,0,0,1,928.92,692q17.4,33.93,34.63,68a49.09,49.09,0,0,1,4.6,30.58q-4.17,26.13-8.28,52.27c-.56,3.52-1.09,7.2-5.12,8.38-3.76,1.1-6.26-1.48-8.63-3.85q-47.54-47.51-95-95.06c-8.18-8.18-15.88-8.14-24.16.14q-38.88,38.85-77.73,77.74c-8.2,8.22-8.16,15.91.1,24.17q46.54,46.63,93.2,93.24c2.88,2.89,6.87,5.59,5.41,10.41s-6.36,4.67-10.38,5.32q-25.86,4.2-51.77,8.27A47.2,47.2,0,0,1,780,971.89Z"/></svg>