<svg id="Layer_1" data-name="Layer 1" xmlns="http://www.w3.org/2000/svg" viewBox="0 0 999.75 971.89"><defs><style>.cls-1{fill:#f99c1e;}.cls-2{fill:#ec1f56;}.cls-3{fill:#32b996;}</style></defs><path class="cls-1" d="M442.18,43.81c21.46-2.19,45.52.37,69.36,3.86,12.28,1.8,24.38,5.5,36.79,7.38,2.61.39,6.83,2.61,4.17,6.31-9.49,13.59-14.16,29.18-18,44.82-2.22,8.9-7.82,8.79-13,7.12-20.52-6.49-42-5.21-62.73-9-23.47-4.14-46.44,1.7-69.49,2.82-14.53.73-29.7,5.45-44.33,9.13A384,384,0,0,0,244.48,158a321.3,321.3,0,0,0-45,31.81,377.84,377.84,0,0,0-45.71,43.73A395.69,395.69,0,0,0,96.81,319.4a467.09,467.09,0,0,0-21.54,55.91C69,394.65,66,414.58,61.66,434.21c-2.32,10.43,0,22.16-2.4,32.93-5.34,23.73.89,47.15,2.77,70.41s8.26,46.88,16.09,69.51a356.07,356.07,0,0,0,35.07,76.19c22.32,35.26,48.16,67.54,80.83,94.34a411.87,411.87,0,0,0,78.8,51.95,445.6,445.6,0,0,0,56.4,22.11A261.61,261.61,0,0,0,387.34,865c26.83,2.37,53.79,7.51,81.3,2.61,14.74-2.61,30.28-2.82,45-5.85a337.68,337.68,0,0,0,36.89-9.62C566.9,846.93,583,841,598.84,834.39a309.7,309.7,0,0,0,51.78-28.5,362.89,362.89,0,0,0,70.17-59,413.72,413.72,0,0,0,70.4-107.58,321.16,321.16,0,0,0,17.4-48c3.62-13.56,6.31-27.82,9.12-41.72,3.86-19,1.41-38.25,6.16-57,2.45-9.75-1.31-20-2.61-29.91-1.72-13.37-.84-24.43,11.08-34,12.83-10.43,23.68-23.16,35.46-34.84,1.44-1.41,2.61-4.17,5.06-3.13s2.61,3.78,3,6.23c8.87,42.38,8.21,85.35,7,128.21a127.83,127.83,0,0,1-6.46,39.8c-2.27,6.25-2.12,13.35-3.58,20.07-3.73,17.08-9.46,33.33-14.81,49.86a360.66,360.66,0,0,1-30.06,66.44A451.49,451.49,0,0,1,741.6,810.08a439,439,0,0,1-118.9,79.4A452.11,452.11,0,0,1,536.65,918,461.34,461.34,0,0,1,416.7,928.44,429.88,429.88,0,0,1,366,922.21a438,438,0,0,1-83.44-23,445.21,445.21,0,0,1-99.21-52.78,516,516,0,0,1-50.09-40.83c-18.78-16.84-34.5-36.5-49.34-56.69a429.69,429.69,0,0,1-57.6-106.49A546.75,546.75,0,0,1,5.11,565.94c-8.3-39.11-7.83-78.51-6.18-117.81.8-20,5.73-39.94,9.72-60,9-44.9,26.49-86.23,48.87-125.55A414.81,414.81,0,0,1,140.15,159.4a446.62,446.62,0,0,1,120.49-79,510.47,510.47,0,0,1,52.54-18.88c15.15-4.69,30.51-7.43,45.79-11.08C385.8,44.1,412.4,43,442.18,43.81Z"/><path class="cls-2" d="M683.61,43.68c28.68-2.45,50.95,10.43,70.77,29.13C766.47,84.15,778.05,96,789.52,108c3.86,4,6,4.17,10.15,0C816.75,91.35,832,72.63,851.82,59.09c13.64-9.25,28.32-15.33,45.32-15.8,19.45-.57,38.07,1.23,55.2,11.37,22.06,13,37.83,31.29,45,56.14,11.29,39.11.57,72.62-27.59,100.94-56.09,56.4-112.46,112.46-168.47,168.94-5.21,5.21-7.82,5.71-13.38.13q-84.58-85.35-169.82-170.12C593.28,186,583,155.75,588.75,121.88a89.11,89.11,0,0,1,38.3-60.44C644.42,49.73,662.2,41.81,683.61,43.68Z"/><path class="cls-3" d="M122.76,456.66c21.48-.42,43-.21,64.51,0a7.1,7.1,0,0,0,7-3.28c6.8-11,15.25-20.86,23.15-31.11,13-16.9,25.09-34.53,37.79-51.68,13.79-18.67,28-37.06,41.72-55.8a6.4,6.4,0,0,1,5.06-2.87c1-.13,1.95,1.64,2.6,3.26,8.09,22.53,16.35,45,24.59,67.43,6.6,18,13,36.11,19.87,54,6.55,16.84,12.62,33.9,19,50.79,7.25,19.35,14.7,38.62,21.9,58,1.9,5.21,1.88,12.44,8.55,16.35L494.3,338.2c13.56,20.26,26.86,40.29,40.37,60.16,9.15,13.45,16.92,27.87,27.71,40.2,4.07,7.18,5.66,17.79,16.17,17.84,61,.29,122.11,0,183.15,0,3.08.78,4.1-1,3.57-3.47-1.87-8.92-2.29-18.25-9.54-25.37Q665,337.22,574.51,246.6a142.85,142.85,0,0,1-34.37-54.52c-2.94-8.32-2.06-18.86-17.39-20.86s-31.08-8-46.62-8.87c-49.05-2.87-97.6-.73-144.59,17.39-39.11,15.07-74.44,35.18-105.81,62.95a334.16,334.16,0,0,0-87,122.11c-11.53,26.67-16.66,55.36-22.06,84C115.74,453.53,116,456.82,122.76,456.66Z"/><path class="cls-3" d="M755,515.51H552.24c-4.77,0-9.13-.21-11.84-4.8-9-15.28-19.11-29.9-29.36-44.32-1.64-2.32-1.88-6.7-5.66-5.74-2,.5-3.7,3.76-4.69,6.1-11.5,26.91-22.76,53.9-34.24,80.84s-23.28,54.13-35,81.17c-1.19,2.73-2.6,4.93-6.57,4.85-19-.32-38.07-.21-57.13,0a7.82,7.82,0,0,1-8.05-6c-4.44-12.46-8.06-25.29-13.41-37.36-5.73-12.88-10.43-26.29-15.2-39.4-4.46-12-9.36-24.12-13-36.51s-9-24.74-14-36.92c-6.6-16.19-11.08-33.3-19.63-49.07a13.54,13.54,0,0,0-2.61,2c-10.43,15.25-21.85,29.73-33.17,44.33-9.07,11.68-17.26,24-25.81,36.11a11.66,11.66,0,0,1-10.8,5c-25.5-.31-51-.23-76.48,0-6.07,0-13.92-2.61-17.83,1.12-4.51,4.38,1.64,11.24,2,17,1.36,21.52,8,41.52,14.89,61.67a307.62,307.62,0,0,0,54.76,97A314.53,314.53,0,0,0,301.63,780a261.3,261.3,0,0,0,41.57,16.25c10,2.61,20.15,4.77,29.93,7.82a119.21,119.21,0,0,0,32.52,6c34.89.42,69.85,3.44,104.48-6.23,16-4.46,32.36-7.82,47.74-13.95C587.44,778,615.47,763.17,640,742.5c19.45-14.37,35.8-31.89,51.42-50.17,4.92-6.29,9.9-12.54,14.78-18.88,13.46-17.52,23.29-37.18,32.44-57.08a339.17,339.17,0,0,0,20-61c2.32-9.39.94-19.09,4.93-28.22C768,517,766.5,515.51,755,515.51Z"/></svg>