<svg id="Layer_1" data-name="Layer 1" xmlns="http://www.w3.org/2000/svg" viewBox="0 0 999.75 971.89"><defs><style>.cls-1{fill:#ee1f55;}.cls-2{fill:#3bbb96;}.cls-3{fill:#447fc1;}</style></defs><path class="cls-1" d="M608.74,724.11a26.14,26.14,0,0,1-18.46-7.64L496.83,623A134,134,0,0,0,474,698c0,74.31,60.45,134.76,134.76,134.76,65.38,0,120-46.79,132.2-108.65Z"/><path class="cls-1" d="M608.74,563.24a134,134,0,0,0-75,22.85l85.8,85.8H740.94C728.75,610,674.12,563.24,608.74,563.24Z"/><path class="cls-2" d="M821.28,109.88H713.67v31.64a75.69,75.69,0,0,1-75.61,75.6H361.68a75.68,75.68,0,0,1-75.6-75.6V109.88H178.47a27.88,27.88,0,0,0-27.85,27.85V941.41a27.88,27.88,0,0,0,27.85,27.85H821.28a27.88,27.88,0,0,0,27.85-27.85V137.73A27.88,27.88,0,0,0,821.28,109.88ZM231.75,296.52H499.87a26.12,26.12,0,0,1,0,52.23H231.75a26.12,26.12,0,0,1,0-52.23ZM392.62,563.24H231.75a26.11,26.11,0,1,1,0-52.22H392.62a26.11,26.11,0,1,1,0,52.22Zm0-107.25H231.75a26.11,26.11,0,0,1,0-52.22H392.62a26.11,26.11,0,1,1,0,52.22ZM608.74,885c-103.1,0-187-83.89-187-187s83.88-187,187-187,187,83.88,187,187S711.85,885,608.74,885Z"/><path class="cls-3" d="M361.69,164.9H638.07a23.41,23.41,0,0,0,23.38-23.38V79.63a23.41,23.41,0,0,0-23.38-23.38H553.5a26.11,26.11,0,0,1-26.11-26.11,27.51,27.51,0,1,0-55,0,26.11,26.11,0,0,1-26.12,26.11H361.69a23.4,23.4,0,0,0-23.38,23.38v61.89A23.4,23.4,0,0,0,361.69,164.9Z"/></svg>