<svg xmlns="http://www.w3.org/2000/svg" viewBox="0 0 356.99 482.74"><defs><style>.cls-1{fill:#a33fb7;}.cls-2{font-size:93.26px;fill:#fff;font-family:MyriadPro-Bold, Myriad Pro;font-weight:700;}</style></defs><g id="Layer_2" data-name="Layer 2"><g id="Layer_1-2" data-name="Layer 1"><path class="cls-1" d="M138.71,0h84.9l14.87.33c.08,1.24.17,2.48.25,3.71V19c1.48,1.48,1.1,3.43,1.35,5.22.07,4.83,0,9.67,0,14.51.19,1.81-.19,3.62,0,5.43.05,4.84,0,9.68,0,14.52.19,1.81-.18,3.62,0,5.43,0,4.8,0,9.59-.06,14.39.18,1.72-.12,3.44,0,5.16,0,4.28-.26,8.58.84,12.79a24.57,24.57,0,0,0,11.8,15.5c3.27,1.89,6.94,2.52,10.56,3.33,22.79.46,45.57.22,68.35.12,7.49,0,14.89.93,22.35,1,2.47,0,3.22,1.12,3,3.35-.07.83,0,1.66,0,2.49q0,164.65,0,329.3c0,1.65.26,3.33-.3,5l-.21,4c-.72,2.31-1.45,4.61-2.18,6.92a34.64,34.64,0,0,1-12.79,13c-5.21,2-10.61,2.35-16.14,2.35q-147-.08-294,0c-2.83,0-5.65-.06-8.48-.08L21,482.4l-5.15-1.84-7.64-5.22L4.9,471.4q-2-4.45-4.06-8.91C.57,460.4.29,458.3,0,456.21a56.77,56.77,0,0,0,0-12.7,8.83,8.83,0,0,0,0-5,76.61,76.61,0,0,0,0-15,8.79,8.79,0,0,0,0-5,76.61,76.61,0,0,0,0-15,8.83,8.83,0,0,0,0-5,76.61,76.61,0,0,0,0-15,8.83,8.83,0,0,0,0-5,76.51,76.51,0,0,0,0-15,8.83,8.83,0,0,0,0-5,76.61,76.61,0,0,0,0-15,8.83,8.83,0,0,0,0-5,76.61,76.61,0,0,0,0-15,8.83,8.83,0,0,0,0-5,76.51,76.51,0,0,0,0-15,8.83,8.83,0,0,0,0-5,76.61,76.61,0,0,0,0-15,8.83,8.83,0,0,0,0-5,76.61,76.61,0,0,0,0-15,8.79,8.79,0,0,0,0-5,76.61,76.61,0,0,0,0-15,8.83,8.83,0,0,0,0-5,76.61,76.61,0,0,0,0-15,8.83,8.83,0,0,0,0-5,76.51,76.51,0,0,0,0-15,8.83,8.83,0,0,0,0-5,76.61,76.61,0,0,0,0-15,8.83,8.83,0,0,0,0-5,76.61,76.61,0,0,0,0-15,8.79,8.79,0,0,0,0-5,76.61,76.61,0,0,0,0-15,8.83,8.83,0,0,0,0-5,76.61,76.61,0,0,0,0-15,8.83,8.83,0,0,0,0-5,76.51,76.51,0,0,0,0-15,8.83,8.83,0,0,0,0-5,76.61,76.61,0,0,0,0-15,8.83,8.83,0,0,0,0-5A76.61,76.61,0,0,0,0,64a8.79,8.79,0,0,0,0-5A76.61,76.61,0,0,0,0,44a8.83,8.83,0,0,0,0-5A58.88,58.88,0,0,0,.05,26.34c.63-3.1,1.27-6.19,1.91-9.29A32.54,32.54,0,0,1,16.86,2l7-1.85L38.83,0h99.88Z"/><path class="cls-1" d="M252.4,5.1a7.67,7.67,0,0,0,3.12,3.09,37.11,37.11,0,0,0,7,6.87,7.35,7.35,0,0,0,3.06,3,37.65,37.65,0,0,0,7,6.91,6.83,6.83,0,0,0,3,3,38.78,38.78,0,0,0,7.08,7,6.65,6.65,0,0,0,2.93,2.89,40.66,40.66,0,0,0,7.17,7.07l2.84,2.82,7.79,7.64,1.78,1.71a37.88,37.88,0,0,0,7.06,7,13.9,13.9,0,0,0,4.19,4.14A28.21,28.21,0,0,0,322.29,74a13.65,13.65,0,0,0,4.14,4.08A27.51,27.51,0,0,0,332.36,84a12.83,12.83,0,0,0,4.09,4,27.44,27.44,0,0,0,6,5.92,12.2,12.2,0,0,0,4,4,27.55,27.55,0,0,0,6.07,6,7.23,7.23,0,0,0,3,3c-2.1,3.18-5.44,2.37-8.36,2.39-23.08.09-46.16,0-69.23,0-2.66,0-5.31.1-8,.08A32.44,32.44,0,0,1,258.72,106a31.79,31.79,0,0,1-12.31-15.69,14.75,14.75,0,0,1-.23-3.51c0-23.11-.09-46.2,0-69.3,0-5.1,1.18-10.18.94-15.33,0-.78.54-1.11,1.34-.89A11.52,11.52,0,0,0,252.4,5.1Z"/><text class="cls-2" transform="translate(115.8 298.78)">A3</text></g></g></svg>