<?xml version="1.0" encoding="utf-8"?>
<!-- Generator: Adobe Illustrator 16.0.0, SVG Export Plug-In . SVG Version: 6.00 Build 0)  -->
<!DOCTYPE svg PUBLIC "-//W3C//DTD SVG 1.1//EN" "http://www.w3.org/Graphics/SVG/1.1/DTD/svg11.dtd">
<svg version="1.1" id="Layer_1" xmlns="http://www.w3.org/2000/svg" xmlns:xlink="http://www.w3.org/1999/xlink" x="0px" y="0px"
	 width="512px" height="512px" viewBox="0 0 512 512" enable-background="new 0 0 512 512" xml:space="preserve">
<text transform="matrix(1 0 0 1 168.7834 543.8083)" fill="#FFFF00" font-family="'Verdana-Bold'" font-size="20">simpleicon.com</text>
<text transform="matrix(1 0 0 1 9.1926 567.8083)" fill="#FFFF00" font-family="'Verdana'" font-size="20">Collection Of Flat Icon, Symbols And Glyph Icons</text>
<g>
	<path fill="none" d="M397.997,102.5H383.5v18.686c0,6.921-5.582,12.53-12.5,12.53s-12.5-5.608-12.5-12.53V102.5h-17v18.686
		c0,6.921-5.582,12.53-12.5,12.53c-6.916,0-12.5-5.608-12.5-12.53V102.5h-117v18.686c0,6.921-5.581,12.53-12.5,12.53
		c-6.919,0-12.5-5.608-12.5-12.53V102.5h-17v18.686c0,6.921-5.581,12.53-12.5,12.53s-12.5-5.608-12.5-12.53V102.5h-14.321
		c-4.613,0-10.679,1.544-10.679,6.157v325.76c0,4.612,6.065,11.083,10.679,11.083h279.818c4.613,0,6.503-6.471,6.503-11.083v-325.76
		C404.5,104.044,402.611,102.5,397.997,102.5z M383.5,386.5h-251v-16h251V386.5z M383.5,345.5h-251v-17h251V345.5z M383.5,303.5
		h-251v-17h251V303.5z M383.5,261.5h-251v-17h251V261.5z M383.5,219.5h-251v-17h251V219.5z"/>
	<rect x="132.5" y="244.5" width="251" height="17"/>
	<rect x="132.5" y="202.5" width="251" height="17"/>
	<rect x="132.5" y="286.5" width="251" height="17"/>
	<rect x="132.5" y="328.5" width="251" height="17"/>
	<rect x="132.5" y="370.5" width="251" height="16"/>
	<path d="M397.997,85.5H383.5V62.717c0-6.919-5.582-12.529-12.5-12.529s-12.5,5.61-12.5,12.529V85.5h-17V62.717
		c0-6.919-5.582-12.529-12.5-12.529c-6.916,0-12.5,5.61-12.5,12.529V85.5h-117V62.717c0-6.919-5.581-12.529-12.5-12.529
		c-6.919,0-12.5,5.61-12.5,12.529V85.5h-17V62.717c0-6.919-5.581-12.529-12.5-12.529s-12.5,5.61-12.5,12.529V85.5h-14.321
		c-13.838,0-27.679,9.318-27.679,23.157v325.76c0,13.839,13.84,28.083,27.679,28.083h279.818c13.839,0,23.503-14.244,23.503-28.083
		v-325.76C421.5,94.818,411.836,85.5,397.997,85.5z M404.5,434.417c0,4.612-1.89,11.083-6.503,11.083H118.179
		c-4.613,0-10.679-6.471-10.679-11.083v-325.76c0-4.613,6.065-6.157,10.679-6.157H132.5v18.686c0,6.921,5.581,12.53,12.5,12.53
		s12.5-5.608,12.5-12.53V102.5h17v18.686c0,6.921,5.581,12.53,12.5,12.53c6.919,0,12.5-5.608,12.5-12.53V102.5h117v18.686
		c0,6.921,5.584,12.53,12.5,12.53c6.918,0,12.5-5.608,12.5-12.53V102.5h17v18.686c0,6.921,5.582,12.53,12.5,12.53
		s12.5-5.608,12.5-12.53V102.5h14.497c4.613,0,6.503,1.544,6.503,6.157V434.417z"/>
</g>
</svg>
