<svg id="Layer_1" data-name="Layer 1" xmlns="http://www.w3.org/2000/svg" viewBox="0 0 19 24"><defs><style>.cls-1{fill:#fff;}</style></defs><path class="cls-1" d="M16.5,13.81a2.83,2.83,0,0,0-1.91-.49,15.32,15.32,0,0,0-2.3.18,5.52,5.52,0,0,1-1.06-.81A8.89,8.89,0,0,1,9.31,9.4c0-.12,0-.23.08-.33a23.94,23.94,0,0,0,.33-3.86,1,1,0,0,0-.06-.28l0-.12c-.12-.31-.37-.65-.75-.63H8.64a.85.85,0,0,0-.87.6c-.28,1.14,0,2.84.53,5l-.14.36c-.37,1-.84,2-1.25,2.9l0,.12c-.43.94-.83,1.73-1.19,2.41l-.36.22s-.66.38-.81.48a4.81,4.81,0,0,0-2.23,2.52.67.67,0,0,0,.21.68l.36.2a.94.94,0,0,0,.48.13c.9,0,1.94-1.23,3.37-4a31.1,31.1,0,0,1,5.19-1.37,8.18,8.18,0,0,0,3.77,1.33,1.84,1.84,0,0,0,.44-.05.77.77,0,0,0,.45-.34,2,2,0,0,0,.17-1.19A.85.85,0,0,0,16.5,13.81ZM3.13,19.08a7,7,0,0,1,1.76-2.34l.35-.34C4.24,18.16,3.57,18.86,3.13,19.08ZM8.79,4.68c.29,0,.45.8.46,1.55A3.36,3.36,0,0,1,8.91,7.9a9.16,9.16,0,0,1-.24-2.08S8.66,4.68,8.79,4.68ZM7.1,14.94c.2-.39.41-.81.62-1.26a23.55,23.55,0,0,0,1.09-2.63,8.59,8.59,0,0,0,1.81,2.47,2.26,2.26,0,0,0,.28.25A21.37,21.37,0,0,0,7.1,14.94Zm9.12-.09a1.2,1.2,0,0,1-.5.1,5.5,5.5,0,0,1-2.08-.7c.35,0,.67,0,.95,0a3.5,3.5,0,0,1,1.2.14C16.3,14.49,16.31,14.79,16.22,14.85Z"/><path class="cls-1" d="M17.8,4.67l-3-3.34A4.49,4.49,0,0,0,11.88,0H1.7A1.79,1.79,0,0,0,0,1.88V22.12A1.79,1.79,0,0,0,1.7,24H17.3A1.79,1.79,0,0,0,19,22.12V7.88A5.52,5.52,0,0,0,17.8,4.67Zm-4.23-2.5a1.28,1.28,0,0,1,.24.22l3,3.34A3.16,3.16,0,0,1,17,6H13.57Zm4.07,20a.36.36,0,0,1-.34.38H1.7a.36.36,0,0,1-.34-.38V1.88A.36.36,0,0,1,1.7,1.5H11.88a1.35,1.35,0,0,1,.33,0v6H17.6a1.76,1.76,0,0,1,0,.38Z"/></svg>