<svg id="Layer_1" data-name="Layer 1" xmlns="http://www.w3.org/2000/svg" viewBox="0 0 511.19 539.87"><defs><style>.cls-1{fill:#f9b418;}</style></defs><path class="cls-1" d="M528.91,260.81a18,18,0,0,1-14.53,17.55c-12.37,2.25-24.71,4.58-37.1,6.68-2.1.35-5.09,1.19-6.41-.62-1.67-2.29,1.08-3.86,2.46-5.56,7.72-9.45,15.19-19.1,23.12-28.37,4.58-5.34,12.78-9.62,20.67-6.2C523.82,247.2,528.81,253.58,528.91,260.81Z" transform="translate(-50.41 -126.06)"/><path class="cls-1" d="M68.33,365.13c9.86.95,18.7,6.35,28.36,9.08,5.46,1.55,10.63,4.08,16,6,1.61.58,3.12,1.26,2.91,3.07-.16,1.4-1.75,1.86-3,2.32-13.57,4.89-27.07,10-40.76,14.57-6.5,2.15-12.52-.75-16.67-5.52-4.93-5.64-6.31-12.55-2.65-19.74C55.69,368.62,61,365.67,68.33,365.13Z" transform="translate(-50.41 -126.06)"/><path class="cls-1" d="M304.26,126.16c10.94-1.32,21.58,11.55,16.79,23.6s-9.19,24.59-13.59,37c-.69,1.94-1.42,3.18-3.55,3.3-2.57.16-1.93-2.1-2.39-3.33-4.7-12.47-9.55-24.88-13.82-37.49A17.24,17.24,0,0,1,304.26,126.16Z" transform="translate(-50.41 -126.06)"/><path class="cls-1" d="M186.74,158.59c6.85-1.18,15.33,6.08,17.33,17.4,2.18,12.35,4,24.77,6.27,37.11.3,1.61.22,2.43-.83,3.41-1.45,1.37-2.32.21-3.37-.65-7.37-6.05-14.8-12-22.13-18.11-3.77-3.13-7.76-6.11-11-9.76-4.94-5.62-6.21-12-3-19.35C173.06,161.54,178.45,158.93,186.74,158.59Z" transform="translate(-50.41 -126.06)"/><path class="cls-1" d="M543,397c-5.67-.35-11.54-3.28-17.68-5.56-8.59-3.2-17.38-5.8-25.75-9.62-1.27-.58-3-1.18-2.91-2.25s1.49-2.49,2.62-2.89c14.45-5.13,28.7-11.12,43.54-14.69,7.78-1.88,17.36,5.19,18.62,15.67C562.68,387.73,554.61,396.49,543,397Z" transform="translate(-50.41 -126.06)"/><path class="cls-1" d="M440.77,174.58c.15,6-2.44,10.86-6.88,14.59C424,197.45,414,205.54,404,213.68c-1.1.9-1.87,3-3.83,1.75-1.69-1.07-1.81-2.65-1.42-4.69C401,198.85,403.36,187,405.18,175c2.27-14.91,15.74-23,28.22-15C439,163.57,440.44,168.68,440.77,174.58Z" transform="translate(-50.41 -126.06)"/><path class="cls-1" d="M134.36,288.13c-12.72-2.43-26.69-4.46-40.3-7.91-8.87-2.25-12.9-9.84-12.26-18.9.46-6.48,7-13.59,14.41-15.33,5.75-1.36,10.92.84,14.54,4.78,9.78,10.64,19,21.82,28.47,32.72,1.06,1.21,1.41,2.57.69,3.64C138.91,288.62,137,287.62,134.36,288.13Z" transform="translate(-50.41 -126.06)"/><path class="cls-1" d="M453.66,366.73v.48c-.54,2.81-.11,5.65-.25,8.47v2.51c.15,19.37-4.22,37.73-12.18,55.35-5.06,11.19-11.23,21.77-17.38,32.36-14.72,25.34-24.23,52.38-27.12,81.63a22.41,22.41,0,0,1-.79,5.2c-2.31,6.8-7.66,10.73-14.86,10.73q-45.56,0-91.12,0H231.54c-9.29,0-15.26-5.64-16.2-14.85C213,526,207.42,504.24,197.4,483.68c-5.51-11.31-11.79-22.2-18-33.13-10-17.73-17.5-36.33-20-56.68-.63-5-.63-10-.77-15.07v-5c-.15-2.36.3-4.75-.25-7.1v-1c.59-3.78.33-7.62.74-11.41A146.45,146.45,0,0,1,192,277.51a147.9,147.9,0,0,1,45.23-36.67A151.29,151.29,0,0,1,279,226.29c11.88-2.26,23.86-2.12,35.88-1.86a121.08,121.08,0,0,1,27.28,3.89,145.48,145.48,0,0,1,60.4,31.39,147.5,147.5,0,0,1,36.39,47,143.54,143.54,0,0,1,14.16,49.6C453.45,359.73,453.26,363.25,453.66,366.73Z" transform="translate(-50.41 -126.06)"/><path class="cls-1" d="M271.85,665.94c-3.67-1.41-7.56-2.26-10.91-4.49-8.27-5.48-12.92-13.06-13.78-23-.14-1.6.27-2,1.87-2q57,.06,113.92,0c1.59,0,2,.39,1.89,2a29.24,29.24,0,0,1-25.16,27.06c-.18,0-.33.27-.49.41Z" transform="translate(-50.41 -126.06)"/></svg>