<svg xmlns="http://www.w3.org/2000/svg" viewBox="0 0 363.55 384"><defs><style>.cls-1{fill:#f9b418;}</style></defs><g id="Layer_2" data-name="Layer 2"><g id="Layer_1-2" data-name="Layer 1"><path class="cls-1" d="M340.32,95.84A12.8,12.8,0,0,1,330,108.32c-8.79,1.6-17.57,3.26-26.38,4.75-1.5.25-3.63.85-4.56-.44-1.19-1.63.76-2.74,1.75-3.95,5.49-6.72,10.8-13.59,16.44-20.18,3.26-3.8,9.09-6.84,14.7-4.41C336.7,86.16,340.25,90.7,340.32,95.84Z"/><path class="cls-1" d="M12.72,170c7,.68,13.3,4.52,20.17,6.46,3.88,1.1,7.56,2.9,11.38,4.27,1.15.41,2.22.89,2.07,2.18-.11,1-1.24,1.32-2.13,1.65-9.66,3.48-19.26,7.11-29,10.36-4.63,1.53-8.91-.53-11.86-3.92-3.51-4-4.49-8.93-1.89-14C3.73,172.52,7.5,170.42,12.72,170Z"/><path class="cls-1" d="M180.53.07c7.78-.94,15.35,8.21,11.94,16.78s-6.53,17.49-9.66,26.32c-.49,1.38-1,2.26-2.53,2.35-1.83.11-1.37-1.5-1.7-2.37-3.34-8.87-6.79-17.7-9.83-26.67A12.25,12.25,0,0,1,180.53.07Z"/><path class="cls-1" d="M96.94,23.13c4.87-.84,10.9,4.33,12.33,12.38,1.55,8.78,2.84,17.62,4.46,26.4a2.2,2.2,0,0,1-.59,2.42c-1,1-1.65.15-2.4-.46C105.5,59.56,100.21,55.33,95,51a69.07,69.07,0,0,1-7.82-7c-3.52-4-4.42-8.53-2.14-13.76C87.21,25.23,91,23.38,96.94,23.13Z"/><path class="cls-1" d="M350.34,192.71c-4-.25-8.21-2.33-12.57-4-6.11-2.27-12.37-4.12-18.32-6.84-.9-.41-2.13-.84-2.07-1.6a3.09,3.09,0,0,1,1.86-2.05c10.28-3.65,20.42-7.91,31-10.45,5.54-1.34,12.35,3.69,13.25,11.14C364.34,186.12,358.6,192.35,350.34,192.71Z"/><path class="cls-1" d="M277.63,34.51a12.74,12.74,0,0,1-4.9,10.37c-7,5.89-14.14,11.65-21.26,17.44-.78.64-1.33,2.13-2.72,1.24-1.2-.76-1.29-1.88-1-3.33,1.6-8.46,3.28-16.89,4.57-25.42,1.62-10.61,11.2-16.36,20.07-10.67C276.37,26.68,277.39,30.31,277.63,34.51Z"/><path class="cls-1" d="M59.68,115.27c-9-1.73-19-3.17-28.66-5.62-6.31-1.6-9.18-7-8.72-13.45.33-4.61,5-9.66,10.25-10.9a10.49,10.49,0,0,1,10.34,3.4c7,7.57,13.52,15.52,20.25,23.27a2.11,2.11,0,0,1,.49,2.59C62.92,115.62,61.56,114.91,59.68,115.27Z"/><path class="cls-1" d="M286.8,171.18v.34c-.39,2-.08,4-.18,6v1.79A92.86,92.86,0,0,1,278,218.7a257,257,0,0,1-12.36,23c-10.47,18-17.23,37.25-19.29,58.06a16,16,0,0,1-.56,3.7,10.63,10.63,0,0,1-10.57,7.63H128.81c-6.61,0-10.86-4-11.53-10.56a136.27,136.27,0,0,0-12.76-46.19c-3.92-8-8.38-15.79-12.8-23.56C84.61,218.19,79.27,205,77.49,190.48c-.44-3.55-.44-7.11-.54-10.72v-3.55c-.11-1.68.21-3.38-.18-5.05v-.71c.42-2.69.23-5.42.53-8.12a104.09,104.09,0,0,1,23.38-54.61,105.17,105.17,0,0,1,32.17-26.08,107.48,107.48,0,0,1,29.71-10.35c8.45-1.61,17-1.51,25.52-1.33a85.92,85.92,0,0,1,19.41,2.77,103.42,103.42,0,0,1,43,22.33,104.79,104.79,0,0,1,25.88,33.43,102.09,102.09,0,0,1,10.07,35.28C286.65,166.2,286.51,168.7,286.8,171.18Z"/><path class="cls-1" d="M157.48,384c-2.61-1-5.38-1.61-7.76-3.19a20.87,20.87,0,0,1-9.8-16.36c-.1-1.14.19-1.43,1.33-1.43q40.53,0,81,0c1.13,0,1.42.28,1.34,1.43a20.78,20.78,0,0,1-17.9,19.24c-.12,0-.23.2-.34.3Z"/></g></g></svg>