<svg id="Capa_1" data-name="Capa 1" xmlns="http://www.w3.org/2000/svg" viewBox="0 0 33 28.98"><defs><style>.cls-1{fill:#fff;}</style></defs><path class="cls-1" d="M22,17.11l.85-3.49v0a2.44,2.44,0,0,1,1.71-1.71l2.55-.68a2.28,2.28,0,0,0-1.74-.82h-.75a11.85,11.85,0,0,0-.73-1.76l.53-.54a2.29,2.29,0,0,0,0-3.23l-1.6-1.61a2.32,2.32,0,0,0-3.24,0L19,3.78a11.67,11.67,0,0,0-1.76-.73V2.29A2.29,2.29,0,0,0,15,0H12.67a2.29,2.29,0,0,0-2.28,2.28V3a10.87,10.87,0,0,0-1.76.73l-.54-.54a2.25,2.25,0,0,0-1.61-.66,2.28,2.28,0,0,0-1.62.66L3.25,4.84a2.29,2.29,0,0,0,0,3.23l.54.54a11.67,11.67,0,0,0-.73,1.76H2.31A2.29,2.29,0,0,0,0,12.65v2.29a2.29,2.29,0,0,0,2.29,2.28h.75A11.62,11.62,0,0,0,3.79,19l-.53.54a2.29,2.29,0,0,0,0,3.23l1.61,1.61A2.25,2.25,0,0,0,6.48,25a2.28,2.28,0,0,0,1.62-.66l.54-.54a10.87,10.87,0,0,0,1.76.73v.75a2.28,2.28,0,0,0,2.28,2.28h2a3.49,3.49,0,0,1-.28-1.39,3.54,3.54,0,0,1,1.06-2.55Zm-8.13,2.81A6.13,6.13,0,1,1,20,13.8,6.13,6.13,0,0,1,13.82,19.92Z" transform="translate(-0.03 -0.01)"/><path class="cls-1" d="M32.61,14.75l0,0a.4.4,0,0,0-.26-.12.36.36,0,0,0-.27.12l-1.66,1.65a1.31,1.31,0,0,1-.95.39,1.33,1.33,0,0,1-1.34-1.34,1.31,1.31,0,0,1,.39-.95l1.65-1.65a.4.4,0,0,0,.12-.27.36.36,0,0,0-.12-.27l0,0a1.48,1.48,0,0,0-1-.43,1.5,1.5,0,0,0-.37.05l-3.4.91a1.48,1.48,0,0,0-1,1h0l-.9,3.76-6.72,6.72a2.66,2.66,0,0,0,0,3.74l.17.16a2.59,2.59,0,0,0,1.86.77h0a2.62,2.62,0,0,0,1.87-.77l6.72-6.72L31,20.6h0a1.48,1.48,0,0,0,1-1l.91-3.4A1.44,1.44,0,0,0,32.61,14.75ZM19.74,26.22a.77.77,0,0,1-.54.22.77.77,0,1,1,0-1.53.77.77,0,0,1,.54.22.75.75,0,0,1,.22.54A.8.8,0,0,1,19.74,26.22Zm4.51-4.79L21.08,24.6a.56.56,0,0,1-.4.17.57.57,0,0,1-.41-.17.56.56,0,0,1-.17-.4.57.57,0,0,1,.17-.41l3.17-3.17a.57.57,0,0,1,.41-.17.56.56,0,0,1,.4.17.57.57,0,0,1,.17.41A.56.56,0,0,1,24.25,21.43Z" transform="translate(-0.03 -0.01)"/></svg>