<svg xmlns="http://www.w3.org/2000/svg" width="63.271" height="27.898" viewBox="0 0 63.271 27.898">
  <g id="Dashboard" transform="translate(-5.9 -6.072)">
    <path id="Path_2283" data-name="Path 2283" d="M53.74,13.81V20a2.64,2.64,0,0,0,.46,1.43c2.21,3.42,4.4,6.84,6.61,10.26.23.35.22.51-.17.7a12.86,12.86,0,0,1-13-.44,12.85,12.85,0,0,1-6.45-10.18A13.45,13.45,0,0,1,52.41,7.19C53.73,7,53.73,7,53.73,8.3v5.51Z" fill="#fff"/>
    <path id="Path_2284" data-name="Path 2284" d="M69.17,20.73a14.18,14.18,0,0,1-5.26,10.93l-.15.13c-.54.41-.54.41-.9-.16q-3.18-4.93-6.38-9.87c-.21-.32-.2-.47.12-.71q5.06-3.75,10.07-7.54c.33-.24.46-.24.68.12a13.93,13.93,0,0,1,1.82,7.1Z" fill="#fff"/>
    <path id="Path_2285" data-name="Path 2285" d="M55.67,19.48A.85.85,0,0,1,55.6,19q0-6.165,0-12.32c0-.54.2-.62.65-.59a11.46,11.46,0,0,1,4.1,1.1A14.57,14.57,0,0,1,65.58,11a2.23,2.23,0,0,0,.19.24c.31.33.26.54-.12.82-3.22,2.38-6.41,4.79-9.62,7.19C55.92,19.32,55.79,19.39,55.67,19.48Z" fill="#fff"/>
    <path id="Path_2286" data-name="Path 2286" d="M33.71,9.51l-2,2.26-5.79,6.58-.11.11c-.71.75-1,.78-1.81.15-1.15-.9-2.29-1.82-3.43-2.73s-2.29-1.81-3.42-2.74a.447.447,0,0,0-.7,0c-2.85,2.7-5.72,5.38-8.57,8.07a2.66,2.66,0,0,1-.68.53.74.74,0,0,1-1.12-.66,1.64,1.64,0,0,1,.61-1.36c3-2.76,5.93-5.55,8.88-8.34h0c1-.92,1.14-.94,2.18-.11C20,13,22.22,14.8,24.42,16.58c.27.21.4.19.62-.06L32.43,8.1a2.32,2.32,0,0,0,.14-.21H30.46a11.59,11.59,0,0,1-1.32,0,.88.88,0,0,1-.9-.92c0-.48.29-.79.87-.89a2,2,0,0,1,.35,0h5c.87,0,1.15.31,1.16,1.18v5.15c0,.7-.34,1.1-.92,1.11s-.91-.38-.92-1.09V9.63Z" fill="#fff"/>
    <path id="Path_2287" data-name="Path 2287" d="M35.66,18.33c0-.82-.33-1.14-1.15-1.15H31.35c-1,0-1.26.33-1.26,1.31v7.08h0v7.24c0,.76.29,1.12,1.05,1.14H34.6c.76,0,1.06-.37,1.06-1.14Q35.68,25.57,35.66,18.33Z" fill="#fff"/>
    <path id="Path_2288" data-name="Path 2288" d="M19.54,27V21.19c0-.87-.3-1.17-1.16-1.18H15.17c-.92,0-1.2.31-1.2,1.24Q14,27,14,32.69c0,1,.31,1.27,1.29,1.27h3c1.05,0,1.33-.28,1.33-1.33V26.98Z" fill="#fff"/>
    <path id="Path_2289" data-name="Path 2289" d="M27.63,24c0-.92-.26-1.21-1.16-1.23H23.21c-1.08,0-1.21.35-1.21,1.29v8.56c0,1,.3,1.32,1.29,1.34h3.06c.92,0,1.25-.34,1.26-1.26V24Z" fill="#fff"/>
    <path id="Path_2290" data-name="Path 2290" d="M11.51,29.8V26.74c0-.82-.34-1.13-1.15-1.14H7.05c-.82,0-1.14.32-1.15,1.14v5.95c0,1,.33,1.27,1.3,1.28h3.06c.89,0,1.24-.34,1.25-1.22s0-2,0-2.95Z" fill="#fff"/>
  </g>
</svg>
