<?xml version="1.0" encoding="utf-8"?>
<!-- Generator: Adobe Illustrator 25.2.0, SVG Export Plug-In . SVG Version: 6.00 Build 0)  -->
<svg version="1.1" id="Layer_1" xmlns="http://www.w3.org/2000/svg" xmlns:xlink="http://www.w3.org/1999/xlink" x="0px" y="0px"
	 viewBox="0 0 351 387.9" style="enable-background:new 0 0 351 387.9;" xml:space="preserve">
<style type="text/css">
	.st0{fill-rule:evenodd;clip-rule:evenodd;fill:#FFFFFF;}
</style>
<path class="st0" d="M144.2,28c31.4-29.7,24.6-44.3,62.3-0.2c2.9,3.4,3.1,8.4-0.1,11.5l0,0c-3.2,3.1-8.4,3.1-11.5-0.1L183,27.2v65.5
	c0,4.3-3.5,7.7-7.8,7.8l0,0c-4.3,0-7.7-3.5-7.8-7.8V28.1l-11.9,11.6c-3.2,3.1-8.4,3.1-11.5-0.1l0,0C140.9,36.4,140.9,31.2,144.2,28
	C144.1,28.1,144.1,28,144.2,28L144.2,28z M69.5,341.8c0.3,0.8,0.4,1.7,0.4,2.6v32.5c0,4.5-3.7,8.2-8.2,8.2l0,0
	c-4.5,0-8.2-3.7-8.2-8.2v-28.6c-2-27.2,42.4-49.3,67.7-63.9c7.9-4.6,6.7-2.7,6.9-11.8l0.5-23.5c0.3-12.1-10.3-8.3-9.7-29.2l1.5-51.3
	c0.7-22.4,23.9-44,46.5-44.2c5.8,0,11.7,0,17.5,0c23.8-0.1,44.4,22,44.9,45.9c0.4,18.7,0.9,37.3,1.3,56c0.3,14.6-9.1,11.5-9.1,21.4
	c-0.1,10.9-0.1,21.7-0.2,32.6c24.2,11.8,46.3,25.7,64.8,43.7c10.2,9.9,10.3,8.2,10.3,21.8v31.6c0,13.4-16.1,14.6-16.1-0.5v-29
	c0-8.8,0.5-7.1-6.1-13.2c-17.4-16.1-36.7-28.3-57.1-38.4c-11.5-5.7-13.7-5.4-13.7-19.2v-38.5c0-6.4,9.7-5.3,9.7-18.2v-41.3
	c0-20.8-7.2-36.2-30.2-36.8c-5.3-0.1-10.5,0.1-15.8,0c-18.6-0.5-30.9,15.7-30.9,33.3v42.1c0,15.7,7.7,11.7,7.7,19.3
	c0,14.6,0.3,31.3,0.4,46.1c0,8,0.6,6.2-6.4,10.5C112,310,85.2,323.5,69.5,341.8L69.5,341.8z M28.6,144.1
	c-30.3,30.9-44.7,23.8-1.3,62.3c3.4,3,8.4,3.2,11.6,0.1l0,0c3.2-3.2,3.2-8.3,0.1-11.5L27,182.9l65.5,1.2c4.3,0.1,7.8-3.3,7.9-7.6
	l0,0c0.1-4.3-3.3-7.8-7.6-7.9l-64.6-1.2L40,155.7c3.2-3.2,3.2-8.3,0.1-11.5l0,0C37,141,31.8,140.9,28.6,144.1
	C28.6,144.1,28.6,144.1,28.6,144.1L28.6,144.1z M93.4,49.3c-43.3,0.4-48.5-14.8-45,43.1c0.3,4.5,3.6,8.2,8.1,8.2l0,0
	c4.5,0,8.2-3.6,8.2-8.1l0.1-17l45.5,47.1c3,3.1,7.9,3.2,11,0.2c0,0,0,0,0,0l0,0c3.1-3,3.2-7.9,0.2-11L76.7,65.5l16.6,0.1
	c4.5,0,8.2-3.6,8.2-8.1l0,0C101.6,53,98,49.3,93.4,49.3C93.5,49.3,93.5,49.3,93.4,49.3L93.4,49.3z M322.5,144.1
	c30.3,30.9,44.7,23.8,1.3,62.3c-3.4,3-8.3,3.2-11.5,0.1l0,0c-3.2-3.2-3.2-8.3-0.1-11.5l11.9-12.1l-65.5,1.2
	c-4.3,0.1-7.8-3.3-7.9-7.6l0,0c-0.1-4.3,3.3-7.8,7.6-7.9l64.6-1.2L311,155.7c-3.2-3.2-3.2-8.3-0.1-11.5l0,0
	C314,141,319.2,140.9,322.5,144.1C322.4,144.1,322.4,144.1,322.5,144.1z M256,48.2c43.3,0.4,48.5-14.8,45,43.1
	c-0.3,4.5-3.6,8.2-8.1,8.2l0,0c-4.5,0-8.2-3.6-8.2-8.1l-0.1-16.9l-45.5,47.1c-3,3.1-7.9,3.2-11,0.2c0,0,0,0,0,0l0,0
	c-3.1-3-3.2-7.9-0.2-11l44.9-46.5l-16.6,0.1c-4.5,0-8.2-3.6-8.2-8.1l0,0C247.8,51.9,251.4,48.2,256,48.2
	C255.9,48.1,256,48.1,256,48.2L256,48.2z"/>
</svg>
