<?xml version="1.0" encoding="utf-8"?>
<!-- Generator: Adobe Illustrator 25.2.0, SVG Export Plug-In . SVG Version: 6.00 Build 0)  -->
<svg version="1.1" id="Layer_1" xmlns="http://www.w3.org/2000/svg" xmlns:xlink="http://www.w3.org/1999/xlink" x="0px" y="0px"
	 viewBox="0 0 19 19.2" style="enable-background:new 0 0 19 19.2;" xml:space="preserve">
<style type="text/css">
	.st0{fill:#231F20;}
</style>
<path class="st0" d="M15.5,9.3c0-0.1,0-0.1,0-0.2c-0.1-0.3-0.3-0.4-0.6-0.5h-2.1c0,0,0,0,0,0H9.4v0c0-0.7,0-1.3,0-2
	c0-0.2,0-0.4-0.1-0.6C9,5,8.1,4.2,7.1,3.9c-0.1,0-0.3,0-0.4,0h0c0,0,0,0,0,0h0c0,0-0.1,0-0.1,0H6.4c0,0-0.1,0-0.1,0h0c0,0,0,0,0,0
	H6.2c-0.1,0-0.1,0-0.2,0C5.7,4,5.3,4.1,5,4.3C4.1,4.8,3.5,5.7,3.5,6.8c0,0.6,0,1.2,0,1.8c0,0.1,0,0.1,0,0.1h1.2c0,0,0,0,0,0V6.9
	c0-1,0.8-1.8,1.8-1.8C7.3,5,8,5.6,8.2,6.4c0,0.1,0,0.3,0,0.4v1.7h-1C6.9,8.7,6.6,9,6.6,9.3v5.2c0,0.4,0.3,0.7,0.6,0.7h7.7
	c0,0,0.1,0,0.1,0c0.3-0.1,0.5-0.4,0.5-0.7C15.5,12.8,15.5,11.1,15.5,9.3z M11.5,12.1C11.5,12.1,11.5,12.1,11.5,12.1
	c-0.1,0.3-0.1,0.4-0.1,0.6v0.5c0,0.1,0,0.1-0.1,0.1h-0.5c-0.1,0-0.1,0-0.1-0.1v-1.1c0,0,0-0.1-0.1-0.1c-0.4-0.2-0.6-0.8-0.3-1.2
	c0.2-0.4,0.8-0.6,1.2-0.3c0.4,0.2,0.6,0.8,0.3,1.2C11.8,11.9,11.7,12,11.5,12.1L11.5,12.1z"/>
</svg>
