<?xml version="1.0" encoding="utf-8"?>
<!-- Generator: Adobe Illustrator 25.2.0, SVG Export Plug-In . SVG Version: 6.00 Build 0)  -->
<svg version="1.1" id="Layer_1" xmlns="http://www.w3.org/2000/svg" xmlns:xlink="http://www.w3.org/1999/xlink" x="0px" y="0px"
	 viewBox="0 0 512 512" style="enable-background:new 0 0 512 512;" xml:space="preserve">
<style type="text/css">
	.st0{fill:#939598;}
	.st1{fill:#FFFFFF;}
</style>
<g>
	<path d="M256,469.3c-117.6,0-213.3-95.7-213.3-213.3S138.4,42.7,256,42.7S469.3,138.4,469.3,256S373.6,469.3,256,469.3z"/>
	<path class="st0" d="M340,251.5c0-1.3-0.2-2.6-0.6-3.8c-1.8-5.3-6.8-8.9-12.4-8.9h-12.7c-1.9,0-1.9,0-1.9-1.9
		c-0.1-12,0.3-24.1-0.2-36.1c-0.2-3.4-0.7-6.7-1.6-10c-5.2-19.2-20.6-33.9-40-38.1c-2.4-0.4-4.7-0.7-7.1-0.9h-0.7
		c-0.1,0.1-0.3,0.1-0.4,0c0,0,0,0,0,0h-0.9c-0.5,0.2-1,0.2-1.5,0h-1.2c-0.5,0.2-1,0.2-1.5,0h-0.9c-0.1,0.1-0.3,0.1-0.4,0
		c0,0,0,0,0,0h-0.9c-1.1,0.2-2.2,0.1-3.2,0.3c-6.5,0.8-12.7,3-18.4,6.2c-16.5,9.3-26.8,26.6-27.1,45.5c-0.1,11.2,0,22.4,0,33.6
		c0,1.4,0,1.5-1.5,1.5c-4.3,0-8.6,0.1-13,0c-6.8-0.2-13.7,5.9-13.2,13.1v95.3c-0.2,4.2,1.8,8.1,5.1,10.5c1.7,1.3,3.7,2.1,5.8,2.4
		h138.9c0.9-0.2,1.8-0.2,2.7-0.5c5.1-1.8,8.6-6.6,8.7-12C339.9,315.7,339.9,283.6,340,251.5z M267.7,301.6c-0.7,0.3-1.1,1-1,1.7
		c0.1,3.2,0,6.4,0,9.6v9.5c0,1.7-0.5,2.3-2.3,2.3h-10c-1.7,0-2.3-0.5-2.3-2.3v-19.2c0.1-0.7-0.3-1.3-0.9-1.5
		c-7.7-4.5-10.2-14.4-5.7-22.1s14.4-10.2,22.1-5.7c7.7,4.5,10.2,14.4,5.7,22.1C271.9,298.3,270,300.3,267.7,301.6L267.7,301.6z
		 M290.7,239.2c-10.5,0-21,0-31.4,0H228c-1,0-1.1-0.3-1.1-1.2v-32.2c-0.3-17.9,14-32.7,31.9-32.9c15.4-0.2,28.8,10.3,32.1,25.3
		c0.5,2.5,0.8,5,0.8,7.5v32.4C291.8,239,291.5,239.2,290.7,239.2L290.7,239.2z"/>
	<path class="st1" d="M333.2,251.5c0-1.3-0.2-2.6-0.6-3.8c-1.8-5.3-6.8-8.8-12.4-8.9h-12.7c-1.9,0-1.9,0-1.9-1.9
		c-0.1-12,0.3-24.1-0.2-36.1c-0.2-3.4-0.7-6.7-1.6-10c-5.2-19.2-20.6-33.9-40-38.1c-2.4-0.4-4.7-0.7-7.1-0.9H256
		c-0.1,0.1-0.3,0.1-0.4,0c0,0,0,0,0,0h-0.9c-0.5,0.2-1,0.2-1.5,0H252c-0.5,0.2-1,0.2-1.5,0h-0.9c-0.1,0.1-0.3,0.1-0.4,0c0,0,0,0,0,0
		h-0.9c-1.1,0.2-2.2,0.1-3.2,0.3c-6.5,0.8-12.7,3-18.4,6.2c-16.5,9.3-26.8,26.6-27.1,45.5c-0.1,11.2,0,22.4,0,33.6
		c0,1.4,0,1.5-1.5,1.5c-4.3,0-8.6,0.1-12.9,0c-6.8-0.2-13.7,5.9-13.2,13.1v95.3c-0.2,4.2,1.8,8.1,5.1,10.5c1.7,1.3,3.7,2.1,5.8,2.4
		h138.9c0.9-0.2,1.8-0.2,2.7-0.5c5.1-1.8,8.6-6.6,8.7-12C333.2,315.7,333.2,283.6,333.2,251.5z M260.9,301.6c-0.7,0.3-1.1,1-1,1.7
		c0.1,3.2,0,6.4,0,9.6v9.5c0,1.7-0.5,2.3-2.3,2.3h-10c-1.7,0-2.3-0.5-2.3-2.3v-19.2c0.1-0.7-0.3-1.3-0.9-1.5
		c-7.7-4.5-10.2-14.4-5.7-22.1s14.4-10.2,22.1-5.7c7.7,4.5,10.2,14.4,5.7,22.1C265.1,298.3,263.2,300.3,260.9,301.6L260.9,301.6z
		 M284,239.2c-10.5,0-21,0-31.4,0h-31.2c-1,0-1.1-0.3-1.1-1.2v-32.2c-0.3-17.9,14-32.7,31.9-32.9c15.4-0.2,28.8,10.3,32.1,25.3
		c0.5,2.5,0.8,5,0.8,7.5v32.4C285.1,239,284.8,239.2,284,239.2L284,239.2z"/>
</g>
</svg>
