<svg id="Layer_1" data-name="Layer 1" xmlns="http://www.w3.org/2000/svg" viewBox="0 0 415 437.31"><defs><style>.cls-1{fill:#fff;}</style></defs><path class="cls-1" d="M398,102.5H383.5v18.69a12.5,12.5,0,1,1-25,0V102.5h-17v18.69a12.5,12.5,0,1,1-25,0V102.5h-117v18.69a12.5,12.5,0,1,1-25,0V102.5h-17v18.69a12.5,12.5,0,1,1-25,0V102.5H118.18c-4.61,0-10.68,1.54-10.68,6.16V434.42c0,4.61,6.07,11.08,10.68,11.08H398c4.61,0,6.5-6.47,6.5-11.08V108.66C404.5,104,402.61,102.5,398,102.5Zm-14.5,284h-251v-16h251Zm0-41h-251v-17h251Zm0-42h-251v-17h251Zm0-42h-251v-17h251Zm0-42h-251v-17h251Z" transform="translate(-90.5 -50.19)"/><rect class="cls-1" x="42" y="194.31" width="251" height="17"/><rect class="cls-1" x="42" y="152.31" width="251" height="17"/><rect class="cls-1" x="42" y="236.31" width="251" height="17"/><rect class="cls-1" x="42" y="278.31" width="173.5" height="17"/><rect class="cls-1" x="42" y="320.31" width="173.5" height="16"/><path class="cls-1" d="M325.42,445.5H118.18c-4.61,0-10.68-6.47-10.68-11.08V108.66c0-4.62,6.07-6.16,10.68-6.16H132.5v18.69a12.5,12.5,0,1,0,25,0V102.5h17v18.69a12.5,12.5,0,1,0,25,0V102.5h117v18.69a12.5,12.5,0,1,0,25,0V102.5h17v18.69a12.5,12.5,0,1,0,25,0V102.5H398c4.61,0,6.5,1.54,6.5,6.16V295c3.13-.29,6.3-.45,9.5-.45,2.52,0,5,.1,7.5.28V108.66c0-13.84-9.66-23.16-23.5-23.16H383.5V62.72a12.5,12.5,0,1,0-25,0V85.5h-17V62.72a12.5,12.5,0,1,0-25,0V85.5h-117V62.72a12.5,12.5,0,1,0-25,0V85.5h-17V62.72a12.5,12.5,0,1,0-25,0V85.5H118.18c-13.84,0-27.68,9.32-27.68,23.16V434.42c0,13.84,13.84,28.08,27.68,28.08h219.2A102.16,102.16,0,0,1,325.42,445.5Z" transform="translate(-90.5 -50.19)"/><circle class="cls-1" cx="323.5" cy="345.81" r="91.5"/><path d="M424.26,340.33V386H468v19.68H424.26v46.05H403.75V405.63H360V386h43.75V340.33Z" transform="translate(-90.5 -50.19)"/></svg>