<svg id="Layer_1" data-name="Layer 1" xmlns="http://www.w3.org/2000/svg" viewBox="0 0 29 25.58"><defs><style>.cls-1,.cls-4{fill:#fff;}.cls-2{fill:none;stroke:#231f20;stroke-miterlimit:10;stroke-width:0.5px;}.cls-3{fill:#231f20;}.cls-4{font-size:6.85px;font-family:MyriadPro-Bold, Myriad Pro;font-weight:700;}</style></defs><path class="cls-1" d="M29,8.15c0-.43-.05-.48-.49-.48H25.89c-.43,0-.43,0-.43-.42,0-.72,0-1.45,0-2.17,0-.33-.06-.39-.39-.4H19.92a.78.78,0,0,1-.64-.26L16.87,2a1.69,1.69,0,0,0-.38-.28H5.36c-.12.14-.08.3-.08.46q0,9.29,0,18.58c0,.09,0,.19,0,.28a.26.26,0,0,0,.27.27H8.49c.31,0,.33,0,.33.33v2.1c0,.54,0,.56.55.56H12c.32,0,.34,0,.34.34v2.27c0,.36,0,.38.38.38H28.76a.19.19,0,0,0,.23-.2,1.7,1.7,0,0,0,0-.22ZM10.7,22.72c-.23,0-.32,0-.3-.29a8.85,8.85,0,0,0,0-1c0-.15,0-.19.2-.19h11c.23,0,.28-.06.28-.29,0-4.51,0-9,0-13.54A.54.54,0,0,0,21.7,7c-.23-.2-.44-.43-.71-.69h2.74c.11,0,.15,0,.14.14a.75.75,0,0,0,0,.15V22.42c0,.24-.05.3-.29.3ZM27.37,17.5q0,4,0,8c0,.2,0,.28-.26.28H14.19c-.22,0-.27-.06-.26-.28a7.85,7.85,0,0,0,0-1c0-.2,0-.26.25-.26h11c.21,0,.25,0,.25-.26q0-7.2,0-14.39c0-.24.05-.31.3-.3q.74,0,1.47,0c.19,0,.23.05.23.23Q27.37,13.51,27.37,17.5Z" transform="translate(0 -1.71)"/><line class="cls-2" x1="9.4" y1="8.55" x2="16.31" y2="8.55"/><line class="cls-2" x1="9.4" y1="10.06" x2="16.31" y2="10.06"/><line class="cls-2" x1="9.4" y1="11.57" x2="16.31" y2="11.57"/><line class="cls-2" x1="9.4" y1="13.07" x2="16.31" y2="13.07"/><circle class="cls-3" cx="4.45" cy="15.23" r="4.45"/><text class="cls-4" transform="translate(2.41 17.23)">+</text></svg>