<svg id="Layer_1" data-name="Layer 1" xmlns="http://www.w3.org/2000/svg" viewBox="0 0 22 26.86"><defs><style>.cls-1{fill:#fff;}</style></defs><path class="cls-1" d="M20.44,3.48h-1V4.7a.83.83,0,0,1-1.66,0V3.48H16.68V4.7A.83.83,0,0,1,15,4.7V3.48H7.24V4.7a.83.83,0,0,1-1.66,0V3.48H4.45V4.7a.83.83,0,0,1-1.66,0V3.48H1.84c-.31,0-.71.1-.71.4V25.1a.87.87,0,0,0,.71.72h18.6c.3,0,.43-.42.43-.72V3.88C20.87,3.58,20.74,3.48,20.44,3.48Zm-1,18.5H2.79v-1H19.47Zm0-2.67H2.79V18.2H19.47Zm0-2.74H2.79V15.46H19.47Zm0-2.73H2.79V12.73H19.47Zm0-2.74H2.79V10H19.47Z" transform="translate(0 -0.07)"/><rect class="cls-1" x="2.79" y="12.66" width="16.68" height="1.11"/><rect class="cls-1" x="2.79" y="9.92" width="16.68" height="1.11"/><rect class="cls-1" x="2.79" y="15.39" width="16.68" height="1.11"/><rect class="cls-1" x="2.79" y="18.13" width="16.68" height="1.11"/><rect class="cls-1" x="2.79" y="20.87" width="16.68" height="1.04"/><path class="cls-1" d="M20.44,2.37h-1V.89a.83.83,0,0,0-1.66,0V2.37H16.68V.89A.83.83,0,0,0,15,.89V2.37H7.24V.89a.83.83,0,0,0-1.66,0V2.37H4.45V.89a.83.83,0,0,0-1.66,0V2.37H1.84A1.71,1.71,0,0,0,0,3.88V25.1a2,2,0,0,0,1.84,1.83h18.6A1.74,1.74,0,0,0,22,25.1V3.88A1.46,1.46,0,0,0,20.44,2.37Zm.43,22.73c0,.3-.13.72-.43.72H1.84a.87.87,0,0,1-.71-.72V3.88c0-.3.4-.4.71-.4h1V4.7a.83.83,0,0,0,1.66,0V3.48H5.58V4.7a.83.83,0,0,0,1.66,0V3.48H15V4.7a.83.83,0,0,0,1.66,0V3.48h1.13V4.7a.83.83,0,0,0,1.66,0V3.48h1c.3,0,.43.1.43.4Z" transform="translate(0 -0.07)"/></svg>