<svg id="Layer_1" data-name="Layer 1" xmlns="http://www.w3.org/2000/svg" viewBox="0 0 33 33.01"><defs><style>.cls-1{fill:#fff;}</style></defs><path class="cls-1" d="M17.28,4.49c.37-.38.23-.54-.08-.8s-.53-.54-.79-.8l-.31-.28c-.21.23-.4.43-.57.63s.06.3.16.41c.25.28.54.52.79.8S16.91,4.87,17.28,4.49Z" transform="translate(-0.02 -0.01)"/><path class="cls-1" d="M14.53,10.69c.44,0,.4-.25.39-.53s.09-.58-.38-.53a5,5,0,0,1-.67,0h-.3c-.34,0-.78-.18-.79.52s.41.52.77.53S14.2,10.66,14.53,10.69Z" transform="translate(-0.02 -0.01)"/><path class="cls-1" d="M22.52,2.11c.27.05.64.12.8,0s.05-.61.1-.88,0-.35,0-.5c0-.38.08-.71-.54-.7s-.51.32-.5.67,0,.66,0,1S22.28,2.07,22.52,2.11Z" transform="translate(-0.02 -0.01)"/><path class="cls-1" d="M32.66,9.63c-.48,0-.95,0-1.43,0-.26,0-.32.1-.34.36-.1,1,.61.64,1.08.69h.68c.46,0,.34-.34.36-.58S33.07,9.61,32.66,9.63Z" transform="translate(-0.02 -0.01)"/><path class="cls-1" d="M29.27,3c-.27.26-.53.53-.79.81-.11.11-.32.2-.15.42s.31.46.57.87c.5-.59.8-1,1.16-1.35s.26-.51,0-.84S29.5,2.79,29.27,3Z" transform="translate(-0.02 -0.01)"/><path class="cls-1" d="M14.4,23.43c-.52,0-.53.23-.55.63s.2.48.56.42c.41.1.53-.08.53-.5S14.82,23.45,14.4,23.43Z" transform="translate(-0.02 -0.01)"/><path class="cls-1" d="M16.48,23.43c-.48,0-.51.19-.51.57s0,.61.54.48c.42.14.54-.06.55-.52S16.87,23.46,16.48,23.43Z" transform="translate(-0.02 -0.01)"/><path class="cls-1" d="M23,24.47c.55.22.41-.21.45-.53s-.16-.5-.55-.51-.5.2-.52.58S22.54,24.56,23,24.47Z" transform="translate(-0.02 -0.01)"/><path class="cls-1" d="M16.5,25.56c-.45,0-.52.16-.53.56s.13.6.55.49c.47.12.52-.12.54-.52S16.9,25.58,16.5,25.56Z" transform="translate(-0.02 -0.01)"/><path class="cls-1" d="M22.89,26.61c.37.12.56,0,.53-.42s.07-.67-.47-.63c-.35,0-.63,0-.6.51S22.4,26.72,22.89,26.61Z" transform="translate(-0.02 -0.01)"/><path class="cls-1" d="M16.55,27.69c-.38,0-.59.07-.58.53s.08.58.52.55.68,0,.54-.48C17.1,27.89,17,27.66,16.55,27.69Z" transform="translate(-0.02 -0.01)"/><path class="cls-1" d="M18.64,27.7c-.4,0-.56.11-.55.55s.09.62.58.47c.44.19.5,0,.51-.47S19.07,27.69,18.64,27.7Z" transform="translate(-0.02 -0.01)"/><path class="cls-1" d="M20.78,27.69c-.43,0-.57.13-.56.56s.07.56.49.52.7,0,.57-.5C21.38,27.86,21.23,27.7,20.78,27.69Z" transform="translate(-0.02 -0.01)"/><path class="cls-1" d="M22.94,27.7c-.37,0-.6,0-.59.52s.1.62.54.52c.36.08.6,0,.54-.43C23.39,28,23.49,27.65,22.94,27.7Z" transform="translate(-0.02 -0.01)"/><path class="cls-1" d="M22.41,3.26a6.43,6.43,0,0,0-5.92,4.25,5.91,5.91,0,0,0,1.29,6.83A4.16,4.16,0,0,1,19.18,18c0,.22,0,.45,0,.68a3.28,3.28,0,0,0,3.77,3.67h.33a3.11,3.11,0,0,0,3.34-3.28c0-.71,0-1.42,0-2.13a2.46,2.46,0,0,1,.92-2,6.3,6.3,0,0,0,2.2-6A6.73,6.73,0,0,0,22.41,3.26Zm-1.84,17h4.69A3.07,3.07,0,0,1,20.57,20.31Zm4.55-1.11c-.75-.05-1.51,0-2.26,0s-1.46,0-2.19,0c-.48,0-.45-.22-.45-.54s0-.56.46-.55c1.48,0,3,0,4.45,0,.49,0,.44.24.45.55S25.61,19.24,25.12,19.2ZM27,13.94h0a3.52,3.52,0,0,0-1.44,2.84c0,.33-.2.28-.4.28H21.84a3.94,3.94,0,0,1-1.42,0c-.48-.2-.1-.8-.26-1.22a3.31,3.31,0,0,0-1-1.5,5.53,5.53,0,0,1-1.06-7.63A5.94,5.94,0,0,1,26,5.11,5.5,5.5,0,0,1,27,13.94Z" transform="translate(-0.02 -0.01)"/><path class="cls-1" d="M10.86,26.65c-1.31,0-2.62,0-3.93,0-.43,0-.57-.12-.54-.54,0-.66,0-1.31,0-2V22.26c0-.85-.17-1-1-.92A5.9,5.9,0,0,0,.19,28.6,5.83,5.83,0,0,0,6.47,33a5.92,5.92,0,0,0,5.26-5.44C11.77,26.9,11.52,26.63,10.86,26.65Zm-.34,1.69A4.84,4.84,0,0,1,6,32a4.79,4.79,0,0,1-1.46-9.4c.56-.16.85-.11.78.59s0,1.25,0,1.89a16.62,16.62,0,0,1,0,1.73c-.08.77.27,1,1,.94,1.24,0,2.47,0,3.71,0C10.61,27.65,10.6,27.94,10.52,28.34Z" transform="translate(-0.02 -0.01)"/><path class="cls-1" d="M7.65,19.76c-.51,0-.74.21-.73.72,0,1.64,0,3.27,0,4.91,0,.55.27.76.8.74.81,0,1.61,0,2.42,0s1.61,0,2.42,0c.51,0,.71-.2.73-.72A5.84,5.84,0,0,0,7.65,19.76Zm4,5.31c-1,0-2,0-3,0-.54,0-.75-.21-.68-.77a11.37,11.37,0,0,0,0-1.43H8V21.81c0-1.07,0-1.12,1-.75a4.71,4.71,0,0,1,3.11,3.4C12.18,24.87,12.16,25.08,11.66,25.07Z" transform="translate(-0.02 -0.01)"/><path class="cls-1" d="M23.44,6.76c-.26-.31-.59-.5-.9-.16-.92,1-1.82,2.1-2.68,3.19a.5.5,0,0,0,.39.86c1.18-.2,1.11.5,1.05,1.26,0,.33,0,.66,0,1,0,.6,0,1.21,0,1.82s.2.74.72.72,1.11,0,1.66,0,.83-.18.8-.79c0-1,0-1.92,0-2.87,0-.72,0-1.26,1-1.12.63.08.85-.43.44-.94C25.09,8.72,24.26,7.74,23.44,6.76Zm0,4c0,1,0,2,0,3,0,.35,0,.63-.49.62s-.64-.16-.62-.66c.05-1,0-2.11,0-3.17,0-.9,0-.9-.86-1a.28.28,0,0,1,0-.13c1.36-1.88,1.39-1.87,2.82.13C23.4,9.53,23.4,10.13,23.42,10.8Z" transform="translate(-0.02 -0.01)"/></svg>