<svg id="Layer_1" data-name="Layer 1" xmlns="http://www.w3.org/2000/svg" viewBox="0 0 28 23.02"><defs><style>.cls-1{fill:#fff;}</style></defs><path class="cls-1" d="M27.57,20.63c.31,0,.42-.12.43-.43v-.15c0-2.32,0-4.65,0-7V9.5c0-.4,0-.43-.44-.44-.23,0-.31-.09-.31-.32v-1c0-.36.08-.44.44-.43.1,0,.2,0,.25-.1a.48.48,0,0,0,0-.48c-.06-.14-.19-.12-.32-.12H12.21c-.06,0-.13,0-.21,0a4.28,4.28,0,0,1,.45.4.84.84,0,0,0,.67.26c.4,0,.49.09.48.49a.9.9,0,0,0,.18.65,8.94,8.94,0,0,1,.66.95.73.73,0,0,0,.74.39H26.63c.39,0,.46.06.46.46v9.24a.29.29,0,0,1-.32.32H15a.59.59,0,0,0-.56.31c-.1.2-.25.38-.37.58-.24.36-.57.68-.5,1.18,0,.27-.07.38-.3.4a1.23,1.23,0,0,0,.14-.57V14.11a1.33,1.33,0,0,0-.37-.9,1.29,1.29,0,0,0-.91-.37h-.82V11.27a2.53,2.53,0,0,0-.27-1,2,2,0,0,0-.65-.76A4.46,4.46,0,0,0,7.7,8.93H2a1.05,1.05,0,0,1-.75-.32A1,1,0,0,1,1,7.87v-3a1.08,1.08,0,0,1,.31-.75A1.07,1.07,0,0,1,2,3.77h.27v.65a2,2,0,0,0,.59,1.41,2,2,0,0,0,1.41.59H17.4a2,2,0,0,0,1.41-.59,2,2,0,0,0,.59-1.41V3.85h.67V2.91h-.69V2a2,2,0,0,0-2-2H4.27a2,2,0,0,0-2,2v.83H2a2,2,0,0,0-1.41.59A2,2,0,0,0,0,4.82v3a2,2,0,0,0,2,2H7.7a3.74,3.74,0,0,1,2.17.37,1.24,1.24,0,0,1,.36.42,2,2,0,0,1,.17.66v1.53H9.65a1.31,1.31,0,0,0-.9.37,1.25,1.25,0,0,0-.37.9v7.64a1.29,1.29,0,0,0,.37.9,1.27,1.27,0,0,0,.9.37h18c.27,0,.35-.08.35-.36s-.07-.34-.36-.34-.44-.09-.45-.42,0-.57,0-.87S27.25,20.65,27.57,20.63Zm-11-11.85c0,.16-.1.24-.26.24h-1a.21.21,0,0,1-.23-.23V7.71a.25.25,0,0,1,.29-.28h1a.24.24,0,0,1,.27.25C16.6,8.05,16.6,8.42,16.59,8.78Zm3.05-.55v.54h0a.23.23,0,0,1-.25.26h-1c-.17,0-.26-.08-.26-.25,0-.35,0-.71,0-1.06s.08-.28.29-.29h.94c.21,0,.28.08.29.29S19.64,8.06,19.64,8.23Zm3,.52h0q0,.27-.3.27h-.94c-.18,0-.28-.08-.28-.27V8.21h0v-.5a.25.25,0,0,1,.28-.28h1c.18,0,.28.09.28.26C22.69,8.05,22.69,8.4,22.68,8.75ZM25.46,9h-1a.25.25,0,0,1-.28-.27V7.68a.24.24,0,0,1,.27-.25h1a.25.25,0,0,1,.26.26q0,.56,0,1.08A.24.24,0,0,1,25.46,9ZM3.23,2a1.08,1.08,0,0,1,.31-.75A1.07,1.07,0,0,1,4.29,1H17.4a1.06,1.06,0,0,1,.74.31,1,1,0,0,1,.32.75V4.45A1.08,1.08,0,0,1,17.4,5.51H4.29a1.08,1.08,0,0,1-.75-.31,1.07,1.07,0,0,1-.31-.75ZM9.41,22a.39.39,0,0,1-.09-.23V14.13a.34.34,0,0,1,.09-.23.35.35,0,0,1,.24-.1h2.5a.34.34,0,0,1,.23.1.33.33,0,0,1,.1.23v7.64a.33.33,0,0,1-.1.23.34.34,0,0,1-.23.1H9.65A.37.37,0,0,1,9.41,22Zm7.19,0a.25.25,0,0,1-.28.27h-1c-.21,0-.29-.07-.29-.29v-.52h0c0-.18,0-.37,0-.56a.22.22,0,0,1,.26-.23h1a.24.24,0,0,1,.27.25C16.6,21.3,16.6,21.66,16.6,22Zm2.78.27h-1a.24.24,0,0,1-.26-.26v-1.1c0-.16.1-.24.27-.25h1a.24.24,0,0,1,.27.27V22A.24.24,0,0,1,19.38,22.29Zm3.3-.31c0,.21-.09.3-.3.3h-.94c-.19,0-.28-.1-.29-.31V21c0-.22.08-.3.29-.3h.92c.21,0,.3.09.3.28s0,.35,0,.52A3,3,0,0,1,22.68,22Zm3.05.05a.24.24,0,0,1-.27.26h-1A.25.25,0,0,1,24.2,22V20.93a.24.24,0,0,1,.26-.26h1a.24.24,0,0,1,.26.25c0,.38,0,.75,0,1.11Z" transform="translate(0 0.01)"/><path class="cls-1" d="M21.82,19.28H20.16V13A5.68,5.68,0,0,1,18,14.28V12.77a4.69,4.69,0,0,0,1.41-.8,3,3,0,0,0,1-1.38h1.35Z" transform="translate(0 0.01)"/></svg>