<svg id="stock-vector-vector-icon-of-snapshot-camera-with-flash-330748034_Image" data-name="stock-vector-vector-icon-of-snapshot-camera-with-flash-330748034 Image" xmlns="http://www.w3.org/2000/svg" viewBox="0 0 35 24.97"><defs><style>.cls-1{fill:#fff;}</style></defs><path class="cls-1" d="M34.93,5.42s0,0,0,0a4.59,4.59,0,0,0-.5-.24A1.15,1.15,0,0,1,34,5l-.5-.23c-.32-.17-.65-.32-1-.5a3.48,3.48,0,0,1-.38-.2,1.32,1.32,0,0,1-.41-.37,1,1,0,0,1-.31-.6c0-.35-.21-.65-.24-1,0-.18-.13-.33-.14-.51A.85.85,0,0,0,31,1.19a.65.65,0,0,1,0-.19,1,1,0,0,0-.08-.37,1.91,1.91,0,0,1-.1-.34c0-.25-.17-.32-.41-.23s-.4.19-.61.29L28.4.94c-.3.14-.61.26-.9.42l-.13,0a2.08,2.08,0,0,1-1.22-.25C25.77.94,25.38.78,25,.59S24.17.24,23.78,0a.15.15,0,0,0-.2,0,.55.55,0,0,0-.19.21,2.22,2.22,0,0,0-.09.37c-.12.5-.25,1-.37,1.5a9.51,9.51,0,0,1-.27,1,1.47,1.47,0,0,1-.73.87c-.68.37-1.39.7-2.09,1a6.63,6.63,0,0,0-.59.31.25.25,0,0,0-.05.41l.32.4c.45.62.93,1.21,1.4,1.81a1.44,1.44,0,0,1,.29,1.51l0,.13a4.85,4.85,0,0,1-.09.55c0,.19-.12.36-.15.54a12.26,12.26,0,0,1-.28,1.34c-.08.29,0,.45.34.45h2.5a2,2,0,0,1,.85.13,1.42,1.42,0,0,1,.51.32,4.72,4.72,0,0,1,.41.48c.27.28.5.59.75.9s.41.47.59.73a1.33,1.33,0,0,0,.29.29.26.26,0,0,0,.38,0l0,0c.28-.31.53-.63.8-1a5.15,5.15,0,0,0,.47-.56,2.06,2.06,0,0,1,.35-.43c.16-.16.33-.32.48-.49a.69.69,0,0,1,.4-.24,3.33,3.33,0,0,1,1.33-.11c.68,0,1.35,0,2,0,.24,0,.35-.11.32-.35a2,2,0,0,0-.09-.48c-.09-.23-.08-.47-.16-.7s-.09-.62-.19-.92-.09-.4-.14-.6a2.11,2.11,0,0,1,0-.83A1.36,1.36,0,0,1,33.24,8a7.25,7.25,0,0,0,.54-.7c.18-.28.42-.51.62-.79s.36-.47.54-.7A.28.28,0,0,0,34.93,5.42ZM31.3,6.7h0a.16.16,0,0,1,0,.07,4.84,4.84,0,0,0-.57.7c-.17.19-.3.4-.46.6,0,0,0,.11-.06.15a3.66,3.66,0,0,0,.09.81,4.15,4.15,0,0,1,.16.78.68.68,0,0,1,0,.28c0,.19,0,.24-.23.24H28.65a.65.65,0,0,0-.35.2,7.77,7.77,0,0,0-.83,1,2.8,2.8,0,0,1-.28.31.17.17,0,0,1-.24,0l0,0-.15-.17c-.29-.37-.59-.73-.92-1.08a.69.69,0,0,0-.56-.24c-.46,0-.93,0-1.39,0-.11,0-.21,0-.26-.13s0-.05,0-.08c.09-.25.08-.51.16-.76a3,3,0,0,0,.14-1.15.61.61,0,0,0-.21-.39c-.2-.23-.35-.5-.58-.72s-.17-.28-.28-.41a.13.13,0,0,1,0-.18.12.12,0,0,1,.08,0c.33-.13.62-.32.94-.47a1.73,1.73,0,0,0,.74-.48A1,1,0,0,0,24.78,5a.59.59,0,0,1,0-.19c.09-.31.15-.63.25-.94s.15-.27.35-.16.63.28.95.45a.22.22,0,0,0,.14,0,.21.21,0,0,1,.17.07.62.62,0,0,0,.71.07c.44-.2.89-.38,1.31-.62.24-.13.37-.05.38.23a.86.86,0,0,0,.05.23,1.05,1.05,0,0,1,.08.35,2.55,2.55,0,0,0,.15.54s0,0,0,.06c0,.38.25.55.5.72a4.05,4.05,0,0,0,.62.32c.12,0,.21.15.34.17s.24.17.37.23S31.33,6.62,31.3,6.7Z" transform="translate(-0.02 0)"/><path class="cls-1" d="M28.35,16.07a1.59,1.59,0,0,1-.4.42,1.84,1.84,0,0,1-1.28.2.71.71,0,0,1-.28-.09,3.7,3.7,0,0,1-1-1c-.27-.37-.57-.69-.84-1.05-.19-.21-.4-.42-.61-.62a.33.33,0,0,0-.28-.11H20.86a1.43,1.43,0,0,1-1.12-.54,1.24,1.24,0,0,1-.28-.53A6.33,6.33,0,0,1,19.67,11c0-.25.11-.49.17-.74a3.31,3.31,0,0,1,.08-.55A1.65,1.65,0,0,0,20,9,.23.23,0,0,0,20,8.77a6.94,6.94,0,0,1-.6-.74c-.16-.2-.31-.39-.46-.6s-.37-.5-.57-.74a1.21,1.21,0,0,1-.38-.93c0-.13,0-.27,0-.4s0-.14-.14-.14H15.3c-.08,0-.17,0-.21-.09a1.49,1.49,0,0,1-.09-.3,1.74,1.74,0,0,0-.34-.42,3.65,3.65,0,0,0-.45-.32A2,2,0,0,0,13.44,4H7.86A1.49,1.49,0,0,0,6.44,5a.32.32,0,0,1-.18.24s-.11,0-.16,0H3.26A3,3,0,0,0,2,5.39a3.33,3.33,0,0,0-.93.54A3,3,0,0,0,.2,7.12a1.89,1.89,0,0,0-.17.7V22.43a.33.33,0,0,0,0,.14,3,3,0,0,0,.5,1.1,3.09,3.09,0,0,0,1.39,1.11,3.12,3.12,0,0,0,1,.2C4,25,5,25,6.06,25H26.28a3.17,3.17,0,0,0,1.33-.64,3.3,3.3,0,0,0,.83-1,2.41,2.41,0,0,0,.3-1c0-2.18,0-4.37,0-6.56,0,0,0-.09,0-.13C28.59,15.78,28.46,15.92,28.35,16.07Zm-11.68.41a5.15,5.15,0,0,1-.09.8h0a3.52,3.52,0,0,1-.21.77,6,6,0,0,1-.78,1.51,7.27,7.27,0,0,1-1.25,1.29,5,5,0,0,1-1.55.86,7.34,7.34,0,0,1-.89.24,7.1,7.1,0,0,1-1.59.12L9.85,22a5.85,5.85,0,0,1-1.3-.37,7.78,7.78,0,0,0-1-.44.33.33,0,0,1-.16-.12c-.4-.39-.8-.78-1.19-1.19a5.34,5.34,0,0,1-.76-1.17A8.14,8.14,0,0,1,4.84,17a.24.24,0,0,1,0-.12c0-.28,0-.56,0-.84a4.34,4.34,0,0,1,.27-1.75,6.06,6.06,0,0,1,.77-1.55,6.41,6.41,0,0,1,1.61-1.55,5.38,5.38,0,0,1,1.11-.59,4.2,4.2,0,0,1,1.78-.36,3,3,0,0,0,.6,0,4.37,4.37,0,0,1,1.75.31l.19.06a5.73,5.73,0,0,1,1.5.86,7,7,0,0,1,1,1,4.18,4.18,0,0,1,.45.65c.13.24.26.48.37.73a7.3,7.3,0,0,1,.26.79c.06.21.06.43.11.64A6.13,6.13,0,0,1,16.67,16.48Z" transform="translate(-0.02 0)"/><path class="cls-1" d="M15,14.91A3.16,3.16,0,0,0,14.6,14a4.81,4.81,0,0,0-.45-.66,3.93,3.93,0,0,0-1.26-1.07A4.71,4.71,0,0,0,12,11.9a2.41,2.41,0,0,0-.59-.14A5.07,5.07,0,0,0,9.33,12a3.91,3.91,0,0,0-1.4.84l-.54.54a3,3,0,0,0-.54.78,3.59,3.59,0,0,0-.38,1.07,5.51,5.51,0,0,0-.1.91,4.19,4.19,0,0,0,.17,1.27c0,.13.13.23.14.37.17.25.27.55.45.81A5,5,0,0,0,8.3,19.74a4,4,0,0,0,.49.3c.11,0,.17.09.27.13a5.2,5.2,0,0,0,.67.21,4.43,4.43,0,0,0,.81.14,4.63,4.63,0,0,0,.83-.05,2.44,2.44,0,0,0,.47-.09,4.72,4.72,0,0,0,1.33-.61,4.17,4.17,0,0,0,1.22-1.22.18.18,0,0,1,.09-.1c0-.09.1-.15.14-.23a6.61,6.61,0,0,0,.38-1,3.13,3.13,0,0,0,.14-.9c0-.15,0-.29,0-.44a2.16,2.16,0,0,0-.05-.57A3.6,3.6,0,0,1,15,14.91Zm-2.13,2.54a2.5,2.5,0,0,1-.92.85l-.36.17a3,3,0,0,1-1.22.1,1.87,1.87,0,0,1-.82-.31,2.71,2.71,0,0,1-1.07-1.2,2.64,2.64,0,0,1-.09-1.52A2.23,2.23,0,0,1,9.53,14a2.23,2.23,0,0,1,1.12-.34,2.48,2.48,0,0,1,2.1,1,1.92,1.92,0,0,1,.44,1.47A1.93,1.93,0,0,1,12.84,17.45Z" transform="translate(-0.02 0)"/></svg>