<?xml version="1.0" encoding="utf-8"?>
<!-- Generator: Adobe Illustrator 25.2.0, SVG Export Plug-In . SVG Version: 6.00 Build 0)  -->
<svg version="1.1" id="Layer_1" xmlns="http://www.w3.org/2000/svg" xmlns:xlink="http://www.w3.org/1999/xlink" x="0px" y="0px"
	 viewBox="0 0 122.9 101.4" style="enable-background:new 0 0 122.9 101.4;" xml:space="preserve">
<style type="text/css">
	.st0{fill:#FFFFFF;}
</style>
<g>
	<path class="st0" d="M12.6,77.3L13,22.3H6.8v69.9c8.5-2.2,17.1-3.6,25.7-3.7c8-0.1,15.9,1.1,23.9,3.8c-5-4-10.5-7-16.4-8.9
		c-7.4-2.4-15.4-3.2-23.7-2.5c-1.9,0.2-3.5-1.2-3.6-3.1C12.6,77.7,12.6,77.5,12.6,77.3L12.6,77.3z M103.6,19.5c0-0.2,0-0.3,0-0.5
		c0-0.2,0-0.3,0-0.5V7.3c-7.8-0.7-15.8,0.1-22.9,2.8c-6.6,2.5-12.2,6.6-15.9,12.4v63.3c5.7-3.8,11.6-7,17.6-9.1
		c6.8-2.4,13.9-3.6,21.2-3V19.5L103.6,19.5z M110.4,15.6h9.1c1.9,0,3.4,1.5,3.4,3.4v77.7c0,1.9-1.5,3.4-3.4,3.4
		c-0.4,0-0.8-0.1-1.1-0.2c-9.4-2.7-18.7-4.5-28-4.5c-9-0.1-18,1.5-27.1,5.5c-0.6,0.4-1.2,0.6-1.9,0.6c-0.7,0-1.3-0.2-1.9-0.6
		c-9-4-18.1-5.6-27.1-5.5c-9.2,0.1-18.6,1.8-28,4.5c-0.3,0.1-0.7,0.2-1.1,0.2C1.5,100,0,98.5,0,96.6V19c0-1.9,1.5-3.4,3.4-3.4H13
		L13,4.3c0-1.6,1.1-3,2.7-3.3l0,0c8.9-1.9,19.6-1.4,29.1,2.2c6.5,2.5,12.5,6.5,16.8,12.2C66,10.2,71.8,6.3,78.4,3.8
		c9-3.4,19.3-4.2,29.1-2.8c1.7,0.2,2.9,1.7,2.9,3.3l0,0L110.4,15.6L110.4,15.6z M68.1,91.8c7.4-2.3,14.9-3.3,22.3-3.3
		c8.6,0.1,17.2,1.5,25.7,3.7V22.4h-5.8v55.2c0,1.9-1.5,3.4-3.4,3.4c-0.3,0-0.5,0-0.8-0.1c-7.4-1.2-14.5-0.2-21.5,2.3
		C79.1,85.2,73.6,88.2,68.1,91.8L68.1,91.8z M58.1,85.2V22.5c-3.5-6.2-9.2-10.4-15.7-12.9c-7.3-2.8-15.5-3.4-22.7-2.4L19.4,74
		c7.8-0.3,15.4,0.7,22.6,3.1C47.7,78.9,53.2,81.6,58.1,85.2L58.1,85.2z"/>
</g>
</svg>
