<svg id="Layer_1" data-name="Layer 1" xmlns="http://www.w3.org/2000/svg" viewBox="0 0 30 31.38"><defs><style>.cls-1{fill:#fff;}</style></defs><path class="cls-1" d="M10,17.79H5.5c-.12,0-.14,0-.14-.18,0-.49,0-1,0-1.46,0-.13,0-.16.13-.16H14.4c.1,0,.14,0,.14.15q0,.75,0,1.5c0,.12,0,.15-.13.15Z" transform="translate(0 0.19)"/><path class="cls-1" d="M9.93,14.19H5.49c-.11,0-.13,0-.13-.15V12.52c2.82-.37,6.1,0,9.07-.13.09,0,.11,0,.11.13,0,.51,0,1,0,1.54,0,.11,0,.13-.12.13Z" transform="translate(0 0.19)"/><path class="cls-1" d="M8.05,21.38H5.51c-.13,0-.15,0-.15-.16,0-.51,0-1,0-1.53,0-.1,0-.12.12-.12h5.16c.11,0,.12,0,.12.12v1.56c0,.1,0,.13-.13.13Z" transform="translate(0 0.19)"/><path class="cls-1" d="M14.33,26.68c-4.05.3-8.29,0-12.39.1-.14,0-.18,0-.18-.17V5.38c0-.16,0-.18.18-.18H3.43c.1,0,.12,0,.13.13.09,1.13-.26,2.48.86,3.2a1.4,1.4,0,0,0,.8.19c3.06.11,6.12,0,9.17,0l1.91,0A1.67,1.67,0,0,0,17.92,7c0-.57,0-1.14,0-1.71,0-.11,0-.13.13-.13h1.51c.12,0,.15,0,.15.15v6.38c0,1.11,0,2.24,0,3.37a8.64,8.64,0,0,1,1.76-.3c0-3.09,0-6.2,0-9.27-.06-.39.06-.82-.15-1.16a2,2,0,0,0-1.26-1c-1.84-.09-3.69,0-5.54,0a.32.32,0,0,1-.3-.2C13.71,2,13.21.88,12.58-.19H8.94C8.31.9,7.8,2.08,7.21,3.2c0,.07-.07.14-.17.14s-.36,0-.54,0c-1.71,0-3.42,0-5.13,0A1.84,1.84,0,0,0,0,4.75C0,6.34,0,7.93,0,9.52V26.38a2.93,2.93,0,0,0,.15,1.25,2.49,2.49,0,0,0,.74.74c4.78.37,9.7.23,14.58.17A8.08,8.08,0,0,1,14.33,26.68ZM12.55,3.39A1.79,1.79,0,0,1,9,3.4a1.79,1.79,0,0,1,3.58,0Z" transform="translate(0 0.19)"/><path class="cls-1" d="M22.05,15.28a8,8,0,1,0,8,8A8,8,0,0,0,22.05,15.28Zm3.6,6.5-4,4a.82.82,0,0,1-1.15,0h0l-2-2a.81.81,0,0,1,1.15-1.14L21,24.12l3.47-3.48a.81.81,0,0,1,1.14,1.14Z" transform="translate(0 0.19)"/></svg>