<?xml version="1.0" encoding="utf-8"?>
<!-- Generator: Adobe Illustrator 25.2.0, SVG Export Plug-In . SVG Version: 6.00 Build 0)  -->
<svg version="1.1" id="Layer_1" xmlns="http://www.w3.org/2000/svg" xmlns:xlink="http://www.w3.org/1999/xlink" x="0px" y="0px"
	 viewBox="0 0 1064.5 972.8" style="enable-background:new 0 0 1064.5 972.8;" xml:space="preserve">
<style type="text/css">
	.st0{fill:#FFFFFF;}
</style>
<g>
	<path class="st0" d="M1064.5,922.9c-3.7-1.5-1.9-4.7-2.2-7.2c-4.2-42.6-8-85.2-23.2-125.8c0.4-3-0.9-5.1-3.6-6.4l-13-15.8
		c-1.3-4.5-5.2-5.5-9-6.7l-17.7-8.7c-2.4-4.5-7.3-2.2-10.7-4c-7.2-1.1-13.8-3.9-20.4-6.8c-3.6-4.5-6.8-1.7-9.6,0.9
		c-3.9,3.4-7.5,7-11,10.7c-16.9,14.2-33.8,28.4-50.8,42.6c-11.3,9.5-11.3,9.4-22.4-1.5c-0.6-4.7-5-4.8-8.1-6.5
		c-5.3-3.6-10.5-7.4-14.8-12.3c-1.1-3.8-4.3-5.8-7.2-7.9c-4.5-4.4-9.6-8.2-14.5-12.2c-2.7-2.6-5.9-4.5-8.7-6.9
		c-4.8-3.9-8.5-9.7-15.8-9.4c-7.1,2.2-14,4.6-20.2,8.9c-3.5,1.5-6.9,3-10.4,4.3c-16.3,6.2-30.8,14.8-40.3,30.1
		c-5.5,8.8-8.3,18.7-12.1,28.2c-6.1,6.6-4.7,15.1-5.8,23c-1.5,9.7-3.1,19.3-4.6,29c-1.2,4.1-4.9,7.8-1.9,12.5
		c-0.3,11.9-1.5,23.7-3.7,35.4c-2.6,3.3-3.5,6.7-0.6,10.3c0.7,11.2-1,22.2-2,33.2c-2,3.5-0.4,6.1,2.3,8.3c5.3,6.7,12.8,8.2,20.8,8.4
		c3.5,3.3,6.9,1.9,10.4,0h31.2c3.5,3.3,6.9,1.9,10.4,0h31.2c3.5,3.3,6.9,1.9,10.4,0h31.2c3.5,3.3,6.9,1.9,10.4,0h31.2
		c3.5,3.3,6.9,1.9,10.4,0h31.2c3.5,3.3,6.9,1.9,10.4,0H973c3.5,3.3,6.9,1.9,10.4,0h31.2c3.5,3.3,6.9,1.9,10.4,0
		c4.1-0.2,8.3-0.8,12.3-0.4c10.7,0.9,20.3-0.7,27.2-10.1v-20.8c-1.4-1.3-1-3-1.1-4.6c0.2-2-0.6-4.1,1.1-5.8L1064.5,922.9z"/>
	<path class="st0" d="M352.2,923.1c0.1-4.2-0.2-8.3-0.9-12.5c-2.4-6.7-0.6-13.8-2.1-20.6c-1.7-8.8-2.5-17.7-4.2-26.5
		c-0.8-3.2-1.4-6.4-1.6-9.6c-1.3-7.4-2.9-14.7-4.7-22c-1.5-5-2-10.3-3.4-15.3c-1.5-5.9-3.7-11.7-5-17.7c-1.3-3.8-2.5-7.6-3.8-11.3
		c-2.3-6.6-6.1-12.5-11.1-17.3c-2.8-2.7-6-5-9.4-6.8c-5.7-3.7-11.8-6.7-18.2-9c-3.2-1.4-6.5-2.5-9.7-3.7c-7.2-2.7-14.6-4.5-21.9-6.7
		c-4.9-1.8-10.1-2.2-15.1-3.5c-8.2-1.7-11.7,3.2-14.7,9.7c-10.1,22-20.9,43.6-43.9,55.5c-1.5,0.9-2.6,2.2-3.3,3.8
		c-0.9,2.6-1.3,5.3-1.2,8.1c-0.2,7.9,0.6,15.9-0.5,23.9c-0.9,1.5,0,4.5-3.3,4c-2-4.2-0.6-8.8-0.9-13.2c0-4.8,0-9.6,0-14.4
		c0.6-9.1-4.9-13.8-12.5-16.9c-4.1-1.8-7.1-5-10.1-8.2c-5-4.5-8.7-9.9-12.1-15.5c-1.6-2.3-3.1-4.6-4.4-7.1
		c-3.5-6.8-7.1-13.7-10.2-20.7c-1.8-3.2-2.9-6.9-6.4-8.7c-9-1.6-17.3,2.1-25.8,3.7c-6.9,3-15.1,2.8-20.8,8.8c-4,1.8-8,3.8-12.1,5.5
		C40,766.5,27.3,778.9,22.5,800c-6.2,26.8-12.6,53.5-16.7,80.8c-1.8,12-0.4,24.5-5.8,35.9v8.3c1.7,1.7,0.9,3.8,1.1,5.8
		C1,932.3,1.4,934,0,935.3v25c4.6,5,9.3,9.8,16.6,10.4c3.5,3.3,6.9,1.9,10.4,0h31.2c3.5,3.3,6.9,1.9,10.4,0h31.2
		c3.5,3.3,6.9,1.9,10.4,0h31.2c3.5,3.3,6.9,1.9,10.4,0H183c3.5,3.3,6.9,1.9,10.4,0h31.2c3.5,3.3,6.9,1.9,10.4,0h31.2
		c3.5,3.3,6.9,1.9,10.4,0h31.2c3.5,3.3,6.9,1.9,10.4,0c4.8-0.2,9.5-0.3,14.3-0.5c12.7-0.6,18.5-6.8,18.5-19.6c0-2.7,0.2-5.4,0.2-8.1
		C349.8,936,353.4,929.7,352.2,923.1z"/>
	<path class="st0" d="M731.6,482.2c-1.7-6.3-0.8-12.8-1-19.1c0.2-4.7,0-9.4-0.8-14.1c-2.3-6.8-0.8-13.9-1.5-20.8
		c-1.5-6.8-1.7-13.7-2.7-20.5c-2-5.4-0.8-11.2-2.1-16.7c-1.7-8.1-2.8-16.2-4.2-24.4c-1.4-5.1-2.8-10.2-3.9-15.4
		c-1.5-5.4-2.7-10.9-4.6-16.2c-1.4-3.7-2.6-7.5-4.4-11c-3-6.1-6.5-11.9-10.7-17.3c-2.6-2.9-5.9-5-9.1-7.2
		c-5.8-4.4-12.3-7.9-19.1-10.4c-3.6-1.6-7.3-2.8-11-4.2c-6.5-2.3-13.2-4.2-19.9-6c-2.9-0.8-5.8-1.8-8.8-0.6c-4.9,0-9.4-1.8-13.7-3.8
		c-5.9-2.7-7.9-0.7-9.4,5.2c-2.8,10.8-5.3,21.8-10.3,32c-5.3,6.6-7,14.9-10,22.6c-7,20.9-16.6,40.7-26.5,60.4
		c-0.3,0.4-0.3,0.7-0.1,0.8h-0.1c-1.2-0.3-0.2-1.3-0.5-1.9c-1.3-9.2-3.1-18.3-4.5-27.6c-1.4-3.5-0.8-7.7-3.8-10.7
		c-2.5-8.8-4-17.9-4.2-27c1.4-4.1,2.9-8.2,1.6-12.6c4.4-10.1-5.4-11.8-9.9-16.7c-8.4-7.5-11.4,2.1-16.4,5.3l-2.1,1.2
		c-2.5,2.7-2.9,6-2.2,9.5c4.2,11.6,0.2,22.6-2.6,33.7c-2.8,15.2-2.1,30.9-7,47c-4.1-9.5-8.6-17.2-11.6-25.6
		c-3.1-6.2-5.9-12.6-8.3-19.2c-1.7-3.6-2.4-7.7-6-10.2c-3.9-7.2-6.7-14.9-8.3-22.9c1.5-4.2-1.5-7.6-1.9-11.4
		c-1.3-5.4-3.3-10.5-4.8-15.8c-1.5-4.4-2.2-9-3.9-13.3c-2-5.5-5.9-6.9-11.3-5.1c-5.1,1.7-10.3,3.2-15.6,4.4c-6.9,2.5-14,4-21,6.2
		c-32,8.5-55.3,25.9-62.5,60.1c-1.9,7.9-3.8,15.8-5.9,23.6c-1.5,10-3.4,19.9-4.9,29.9c0.3,4.6-1.5,9-2,13.5
		c0.2,8.2-2.3,16.2-2.4,24.3c1.1,7.2-2,13.9-2,20.9c0.3,10.5-0.4,21.1-1,31.6c0.7,4.2,2.4,8.2,5.2,11.4c2.6,2.9,6.1,4.7,10,5.2
		c99.1,0.7,198.2,0.1,297.3,0.2c23.9,0,47.8,0.4,71.7-0.3C728,500.6,731.8,492.8,731.6,482.2z"/>
	<path class="st0" d="M58.2,680c2.3,2.5,5.2,2.9,8.3,2l25,4.2c3.2,2.3,6.6,3.3,10.4,1.6c8.5,1.6,18.7-3.7,24.9,6.4
		c1.3,3,3.2,5.7,5.6,7.9c5.1,5.3,11.2,9,17.5,12.6c3.7,1.7,7.5,3.2,11.5,4.4c6.8,1.9,13.7,3.5,20.9,1.9c6.7-1.8,13.5-3.3,19.8-6.5
		c5.2-2.7,10.4-5.8,14.1-10.1c9-10.7,20.2-15.5,34-14.8c7.4-1.4,14.9-1.4,22.2-3.2c8.4-1.9,17-3.1,25.2-6c6.2-2.2,8.3-5.9,4.5-11.9
		c-1.3-2.1-2.7-4-4.4-5.8c-2.8-2.9-5.2-6-7.2-9.5c-4.1-6.2-6.2-13.2-8.2-20.2c-1-3-1.2-6.2-2-9.2c-1.4-9.1-0.5-18.3-0.7-27.5
		c-0.3-3.5,0.2-7.1,0-10.7c-0.2-7.1,0.5-14.2-0.8-21.2c-1.8-6.4-2-13.1-3.9-19.4c-1.7-6.5-4.6-12.5-6.9-18.7
		c-1.5-3.6-3.8-6.8-5.9-10c-3.4-5.1-6.7-10.2-11.1-14.4c-3-2.9-5.9-5.8-8.9-8.8c-4.5-4.3-10-7.2-14.9-10.8
		c-3.8-2.5-7.8-4.6-11.9-6.4c-7.1-2.6-14.4-4.8-21.8-6.5c-10-1.1-20.1-0.3-30.2-0.5c-2.4,0-4.7,0.3-7,0.8c-5.7,2-12.2,2-16.7,7
		c-27.1,11.4-45.9,31.1-58,57.6c-3.6,4.1-5.9,8.7-4.6,14.4l-2.5,18.7c0,10.1-2.4,19.9-1,30.2c1,7.9,1.4,16.2-0.6,24.3
		c-0.1,1.2-0.3,2.5-0.4,3.7c-3.4,5.9-6.2,12-5.8,19c-3.4,12.1-12.4,20.6-19.8,30C50.1,678.4,54.9,677.5,58.2,680z"/>
	<path class="st0" d="M781.5,590.5c6.3,8.7-1.1,17.8,0.7,26.6c1.3,4.4,1.4,9.1,3.4,13.3c3.3,6.1,6,12.8,13.5,15.2
		c3.6,0.3,5.5,2.5,6.6,5.8c3.2,6.3,6.1,12.8,9.9,18.8c2,2.5,2.8,6.2,6.7,7l11.5,15.2c2.3,3.4,4.5,6.9,7.7,9.7
		c4.3,4.6,9.5,7.9,14.8,11.2c4.4,2.4,9.1,4.3,14,5.7c5.2,0.8,10.4,2,15.7,1.8c8.1-1.1,16.4-1.8,22.7-8c16.3-9.9,28.4-24,39.2-39.4
		c4-5.1,8.7-9.7,11-15.8c2.1-5.7,5.1-9.6,11.3-12c6.6-2.4,11-8.8,10.7-15.8c2.8-9.5,4.7-19,0.5-28.7c-1.3-5.2,3.8-9.6,1.9-14.9
		c0.9-4.8,1.8-9.7,2.7-14.5c-0.3-10.4,4-21.1-2-31.1l-6.8-18.4c-0.3-3.7-2.4-6.9-5.6-8.7c-4.3-5-8.5-10-12.8-14.9
		c-1.2-2.8-3.6-4.9-6.5-5.8L935.5,482c-2.5-5.8-8.4-4.2-12.8-5.9l-16.3-4.6c-3.9-2-7.7-5.1-12.4-2.1c-5,0-10,0-15,0.1
		c-3,0.1-4.4-0.9-3.3-4.1c0.7-5,1.5-9.9-0.7-15.1c-4.5,1.6-7.3,4.5-9.8,7.7c-11,11.1-11,11.1-18.4-1.5c-1.5-2.6-3.2-5.1-4.8-7.7
		c-3.4-0.8-4.2,2-5.5,4.1c-1.3,3.8-1.6,7.9-2.8,11.8c-4.4,14.2-4.5,14.3-17.8,8.7c-3.2-1.4-6.6-2.6-10.1-3.4
		c-3.5-0.2-6.3,0.4-6.6,4.7c0.9,4,3.9,7,5.3,10.7c3.4,5.3,1.2,9.5-2.4,13.8c-10.3,12.5-18.6,26.2-22.8,42.1
		c-0.5,4.3-2.1,8.4-2.4,12.7c-0.3,7.4-0.7,14.8,0.5,22.2C778.8,581.1,779.8,585.9,781.5,590.5z"/>
	<path class="st0" d="M430.7,157.8l12.4,12.1c0.7,4.5,5.5,4.2,7.9,6.8c3.8,5.1,6.2,11.1,9.1,16.8c1.5,2.8,2.9,5.7,4.3,8.6
		c3.4,6.6,8.2,12.4,12.5,18.5c2,2.6,4.2,5,6.6,7.3c4.7,4.7,9.3,9.4,14.9,12.9c3.3,2.1,6.4,4.6,10,6.5c5.6,2.1,11.1,4.2,17,4.9
		c5.2,0.4,10.4,0.3,15.2-2.3c19.2-4.3,33.4-15.8,45.3-30.7c9.5-11.9,16.6-25.3,23-39.1c1.2-2.7,1.3-6.2,5-7.2
		c10.2-3,15.8-11.6,22.3-19c4.9-6.1,1.1-12.4,0.5-18.6c-1-2.6-1.9-5.9-4.8-6c-7.8-0.3-5.6-4.4-3.7-8.6c1.5-4,5-7.7,2.1-12.5l0.2-4.2
		c1.3-5.8,0.7-11.7,0.5-17.5c-0.3-7.4,2.8-15.2-2.7-21.9l-9-18.6c-0.1-3.9-3.5-4.6-5.9-6.4l-14.6-10.2c-1.3-3.4-1.5-7.4-5.9-8.7
		l-17-12.1c-3.8-5.6-10.2-1.9-14.9-4.3L540.6,2c-3.4-3.2-6.9-2.1-10.4-0.1L495,8.3c-10.4,0.1-17.8,6.3-25.1,12.7
		c-8.3,6.8-15.9,14.4-22.7,22.7c-6.8,6.5-10.2,14.9-12.7,23.8c-1.5,5.5-2.9,11-2.9,16.7c0.2,7.5-0.3,15,0.3,22.5
		c0.3,6.8,5.9,14.3-0.6,20.2c-5.3,4.7-6.1,10.2-6.5,16.4C425.4,148.6,426.2,153.9,430.7,157.8z"/>
</g>
</svg>
