<svg id="Layer_1" data-name="Layer 1" xmlns="http://www.w3.org/2000/svg" viewBox="0 0 426.6 426.6"><defs><style>.cls-1{fill:#939598;}.cls-2{fill:#fff;}</style></defs><path d="M256,469.3C138.4,469.3,42.7,373.6,42.7,256S138.4,42.7,256,42.7,469.3,138.4,469.3,256,373.6,469.3,256,469.3Z" transform="translate(-42.7 -42.7)"/><path class="cls-1" d="M366,250.8a11.48,11.48,0,0,0-.6-3.7,12.91,12.91,0,0,0-10.1-8.6h-37a2.2,2.2,0,0,1-.8.1H256.4V238c-.1-11.8.3-23.7-.2-35.5a47.55,47.55,0,0,0-1.6-9.9,52.26,52.26,0,0,0-39.3-37.5,55.57,55.57,0,0,0-7-.8h-.7a.3.3,0,0,1-.4,0h-.8a2,2,0,0,1-1.5,0h-1.3a2,2,0,0,1-1.5,0h-.8a.3.3,0,0,1-.4,0H200c-1.1.2-2.1.1-3.2.3a48.54,48.54,0,0,0-18.1,6.1,52.33,52.33,0,0,0-26.6,44.8c-.1,11,0,22,0,33,0,.9,0,1.2-.4,1.4h20.6a2,2,0,0,1-.1-.8V207.4a31.89,31.89,0,0,1,63-7.5,36.46,36.46,0,0,1,.8,7.4v31.2H218c-5.8,1.1-11,6.4-10.5,12.7V345a12.75,12.75,0,0,0,10.8,12.7H354.9a20,20,0,0,0,2.6-.5,13.08,13.08,0,0,0,8.6-11.8Q366,298,366,250.8ZM294.9,300a1.62,1.62,0,0,0-1,1.7c.1,3.1,0,6.3,0,9.4v9.3c0,1.7-.5,2.2-2.3,2.2h-9.8c-1.7,0-2.2-.5-2.2-2.3V301.5a1.42,1.42,0,0,0-.9-1.5,15.86,15.86,0,1,1,21.7-5.7,14.37,14.37,0,0,1-5.5,5.7Z" transform="translate(-42.7 -42.7)"/><path class="cls-2" d="M360.1,250.8a11.48,11.48,0,0,0-.6-3.7,12.91,12.91,0,0,0-10.1-8.6h-37a2.2,2.2,0,0,1-.8.1H250.5V238c-.1-11.8.3-23.7-.2-35.5a47.55,47.55,0,0,0-1.6-9.9,52.26,52.26,0,0,0-39.3-37.5,55.57,55.57,0,0,0-7-.8h-.7a.3.3,0,0,1-.4,0h-.8a2,2,0,0,1-1.5,0h-1.3a2,2,0,0,1-1.5,0h-.8a.3.3,0,0,1-.4,0h-.9c-1.1.2-2.1.1-3.2.3a48.54,48.54,0,0,0-18.1,6.1,52.33,52.33,0,0,0-26.6,44.8c-.1,11,0,22,0,33,0,.9,0,1.2-.4,1.4h20.6a2,2,0,0,1-.1-.8V207.4a31.89,31.89,0,0,1,63-7.5,36.46,36.46,0,0,1,.8,7.4v31.2H211.9c-5.8,1.1-11,6.4-10.5,12.7V345a12.75,12.75,0,0,0,10.8,12.7H349a20,20,0,0,0,2.6-.5,13.08,13.08,0,0,0,8.6-11.8Q360.05,298,360.1,250.8ZM289,300a1.62,1.62,0,0,0-1,1.7c.1,3.1,0,6.3,0,9.4v9.3c0,1.7-.5,2.2-2.3,2.2H276c-1.7,0-2.2-.5-2.2-2.3V301.5a1.42,1.42,0,0,0-.9-1.5,15.86,15.86,0,1,1,21.7-5.7A15.33,15.33,0,0,1,289,300Z" transform="translate(-42.7 -42.7)"/></svg>