<svg id="Layer_1" data-name="Layer 1" xmlns="http://www.w3.org/2000/svg" viewBox="0 0 22.78 24"><defs><style>.cls-1{fill:#fff;}</style></defs><path class="cls-1" d="M22.48,9.57c-.29-.13-.6-.26-.9-.37A.16.16,0,0,1,21.45,9V9a6.42,6.42,0,0,0,0-2.23.16.16,0,0,1,.1-.22h0c.31-.12.61-.24.91-.38a.56.56,0,0,0,.4-.67l-.06-.14c-.16-.4-.33-.8-.5-1.2a.57.57,0,0,0-.69-.41.51.51,0,0,0-.17.07c-.29.13-.59.24-.88.38a.17.17,0,0,1-.23,0,.08.08,0,0,0,0,0,6.09,6.09,0,0,0-1.58-1.58c-.11-.07-.11-.14-.06-.25.12-.27.23-.55.34-.82.19-.48.09-.72-.38-.9L17.42,0h-.33a.59.59,0,0,0-.45.41,6,6,0,0,0-.3.74.27.27,0,0,1-.32.21h0a6.84,6.84,0,0,0-2,0,.23.23,0,0,1-.29-.16h0c-.09-.26-.21-.5-.31-.76a.59.59,0,0,0-.5-.43h-.23L11.28.57a.57.57,0,0,0-.4.7.67.67,0,0,0,.06.12l.37.91a.18.18,0,0,1,0,.25l0,0A5.64,5.64,0,0,0,9.7,4.11a.17.17,0,0,1-.24.08h0c-.29-.14-.59-.25-.88-.37A.57.57,0,0,0,7.77,4a.42.42,0,0,0,0,.1c-.18.41-.34.8-.5,1.21a.57.57,0,0,0,.21.78l.14,0,.9.37c.11,0,.14.09.12.21A6,6,0,0,0,8.6,9c0,.15,0,.19-.14.23l-.86.36a.56.56,0,0,0-.42.69.47.47,0,0,0,.06.15c.16.39.32.79.49,1.18a.56.56,0,0,0,.7.39l.13-.05.91-.38c.1,0,.15,0,.21,0a6.16,6.16,0,0,0,1.61,1.61.16.16,0,0,1,.07.2v0c-.14.29-.25.59-.38.9a.57.57,0,0,0,.21.78.47.47,0,0,0,.15.06l1.17.49a.57.57,0,0,0,.77-.24.37.37,0,0,0,.05-.11c.12-.29.24-.58.36-.9,0-.12.09-.16.22-.13a6,6,0,0,0,2.23,0c.13,0,.18,0,.22.13l.37.9a.56.56,0,0,0,.69.41.52.52,0,0,0,.13-.06c.41-.16.81-.32,1.21-.5a.59.59,0,0,0,.39-.71l-.06-.13c-.12-.28-.24-.57-.37-.85-.05-.12-.05-.19.07-.27a6,6,0,0,0,1.56-1.57.18.18,0,0,1,.24-.09l0,0,.88.37a.56.56,0,0,0,.77-.22.37.37,0,0,0,0-.11c.17-.4.34-.81.5-1.21a.56.56,0,0,0-.2-.77A.52.52,0,0,0,22.48,9.57Zm-7.44,3a4.71,4.71,0,1,1,4.7-4.71v0A4.71,4.71,0,0,1,15,12.58Z" transform="translate(-0.13)"/><path class="cls-1" d="M10.81,16.84a.49.49,0,0,0-.41-.54H9.8c-.08,0-.14,0-.17-.11a3.66,3.66,0,0,0-.53-1.31.14.14,0,0,1,0-.18l0,0a3.41,3.41,0,0,0,.38-.38.44.44,0,0,0,0-.63l0-.05c-.16-.18-.33-.35-.51-.52a.45.45,0,0,0-.63,0c-.13.12-.26.24-.37.36a.15.15,0,0,1-.22.06l0,0A3.76,3.76,0,0,0,6.48,13c-.12,0-.16-.08-.15-.19v-.49A.45.45,0,0,0,6,11.84a3.09,3.09,0,0,0-1,0,.41.41,0,0,0-.35.39,5.23,5.23,0,0,0,0,.56c0,.14,0,.19-.18.22a3.18,3.18,0,0,0-.77.26c-.19.09-.39.29-.57.27s-.33-.28-.49-.45h0a.46.46,0,0,0-.64,0H2c-.17.16-.35.33-.51.51a.45.45,0,0,0-.05.64l.05,0a4.08,4.08,0,0,0,.36.36.17.17,0,0,1,0,.22l0,0a3.71,3.71,0,0,0-.39.8c-.07.19-.08.45-.21.56s-.4,0-.62,0a.45.45,0,0,0-.52.37.34.34,0,0,0,0,.1v.68A.48.48,0,0,0,.57,18h.56c.17,0,.18,0,.2.15a3.59,3.59,0,0,0,.27.8c.1.19.31.4.28.57s-.28.32-.45.49h0a.45.45,0,0,0,0,.64h0a6.14,6.14,0,0,0,.51.51.44.44,0,0,0,.63.05l.05-.05A2.81,2.81,0,0,0,3,20.78a.18.18,0,0,1,.25-.06l0,0a3.66,3.66,0,0,0,1.21.54c.14,0,.17.1.17.22a2.91,2.91,0,0,0,0,.59.37.37,0,0,0,.33.37,3.85,3.85,0,0,0,1,0,.41.41,0,0,0,.35-.38c0-.19,0-.39,0-.58s0-.19.15-.22a3.69,3.69,0,0,0,1.25-.5c.09-.06.16-.07.23,0a4.54,4.54,0,0,0,.38.38.45.45,0,0,0,.64,0l0,0a6.26,6.26,0,0,0,.52-.51.47.47,0,0,0,0-.64l0,0a3.89,3.89,0,0,0-.34-.36.17.17,0,0,1-.07-.24s0,0,0-.05a3.55,3.55,0,0,0,.45-1c.12-.37.12-.37.5-.37h.14c.45,0,.62-.15.62-.62C10.81,17.21,10.82,17,10.81,16.84ZM5.45,19.16a2,2,0,1,1,2-2,2,2,0,0,1-2,2Z" transform="translate(-0.13)"/><path class="cls-1" d="M17.73,20.56c-.13,0-.16-.08-.15-.21a1.79,1.79,0,0,0-.09-.72c-.07-.21,0-.3.18-.4.39-.21.41-.32.19-.7-.31-.54-.34-.55-.87-.24a.2.2,0,0,1-.26,0v0a2.37,2.37,0,0,0-.65-.49.16.16,0,0,1-.1-.23c.15-.63.15-.63-.48-.8l-.13,0a.35.35,0,0,0-.44.21.64.64,0,0,0,0,.07,1.74,1.74,0,0,0-.05.22.19.19,0,0,1-.2.18h0a1.59,1.59,0,0,0-.65.07c-.25.09-.41,0-.49-.22l0,0c-.15-.25-.29-.29-.56-.15l-.18.11c-.42.24-.46.33-.2.75.1.15.14.25,0,.38a.91.91,0,0,0-.28.34c-.16.32-.35.45-.7.29h-.07c-.23,0-.3.06-.39.42-.17.6-.16.6.46.79a.19.19,0,0,1,.17.22,1.47,1.47,0,0,0,.07.69c.08.23,0,.32-.18.43-.37.19-.4.32-.19.68l.07.12c.23.4.33.45.72.19.16-.11.27-.13.42,0a1.55,1.55,0,0,0,.45.36c.23.11.28.23.19.48s0,.48.32.58c.65.18.66.18.86-.46a.16.16,0,0,1,.17-.13h0a1.63,1.63,0,0,0,.69-.07c.22-.09.33,0,.45.18s.31.39.69.18c.55-.32.56-.34.24-.9a.17.17,0,0,1,0-.25,1.7,1.7,0,0,0,.45-.55c.11-.23.23-.25.46-.18.39.13.49.05.6-.33C18.36,20.83,18.3,20.68,17.73,20.56ZM14.6,21.74a1.43,1.43,0,0,1-1.39-1.4,1.4,1.4,0,1,1,1.4,1.4Z" transform="translate(-0.13)"/><path class="cls-1" d="M12,10a10.54,10.54,0,0,1,1.51-1,.57.57,0,0,0,.34-.73.14.14,0,0,0,0-.06,2.89,2.89,0,0,0-.38-.86,1.25,1.25,0,0,1-.21-.73c0-.11,0-.22.13-.27s.05-.12,0-.2a2.16,2.16,0,0,1,.08-1.1,1,1,0,0,1,.33-.45c.14-.1.18-.2.06-.33a.15.15,0,0,1,0-.13,3,3,0,0,1,.52,0,4.62,4.62,0,0,0,.91,0,.9.9,0,0,1,.9.5.2.2,0,0,0,.13.11.69.69,0,0,1,.54.7,3.39,3.39,0,0,1-.07.9s0,.08,0,.13a1,1,0,0,1-.28,1.17.92.92,0,0,0-.21.62c-.05.56,0,.56.45.82s.86.53,1.28.82c.11.08.1.13,0,.23a3.85,3.85,0,0,1-2.45,1.43c-.11,0-.15,0-.18-.12-.06-.32-.13-.63-.2-.94a.34.34,0,0,1,.05-.26.82.82,0,0,0,.12-.2c.06-.17.14-.35,0-.5a.61.61,0,0,0-.6,0,.29.29,0,0,0-.13.33.27.27,0,0,0,.06.17c.38.5,0,1-.05,1.47,0,.11-.1.07-.17.06A3.8,3.8,0,0,1,12,10Z" transform="translate(-0.13)"/></svg>