<?xml version="1.0" encoding="utf-8"?>
<!-- Generator: Adobe Illustrator 25.2.0, SVG Export Plug-In . SVG Version: 6.00 Build 0)  -->
<svg version="1.1" id="icon_turquoise" xmlns="http://www.w3.org/2000/svg" xmlns:xlink="http://www.w3.org/1999/xlink" x="0px"
	 y="0px" viewBox="0 0 141.7 141.7" style="enable-background:new 0 0 141.7 141.7;" xml:space="preserve">
<style type="text/css">
	.st0{fill:#EE1F55;}
	.st1{fill:#4DC1A0;}
	.st2{font-family:'MyriadPro-Bold';}
	.st3{font-size:35.8124px;}
</style>
<g>
	<g>
		<g>
			<path class="st0" d="M57.4,11.4L57.4,11.4l-1.8,0.1l-0.5,0.4l-25,25v86.2c0,4,1.8,5.4,3.2,6.2c1.3,0.6,2.6,1,4,1.1h67.2
				c4,0,5.4-1.8,6.2-3.2c0.6-1.3,1-2.6,1.1-4l0,0V18.7c0-4-1.8-5.5-3.2-6.2c-1.3-0.6-2.6-1-4-1.1L57.4,11.4 M55.6,7.1h48.9
				c0,0,11.5,0,11.5,11.6v104.4c0,0,0,11.5-11.5,11.5H37.4c0,0-11.6,0-11.6-11.6V36.8c0-1.1,0.4-2.2,1.2-2.9L52.6,8.3l0,0
				C53.4,7.6,54.5,7.1,55.6,7.1L55.6,7.1L55.6,7.1z"/>
			<path class="st0" d="M51.3,16.3L35,32.5h16.3V16.3 M54.2,7.4c0.7,0,1.4,0.6,1.4,1.3v25.8c0,1.3-1.1,2.3-2.4,2.4H27.4
				c-0.8-0.1-1.4-0.8-1.4-1.5C26.1,35.3,54.2,7.4,54.2,7.4z"/>
		</g>
	</g>
	<g>
		<g>
			<text transform="matrix(1 0 0 1 49.2157 81.3612)" class="st1 st2 st3">A3</text>
		</g>
	</g>
</g>
</svg>
