<?xml version="1.0" encoding="utf-8"?>
<!-- Generator: Adobe Illustrator 25.2.0, SVG Export Plug-In . SVG Version: 6.00 Build 0)  -->
<svg version="1.1" id="Capa_1" xmlns="http://www.w3.org/2000/svg" xmlns:xlink="http://www.w3.org/1999/xlink" x="0px" y="0px"
	 viewBox="0 0 495.7 495.7" style="enable-background:new 0 0 495.7 495.7;" xml:space="preserve">
<style type="text/css">
	.st0{fill:#447FC1;}
	.st1{fill:#3BBB96;}
	.st2{fill:#EE1F55;}
</style>
<g>
	<path class="st0" d="M293.5,490.4c-3.8,0-7.5-0.5-11.2-1.5c-11-3-20.3-10.1-26-20l-0.2-0.4H60.6c-8.3,0-15.1-6.8-15.1-15V56.2
		c0-8.3,6.8-15,15.1-15h276c8.3,0,15.1,6.8,15.1,15v166.4c1.7-0.2,3.3-0.5,5.1-0.5h29.1V56.2c0-27.1-22.1-49.2-49.2-49.2h-276
		C33.4,7,11.3,29.1,11.3,56.2v397.3c0,27.1,22.1,49.2,49.2,49.2h257.6c-2.6-5.3-4.2-11.2-4.4-17.4
		C307.6,488.6,300.6,490.4,293.5,490.4z"/>
	<path class="st1" d="M111.5,145.6h111c9.4,0,17.1-7.6,17.1-17.1c0-9.4-7.6-17.1-17.1-17.1h-111c-9.4,0-17.1,7.6-17.1,17.1
		C94.4,138,102.1,145.6,111.5,145.6z"/>
	<path class="st1" d="M273.8,213.9c0-9.4-7.6-17.1-17.1-17.1H111.5c-9.4,0-17.1,7.6-17.1,17.1c0,9.4,7.6,17.1,17.1,17.1h145.2
		C266.1,231,273.8,223.4,273.8,213.9z"/>
	<path class="st1" d="M111.5,282.3c-9.4,0-17.1,7.6-17.1,17.1c0,9.4,7.6,17.1,17.1,17.1h112.6c0.8-2.3,1.8-4.7,3.1-6.9l15.8-27.3
		H111.5z"/>
	<path class="st1" d="M94.4,384.7c0,9.4,7.6,17.1,17.1,17.1h110.1c0.7-13.6,7.8-26.5,20.1-34.2H111.5
		C102.1,367.7,94.4,375.3,94.4,384.7z"/>
	<g>
		<path class="st2" d="M369.8,322.1c-25.1,0-45.5,20.4-45.5,45.4c0,25.1,20.4,45.4,45.5,45.4c25,0,45.4-20.4,45.4-45.4
			C415.2,342.5,394.8,322.1,369.8,322.1z"/>
		<path class="st2" d="M483.7,389l-15.9-9.2c0.5-4.1,1.3-8.1,1.3-12.3c0-4.2-0.7-8.3-1.3-12.4l15.9-9.2c4-2.3,6.9-6.1,8.1-10.5
			c1.2-4.4,0.6-9.2-1.8-13.1l-21-36.4c-3.2-5.6-9-8.7-15-8.7c-2.9,0-5.9,0.8-8.7,2.3l-15.8,9.1c-6.6-5.1-13.7-9.5-21.5-12.8v-17.8
			c0-9.6-7.7-17.3-17.3-17.3h-42.1c-9.6,0-17.3,7.7-17.3,17.3v17.8c-7.8,3.3-14.9,7.8-21.5,12.8l-15.8-9.1c-2.7-1.5-5.6-2.3-8.7-2.3
			c-1.5,0-3,0.2-4.5,0.6c-4.4,1.2-8.2,4.1-10.5,8.1l-21,36.4c-4.8,8.3-1.9,18.9,6.3,23.6l15.9,9.2c-0.5,4.1-1.2,8.1-1.2,12.4
			c0,4.2,0.7,8.2,1.2,12.3l-15.9,9.2c-8.3,4.8-11.1,15.4-6.3,23.6l21,36.4c2.3,4,6.1,6.9,10.5,8.1c1.5,0.4,3,0.6,4.5,0.6
			c3,0,6-0.8,8.7-2.3l15.8-9.1c6.6,5.1,13.7,9.5,21.5,12.8V477c0,9.6,7.7,17.3,17.3,17.3h42.1c9.6,0,17.3-7.7,17.3-17.3v-17.8
			c7.8-3.3,14.9-7.8,21.5-12.8l15.8,9.1c2.7,1.6,5.6,2.3,8.7,2.3c1.5,0,3-0.2,4.5-0.6c4.4-1.2,8.2-4.1,10.5-8.1l21-36.4
			C494.8,404.4,492,393.8,483.7,389z M369.8,430c-34.5,0-62.5-28-62.5-62.5c0-34.5,28-62.5,62.5-62.5c34.5,0,62.5,28,62.5,62.5
			C432.2,402,404.2,430,369.8,430z"/>
	</g>
</g>
</svg>
