<svg id="Layer_1" data-name="Layer 1" xmlns="http://www.w3.org/2000/svg" viewBox="0 0 75.06 40"><defs><style>.cls-1{fill:#ee1f55;}.cls-2{fill:#3bbb96;}.cls-3{fill:#f99b1c;}.cls-4{fill:#447fc1;}</style></defs><path class="cls-1" d="M53.74,13.81V20a2.64,2.64,0,0,0,.46,1.43c2.21,3.42,4.4,6.84,6.61,10.26.23.35.22.51-.17.7a12.86,12.86,0,0,1-13-.44,12.85,12.85,0,0,1-6.45-10.18A13.45,13.45,0,0,1,52.41,7.19C53.73,7,53.73,7,53.73,8.3v5.51Z"/><path class="cls-2" d="M69.17,20.73a14.18,14.18,0,0,1-5.26,10.93l-.15.13c-.54.41-.54.41-.9-.16q-3.18-4.93-6.38-9.87c-.21-.32-.2-.47.12-.71q5.06-3.75,10.07-7.54c.33-.24.46-.24.68.12A13.93,13.93,0,0,1,69.17,20.73Z"/><path class="cls-3" d="M55.67,19.48A.85.85,0,0,1,55.6,19c0-4.11,0-8.22,0-12.32,0-.54.2-.62.65-.59a11.46,11.46,0,0,1,4.1,1.1A14.57,14.57,0,0,1,65.58,11a2.23,2.23,0,0,0,.19.24c.31.33.26.54-.12.82-3.22,2.38-6.41,4.79-9.62,7.19C55.92,19.32,55.79,19.39,55.67,19.48Z"/><path class="cls-4" d="M33.71,9.51l-2,2.26-5.79,6.58-.11.11c-.71.75-1,.78-1.81.15-1.15-.9-2.29-1.82-3.43-2.73s-2.29-1.81-3.42-2.74c-.28-.24-.44-.21-.7,0-2.85,2.7-5.72,5.38-8.57,8.07a2.66,2.66,0,0,1-.68.53.74.74,0,0,1-1.12-.66,1.64,1.64,0,0,1,.61-1.36c3-2.76,5.93-5.55,8.88-8.34l0,0c1-.92,1.14-.94,2.18-.11C20,13,22.22,14.8,24.42,16.58c.27.21.4.19.62-.06L32.43,8.1a2.32,2.32,0,0,0,.14-.21H30.46a11.59,11.59,0,0,1-1.32,0,.88.88,0,0,1-.9-.92c0-.48.29-.79.87-.89a2,2,0,0,1,.35,0c1.68,0,3.37,0,5,0,.87,0,1.15.31,1.16,1.18,0,1.72,0,3.43,0,5.15,0,.7-.34,1.1-.92,1.11s-.91-.38-.92-1.09c0-.93,0-1.87,0-2.8Z"/><path class="cls-4" d="M35.66,18.33c0-.82-.33-1.14-1.15-1.15H31.35c-1,0-1.26.33-1.26,1.31v7.08h0c0,2.41,0,4.82,0,7.24,0,.76.29,1.12,1.05,1.14,1.15,0,2.31,0,3.46,0,.76,0,1.06-.37,1.06-1.14Q35.68,25.57,35.66,18.33Z"/><path class="cls-4" d="M19.54,27c0-1.94,0-3.87,0-5.81,0-.87-.3-1.17-1.16-1.18q-1.61,0-3.21,0c-.92,0-1.2.31-1.2,1.24Q14,27,14,32.69c0,1,.31,1.27,1.29,1.27h3c1.05,0,1.33-.28,1.33-1.33,0-1.88,0-3.77,0-5.65Z"/><path class="cls-4" d="M27.63,24c0-.92-.26-1.21-1.16-1.23-1.09,0-2.18,0-3.26,0S22,23.12,22,24.06q0,4.29,0,8.56c0,1,.3,1.32,1.29,1.34h3.06c.92,0,1.25-.34,1.26-1.26V24Z"/><path class="cls-4" d="M11.51,29.8c0-1,0-2,0-3.06,0-.82-.34-1.13-1.15-1.14-1.1,0-2.21,0-3.31,0-.82,0-1.14.32-1.15,1.14,0,2,0,4,0,5.95,0,1,.33,1.27,1.3,1.28h3.06c.89,0,1.24-.34,1.25-1.22s0-2,0-2.95Z"/></svg>