<?xml version="1.0" encoding="utf-8"?>
<svg version="1.1" xmlns:xlink="http://www.w3.org/1999/xlink" width="17px" height="15px" xmlns="http://www.w3.org/2000/svg">
  <g transform="matrix(1 0 0 1 -115 -32 )">
    <path d="M 10.7103794642857 11.650390625  C 10.7736235119048 11.7154947916667  10.8463541666667 11.748046875  10.9285714285714 11.748046875  C 11.0107886904762 11.748046875  11.0835193452381 11.7154947916667  11.1467633928571 11.650390625  L 12.5318080357143 10.224609375  C 12.5950520833333 10.1595052083333  12.6266741071429 10.0846354166667  12.6266741071429 10  C 12.6266741071429 9.91536458333333  12.5950520833333 9.84049479166666  12.5318080357143 9.775390625  L 10.3214285714286 7.5  L 12.5318080357143 5.224609375  C 12.5950520833333 5.15950520833333  12.6266741071429 5.08463541666667  12.6266741071429 5  C 12.6266741071429 4.91536458333333  12.5950520833333 4.84049479166667  12.5318080357143 4.775390625  L 11.1467633928571 3.349609375  C 11.0835193452381 3.28450520833333  11.0107886904762 3.251953125  10.9285714285714 3.251953125  C 10.8463541666667 3.251953125  10.7736235119048 3.28450520833333  10.7103794642857 3.349609375  L 8.5 5.625  L 6.28962053571429 3.349609375  C 6.22637648809524 3.28450520833333  6.15364583333333 3.251953125  6.07142857142857 3.251953125  C 5.98921130952381 3.251953125  5.91648065476191 3.28450520833333  5.85323660714286 3.349609375  L 4.46819196428571 4.775390625  C 4.40494791666667 4.84049479166667  4.37332589285714 4.91536458333333  4.37332589285714 5  C 4.37332589285714 5.08463541666667  4.40494791666667 5.15950520833333  4.46819196428571 5.224609375  L 6.67857142857143 7.5  L 4.46819196428571 9.775390625  C 4.40494791666667 9.84049479166666  4.37332589285714 9.91536458333333  4.37332589285714 10  C 4.37332589285714 10.0846354166667  4.40494791666667 10.1595052083333  4.46819196428571 10.224609375  L 5.85323660714286 11.650390625  C 5.91648065476191 11.7154947916667  5.98921130952381 11.748046875  6.07142857142857 11.748046875  C 6.15364583333333 11.748046875  6.22637648809524 11.7154947916667  6.28962053571429 11.650390625  L 8.5 9.375  L 10.7103794642857 11.650390625  Z M 15.4821428571429 0  C 15.8995535714286 0  16.2568824404762 0.152994791666665  16.5541294642857 0.458984375000001  C 16.8513764880952 0.764973958333333  17 1.1328125  17 1.5625  L 17 13.4375  C 17 13.8671875  16.8513764880952 14.2350260416667  16.5541294642857 14.541015625  C 16.2568824404762 14.8470052083333  15.8995535714286 15  15.4821428571429 15  L 1.51785714285714 15  C 1.10044642857143 15  0.74311755952381 14.8470052083333  0.445870535714286 14.541015625  C 0.148623511904762 14.2350260416667  0 13.8671875  0 13.4375  L 0 1.5625  C 0 1.1328125  0.148623511904762 0.764973958333333  0.445870535714286 0.458984375000001  C 0.74311755952381 0.152994791666665  1.10044642857143 0  1.51785714285714 0  L 15.4821428571429 0  Z " fill-rule="nonzero" fill="#9f0029" stroke="none" transform="matrix(1 0 0 1 115 32 )" />
  </g>
</svg>